SplineFontDB: 3.0
FontName: Chivo-BlackItalic
FullName: Chivo Black Italic
FamilyName: Chivo
Weight: Black
Copyright: Copyright (c) 2011-2014 by Omnibus-Type (www.omnibus-type.com omnibus.type@gmail.com), with Reserved Font Name 'Chivo'
UComments: "Disclaimer+AAoA +AAoA-Omnibus-Type give no warranty in relation to this font, and you use this+AAoA-at your own risk.+AAoA +AAoA-Omnibus-Type shall not be liable for any direct, indirect, consequential, or incidental damages (including damages from loss of business profits, business interruption, loss of business information, and the like) arising out of the use of or inability to use the fonts.+AAoA +AAoA +AAoA-If you have further questions, please contact us:+AAoA-omnibus.type@gmail.com" 

StartChar: .notdef
Encoding: 65536 -1 0
Width: 500
Flags: MW
HStem: 0 50<80 420 80 500> 650 50<80 80 80 420>
VStem: 0 50<95 95 95 605> 450 50<95 605 605 605>
LayerCount: 2
Fore
SplineSet
500 0 m 1
 0 0 l 1
 0 700 l 1
 500 700 l 1
 500 0 l 1
80 650 m 1
 250 395 l 1
 420 650 l 1
 80 650 l 1
50 95 m 1
 220 350 l 1
 50 605 l 1
 50 95 l 1
280 350 m 1
 450 95 l 1
 450 605 l 1
 280 350 l 1
80 50 m 1
 420 50 l 1
 250 305 l 1
 80 50 l 1
EndSplineSet
EndChar

StartChar: A
Encoding: 65 65 1
Width: 709
GlyphClass: 2
Flags: MW
HStem: 122 145<283 405 283 432 214 405> 475 211<371 371 371 376> 666 20G<281 542 542 542>
VStem: -44 718<0 0>
LayerCount: 2
Fore
SplineSet
674 0 m 1xb0
 456 0 l 1
 432 122 l 1
 214 122 l 1
 157 0 l 1
 -44 0 l 1
 281 686 l 1
 542 686 l 1
 674 0 l 1xb0
371 475 m 1xd0
 283 267 l 1
 405 267 l 1
 376 475 l 1
 371 475 l 1xd0
EndSplineSet
Substitution2: "Single Substitution lookup 5 subtable" ordfeminine
Substitution2: "'aalt' Access All Alternates lookup 0 subtable" ordfeminine
Position2: "'cpsp' Capital Spacing lookup 0 subtable" dx=5 dy=0 dh=10 dv=0
EndChar

StartChar: Aacute
Encoding: 193 193 2
Width: 709
GlyphClass: 2
Flags: MW
HStem: 122 145<283 405 283 432 214 405> 475 211<371 371 371 376> 666 20G<281 542 542 542> 750 145<468 474 356 619>
VStem: -44 718<0 0>
LayerCount: 2
Fore
SplineSet
620 892 m 1xb8
 474 750 l 1
 356 750 l 1
 468 895 l 1
 619 895 l 1
 620 892 l 1xb8
674 0 m 1
 456 0 l 1
 432 122 l 1
 214 122 l 1
 157 0 l 1
 -44 0 l 1
 281 686 l 1
 542 686 l 1
 674 0 l 1
371 475 m 1xd8
 283 267 l 1
 405 267 l 1
 376 475 l 1
 371 475 l 1xd8
EndSplineSet
Position2: "'cpsp' Capital Spacing lookup 0 subtable" dx=5 dy=0 dh=10 dv=0
EndChar

StartChar: Abreve
Encoding: 258 258 3
Width: 709
GlyphClass: 2
Flags: MW
HStem: 122 145<283 405 283 432 214 405> 475 211<371 371 371 376> 666 20G<281 542 542 542> 788 86<404.5 458 404.5 484.5>
VStem: -44 718<0 0> 239 96<906.5 912 906.5 912> 529 95<906.5 912>
LayerCount: 2
Fore
SplineSet
529 912 m 1xb6
 624 912 l 1
 624 856 538 788 431 788 c 0
 324 788 239 856 239 912 c 1
 335 912 l 1
 335 901 378 874 431 874 c 0
 485 874 529 901 529 912 c 1xb6
674 0 m 1
 456 0 l 1
 432 122 l 1
 214 122 l 1
 157 0 l 1
 -44 0 l 1
 281 686 l 1
 542 686 l 1
 674 0 l 1
371 475 m 1xd8
 283 267 l 1
 405 267 l 1
 376 475 l 1
 371 475 l 1xd8
EndSplineSet
EndChar

StartChar: Acircumflex
Encoding: 194 194 4
Width: 709
GlyphClass: 2
Flags: MW
HStem: 122 145<283 405 283 432 214 405> 475 211<371 371 371 376> 666 20G<281 542 542 542> 751 145<211 499 487 499 371 617 487 487>
VStem: -44 718<0 0>
LayerCount: 2
Fore
SplineSet
617 751 m 1xb8
 487 751 l 1
 424 828 l 1
 339 751 l 1
 211 751 l 1
 371 896 l 1
 499 896 l 1
 617 751 l 1xb8
674 0 m 1
 456 0 l 1
 432 122 l 1
 214 122 l 1
 157 0 l 1
 -44 0 l 1
 281 686 l 1
 542 686 l 1
 674 0 l 1
371 475 m 1xd8
 283 267 l 1
 405 267 l 1
 376 475 l 1
 371 475 l 1xd8
EndSplineSet
Position2: "'cpsp' Capital Spacing lookup 0 subtable" dx=5 dy=0 dh=10 dv=0
EndChar

StartChar: Adieresis
Encoding: 196 196 5
Width: 709
GlyphClass: 2
Flags: MW
HStem: 122 145<283 405 283 432 214 405> 475 211<371 371 371 376> 666 20G<281 542 542 542> 750 147<249 380 228 401 249 448 469 600>
VStem: -44 718<0 0>
LayerCount: 2
Fore
SplineSet
380 750 m 1xb8
 228 750 l 1
 249 897 l 1
 401 897 l 1
 380 750 l 1xb8
600 750 m 1
 448 750 l 1
 469 897 l 1
 621 897 l 1
 600 750 l 1
674 0 m 1
 456 0 l 1
 432 122 l 1
 214 122 l 1
 157 0 l 1
 -44 0 l 1
 281 686 l 1
 542 686 l 1
 674 0 l 1
371 475 m 1xd8
 283 267 l 1
 405 267 l 1
 376 475 l 1
 371 475 l 1xd8
EndSplineSet
Position2: "'cpsp' Capital Spacing lookup 0 subtable" dx=5 dy=0 dh=10 dv=0
EndChar

StartChar: Agrave
Encoding: 192 192 6
Width: 709
GlyphClass: 2
Flags: MW
HStem: 122 145<283 405 283 432 214 405> 475 211<371 371 371 376> 666 20G<281 542 542 542> 750 145<354 402 251 472 354 354>
VStem: -44 718<0 0>
LayerCount: 2
Fore
SplineSet
472 750 m 1xb8
 354 750 l 1
 248 892 l 1
 251 895 l 1
 402 895 l 1
 472 750 l 1xb8
674 0 m 1
 456 0 l 1
 432 122 l 1
 214 122 l 1
 157 0 l 1
 -44 0 l 1
 281 686 l 1
 542 686 l 1
 674 0 l 1
371 475 m 1xd8
 283 267 l 1
 405 267 l 1
 376 475 l 1
 371 475 l 1xd8
EndSplineSet
Position2: "'cpsp' Capital Spacing lookup 0 subtable" dx=5 dy=0 dh=10 dv=0
EndChar

StartChar: Amacron
Encoding: 256 256 7
Width: 709
GlyphClass: 2
Flags: MW
HStem: 122 145<283 405 283 432 214 405> 475 211<371 371 371 376> 666 20G<281 542 542 542> 837 74<263 581 263 581>
VStem: 263 318<837 911 837 911>
LayerCount: 2
Fore
SplineSet
581 837 m 1xb8
 263 837 l 1
 263 911 l 1
 581 911 l 1
 581 837 l 1xb8
674 0 m 1
 456 0 l 1
 432 122 l 1
 214 122 l 1
 157 0 l 1
 -44 0 l 1
 281 686 l 1
 542 686 l 1
 674 0 l 1
371 475 m 1xd8
 283 267 l 1
 405 267 l 1
 376 475 l 1
 371 475 l 1xd8
EndSplineSet
EndChar

StartChar: Aogonek
Encoding: 260 260 8
Width: 709
GlyphClass: 2
Flags: MW
HStem: -143 53<568.5 633.5> 122 145<283 405 283 432 214 405> 475 211<371 376 371 371> 666 20G<281 542 542 542>
VStem: 503 79<-72.5 -63.5>
LayerCount: 2
Fore
SplineSet
691 -76 m 1xd8
 698 -119 l 1
 663 -135 626 -143 590 -143 c 0
 547 -143 503 -128 503 -83 c 0
 503 -44 536 -19 568 0 c 1
 456 0 l 1
 432 122 l 1
 214 122 l 1
 157 0 l 1
 -44 0 l 1
 281 686 l 1
 542 686 l 1
 674 0 l 1
 638 0 l 1
 615 -13 582 -31 582 -62 c 0
 582 -83 603 -90 622 -90 c 0
 645 -90 668 -84 691 -76 c 1xd8
405 267 m 1
 376 475 l 1
 371 475 l 1xe8
 283 267 l 1
 405 267 l 1
EndSplineSet
EndChar

StartChar: Aring
Encoding: 197 197 9
Width: 709
GlyphClass: 2
Flags: MW
HStem: 122 145<283 405 283 432 214 405> 475 211<371 371 371 376> 666 20G<281 542 542 542> 736 65<410.5 429.5 410.5 442> 871 66<417.5 438.5>
VStem: 322 67<822.5 842.5 822.5 854> 460 66<826.5 849.5>
LayerCount: 2
Fore
SplineSet
439 937 m 0xbe
 490 937 526 900 526 851 c 0
 526 787 474 736 410 736 c 0
 359 736 322 772 322 823 c 0
 322 885 376 937 439 937 c 0xbe
429 871 m 0
 406 871 389 854 389 831 c 0
 389 814 401 801 420 801 c 0
 439 801 460 813 460 840 c 0
 460 859 448 871 429 871 c 0
674 0 m 1
 456 0 l 1
 432 122 l 1
 214 122 l 1
 157 0 l 1
 -44 0 l 1
 281 686 l 1
 542 686 l 1
 674 0 l 1
371 475 m 1xde
 283 267 l 1
 405 267 l 1
 376 475 l 1
 371 475 l 1xde
EndSplineSet
Position2: "'cpsp' Capital Spacing lookup 0 subtable" dx=5 dy=0 dh=10 dv=0
EndChar

StartChar: Atilde
Encoding: 195 195 10
Width: 709
GlyphClass: 2
Flags: MW
HStem: 122 145<283 405 283 432 214 405> 475 211<371 371 371 376> 666 20G<281 542 542 542> 746 103<489 528.5 489 535.5> 786 103<312.5 351.5>
VStem: -44 718<0 0>
LayerCount: 2
Fore
SplineSet
572 889 m 1xb4
 653 889 l 1
 642 817 579 746 492 746 c 0xb4
 428 746 378 786 325 786 c 0xac
 300 786 280 769 269 746 c 1
 189 746 l 1xb4
 200 818 264 889 349 889 c 0xac
 413 889 462 849 516 849 c 0
 541 849 561 866 572 889 c 1xb4
674 0 m 1
 456 0 l 1
 432 122 l 1
 214 122 l 1
 157 0 l 1
 -44 0 l 1
 281 686 l 1
 542 686 l 1
 674 0 l 1
371 475 m 1xd4
 283 267 l 1
 405 267 l 1
 376 475 l 1
 371 475 l 1xd4
EndSplineSet
Position2: "'cpsp' Capital Spacing lookup 0 subtable" dx=5 dy=0 dh=10 dv=0
EndChar

StartChar: AE
Encoding: 198 198 11
Width: 1011
GlyphClass: 2
Flags: MW
HStem: 0 164<656 942 656 942> 122 145<311 433 311 439 221 433> 275 153<656 950 656 656> 528 158<642 997 642 642>
VStem: 433 209<428 475 475 475> 439 217<0 275 122 275>
LayerCount: 2
Fore
SplineSet
997 528 m 1xb8
 642 528 l 1
 642 428 l 1
 971 428 l 1
 950 275 l 1
 656 275 l 1
 656 164 l 1xb8
 942 164 l 1
 942 0 l 1
 439 0 l 1xb4
 439 122 l 1
 221 122 l 1x74
 146 0 l 1
 -53 0 l 1
 368 686 l 1
 1039 686 l 1
 997 528 l 1xb8
428 475 m 1
 311 267 l 1
 433 267 l 1x78
 433 475 l 1
 428 475 l 1
EndSplineSet
Position2: "'cpsp' Capital Spacing lookup 0 subtable" dx=5 dy=0 dh=10 dv=0
EndChar

StartChar: B
Encoding: 66 66 12
Width: 656
GlyphClass: 2
Flags: MW
HStem: 0 159<232 359 359 372 232 398> 277 146<248 384 269 375> 540 146<285 285 285 400>
VStem: 418 198<234 246.5> 443 203<497 509.5>
LayerCount: 2
Fore
SplineSet
113 686 m 1xf0
 489 686 l 2
 581 686 646 622 646 540 c 0xe8
 646 424 572 377 508 358 c 1
 507 354 l 1
 568 339 616 302 616 218 c 0
 616 109 533 0 398 0 c 2
 16 0 l 1
 113 686 l 1xf0
285 540 m 1
 269 423 l 1
 384 423 l 2
 410 423 439 445 441 473 c 2
 443 497 l 2
 443 522 425 540 400 540 c 2
 285 540 l 1
248 277 m 1
 232 159 l 1
 359 159 l 2
 385 159 414 181 416 209 c 2
 418 234 l 2
 418 259 400 277 375 277 c 2xf0
 248 277 l 1
EndSplineSet
Position2: "'cpsp' Capital Spacing lookup 0 subtable" dx=5 dy=0 dh=10 dv=0
EndChar

StartChar: C
Encoding: 67 67 13
Width: 684
GlyphClass: 2
Flags: MW
HStem: -10 157<226.5 351 307 351> 540 156<358 426 392 426>
VStem: 27 223<208.5 233 233 240 208.5 250> 484 195<450.5 457 457 483>
AnchorPoint: "Bottom" 342 0 basechar 0
LayerCount: 2
Fore
SplineSet
398 696 m 2
 426 696 l 2
 573 696 679 616 679 460 c 0
 679 441 678 424 675 405 c 1
 478 405 l 1
 483 440 l 2
 484 443 484 445 484 448 c 2
 484 457 l 2
 484 509 448 540 397 540 c 2
 392 540 l 2
 324 540 286 496 278 440 c 2
 251 247 l 2
 250 245 250 243 250 240 c 2
 250 233 l 2
 250 184 286 147 337 147 c 2
 351 147 l 2
 419 147 455 183 465 247 c 2
 470 280 l 1
 658 280 l 1
 631 100 515 -10 335 -10 c 2
 307 -10 l 2
 146 -10 27 81 27 242 c 0
 27 258 30 279 46 396 c 0
 70 576 217 696 398 696 c 2
EndSplineSet
Position2: "'cpsp' Capital Spacing lookup 0 subtable" dx=5 dy=0 dh=10 dv=0
EndChar

StartChar: Cacute
Encoding: 262 262 14
Width: 684
GlyphClass: 2
Flags: MW
HStem: -10 157<226.5 351 307 351> 540 156<358 426 392 426> 750 145<462 468 350 613>
VStem: 27 223<208.5 233 233 240 208.5 250> 484 195<450.5 457 457 483>
AnchorPoint: "Bottom" 342 0 basechar 0
LayerCount: 2
Fore
SplineSet
614 892 m 1
 468 750 l 1
 350 750 l 1
 462 895 l 1
 613 895 l 1
 614 892 l 1
398 696 m 2
 426 696 l 2
 573 696 679 616 679 460 c 0
 679 441 678 424 675 405 c 1
 478 405 l 1
 483 440 l 2
 484 443 484 445 484 448 c 2
 484 457 l 2
 484 509 448 540 397 540 c 2
 392 540 l 2
 324 540 286 496 278 440 c 2
 251 247 l 2
 250 245 250 243 250 240 c 2
 250 233 l 2
 250 184 286 147 337 147 c 2
 351 147 l 2
 419 147 455 183 465 247 c 2
 470 280 l 1
 658 280 l 1
 631 100 515 -10 335 -10 c 2
 307 -10 l 2
 146 -10 27 81 27 242 c 0
 27 258 30 279 46 396 c 0
 70 576 217 696 398 696 c 2
EndSplineSet
EndChar

StartChar: Ccaron
Encoding: 268 268 15
Width: 684
GlyphClass: 2
Flags: MW
HStem: -10 157<226.5 351 307 351> 540 156<358 426 392 426> 750 145<377 389 259 505 377 377>
VStem: 27 223<208.5 233 233 240 208.5 250> 484 195<450.5 457 457 483>
AnchorPoint: "Bottom" 342 0 basechar 0
LayerCount: 2
Fore
SplineSet
505 750 m 1
 377 750 l 1
 259 895 l 1
 389 895 l 1
 452 818 l 1
 537 895 l 1
 665 895 l 1
 505 750 l 1
398 696 m 2
 426 696 l 2
 573 696 679 616 679 460 c 0
 679 441 678 424 675 405 c 1
 478 405 l 1
 483 440 l 2
 484 443 484 445 484 448 c 2
 484 457 l 2
 484 509 448 540 397 540 c 2
 392 540 l 2
 324 540 286 496 278 440 c 2
 251 247 l 2
 250 245 250 243 250 240 c 2
 250 233 l 2
 250 184 286 147 337 147 c 2
 351 147 l 2
 419 147 455 183 465 247 c 2
 470 280 l 1
 658 280 l 1
 631 100 515 -10 335 -10 c 2
 307 -10 l 2
 146 -10 27 81 27 242 c 0
 27 258 30 279 46 396 c 0
 70 576 217 696 398 696 c 2
EndSplineSet
EndChar

StartChar: Ccedilla
Encoding: 199 199 16
Width: 684
GlyphClass: 2
Flags: MW
HStem: -197 58<253 288.5 253 297> -76 59<276 286 268 297> -10 157<226.5 351 307 351> 540 156<358 426 392 426>
VStem: 27 223<208.5 233 233 240 208.5 250> 320 87<-114.5 -100 -100 -92.5> 484 195<450.5 457 457 483>
LayerCount: 2
Fore
SplineSet
398 696 m 2
 426 696 l 2
 573 696 679 616 679 460 c 0
 679 441 678 424 675 405 c 1
 478 405 l 1
 483 440 l 2
 484 443 484 446 484 448 c 2
 484 457 l 2
 484 509 448 540 397 540 c 2
 392 540 l 2
 324 540 286 496 278 440 c 2
 251 247 l 2
 250 244 250 242 250 240 c 2
 250 233 l 2
 250 184 286 147 337 147 c 2
 351 147 l 2
 419 147 455 183 465 247 c 2
 470 280 l 1
 658 280 l 1
 631 100 515 -10 335 -10 c 2
 307 -10 l 2
 146 -10 27 81 27 242 c 0
 27 258 30 279 46 396 c 0
 70 576 217 696 398 696 c 2
276 -17 m 1xde
 297 -17 l 2
 351 -17 407 -32 407 -92 c 2
 407 -100 l 2
 407 -180 318 -197 276 -197 c 0
 229 -197 182 -185 155 -161 c 1
 195 -107 l 1
 205 -120 231 -139 275 -139 c 0
 302 -139 320 -129 320 -100 c 0
 320 -85 311 -76 286 -76 c 2
 268 -76 l 1
 276 -17 l 1xde
EndSplineSet
Position2: "'cpsp' Capital Spacing lookup 0 subtable" dx=5 dy=0 dh=10 dv=0
EndChar

StartChar: D
Encoding: 68 68 17
Width: 697
GlyphClass: 2
Flags: MW
HStem: 0 159<251 325> 530 156<303 303 303 380>
VStem: 16 667<0 501> 467 216<443 467.5>
LayerCount: 2
Fore
SplineSet
113 686 m 1xe0
 422 686 l 2
 574 686 683 574 683 428 c 0
 683 414 682 400 680 386 c 2
 667 300 l 2xd0
 642 134 520 0 325 0 c 2
 16 0 l 1
 113 686 l 1xe0
303 530 m 1
 251 159 l 1
 328 159 l 2
 396 159 434 203 442 259 c 2
 467 443 l 1
 467 492 431 530 380 530 c 2
 303 530 l 1
EndSplineSet
Position2: "'cpsp' Capital Spacing lookup 0 subtable" dx=5 dy=0 dh=10 dv=0
EndChar

StartChar: Eth
Encoding: 208 208 18
Width: 718
GlyphClass: 2
Flags: MW
HStem: 0 159<272 346> 297 94<18 79 5 92 304 368> 530 156<324 324 324 401>
VStem: 5 699<297 501> 488 216<443 467.5>
LayerCount: 2
Fore
SplineSet
134 686 m 1xf0
 443 686 l 2
 595 686 704 574 704 428 c 0
 704 414 703 400 701 386 c 2
 688 300 l 2xe8
 663 134 541 0 346 0 c 2
 37 0 l 1
 79 297 l 1
 5 297 l 1
 18 391 l 1
 92 391 l 1
 134 686 l 1xf0
324 530 m 1
 304 391 l 1
 381 391 l 1
 368 297 l 1
 291 297 l 1
 272 159 l 1
 349 159 l 2
 417 159 455 203 463 259 c 2
 488 443 l 1
 488 492 452 530 401 530 c 2
 324 530 l 1
EndSplineSet
Position2: "'cpsp' Capital Spacing lookup 0 subtable" dx=5 dy=0 dh=10 dv=0
EndChar

StartChar: Dcaron
Encoding: 270 270 19
Width: 697
GlyphClass: 2
Flags: MW
HStem: 0 159<251 325> 530 156<303 303 303 380> 750 145<304 316 186 432 304 304>
VStem: 16 667<0 501> 467 216<443 467.5>
LayerCount: 2
Fore
SplineSet
432 750 m 1xf0
 304 750 l 1
 186 895 l 1
 316 895 l 1
 379 818 l 1
 464 895 l 1
 592 895 l 1
 432 750 l 1xf0
113 686 m 1
 422 686 l 2
 574 686 683 574 683 428 c 0
 683 414 682 400 680 386 c 2
 667 300 l 2xe8
 642 134 520 0 325 0 c 2
 16 0 l 1
 113 686 l 1
303 530 m 1
 251 159 l 1
 328 159 l 2
 396 159 434 203 442 259 c 2
 467 443 l 1
 467 492 431 530 380 530 c 2
 303 530 l 1
EndSplineSet
EndChar

StartChar: Dcroat
Encoding: 272 272 20
Width: 718
GlyphClass: 2
Flags: MW
HStem: 0 159<272 346> 297 94<18 79 5 92 304 368> 530 156<324 324 324 401>
VStem: 5 699<297 501> 488 216<443 467.5>
LayerCount: 2
Fore
SplineSet
134 686 m 1xf0
 443 686 l 2
 595 686 704 574 704 428 c 0
 704 414 703 400 701 386 c 2
 688 300 l 2xe8
 663 134 541 0 346 0 c 2
 37 0 l 1
 79 297 l 1
 5 297 l 1
 18 391 l 1
 92 391 l 1
 134 686 l 1xf0
324 530 m 1
 304 391 l 1
 381 391 l 1
 368 297 l 1
 291 297 l 1
 272 159 l 1
 349 159 l 2
 417 159 455 203 463 259 c 2
 488 443 l 1
 488 492 452 530 401 530 c 2
 324 530 l 1
EndSplineSet
EndChar

StartChar: E
Encoding: 69 69 21
Width: 600
GlyphClass: 2
Flags: MW
HStem: 0 164<245 531 245 531> 275 153<282 539 261 560> 528 158<297 586 297 297>
VStem: 16 612
AnchorPoint: "Bottom" 300 0 basechar 0
LayerCount: 2
Fore
SplineSet
586 528 m 1
 297 528 l 1
 282 428 l 1
 560 428 l 1
 539 275 l 1
 261 275 l 1
 245 164 l 1
 531 164 l 1
 531 0 l 1
 16 0 l 1
 113 686 l 1
 628 686 l 1
 586 528 l 1
EndSplineSet
Position2: "'cpsp' Capital Spacing lookup 0 subtable" dx=5 dy=0 dh=10 dv=0
EndChar

StartChar: Eacute
Encoding: 201 201 22
Width: 600
GlyphClass: 2
Flags: MW
HStem: 0 164<245 531 245 531> 275 153<282 539 261 560> 528 158<297 586 297 297> 750 145<420 426 308 571>
VStem: 16 612
LayerCount: 2
Fore
SplineSet
572 892 m 1
 426 750 l 1
 308 750 l 1
 420 895 l 1
 571 895 l 1
 572 892 l 1
586 528 m 1
 297 528 l 1
 282 428 l 1
 560 428 l 1
 539 275 l 1
 261 275 l 1
 245 164 l 1
 531 164 l 1
 531 0 l 1
 16 0 l 1
 113 686 l 1
 628 686 l 1
 586 528 l 1
EndSplineSet
Position2: "'cpsp' Capital Spacing lookup 0 subtable" dx=5 dy=0 dh=10 dv=0
EndChar

StartChar: Ecaron
Encoding: 282 282 23
Width: 600
GlyphClass: 2
Flags: MW
HStem: 0 164<245 531 245 531> 275 153<282 539 261 560> 528 158<297 586 297 297> 750 145<305 317 187 433 305 305>
VStem: 16 612
AnchorPoint: "Bottom" 300 0 basechar 0
LayerCount: 2
Fore
SplineSet
433 750 m 1
 305 750 l 1
 187 895 l 1
 317 895 l 1
 380 818 l 1
 465 895 l 1
 593 895 l 1
 433 750 l 1
586 528 m 1
 297 528 l 1
 282 428 l 1
 560 428 l 1
 539 275 l 1
 261 275 l 1
 245 164 l 1
 531 164 l 1
 531 0 l 1
 16 0 l 1
 113 686 l 1
 628 686 l 1
 586 528 l 1
EndSplineSet
EndChar

StartChar: Ecircumflex
Encoding: 202 202 24
Width: 600
GlyphClass: 2
Flags: MW
HStem: 0 164<245 531 245 531> 275 153<282 539 261 560> 528 158<297 586 297 297> 751 145<176 464 452 464 336 582 452 452>
VStem: 16 612
LayerCount: 2
Fore
SplineSet
582 751 m 1
 452 751 l 1
 389 828 l 1
 304 751 l 1
 176 751 l 1
 336 896 l 1
 464 896 l 1
 582 751 l 1
586 528 m 1
 297 528 l 1
 282 428 l 1
 560 428 l 1
 539 275 l 1
 261 275 l 1
 245 164 l 1
 531 164 l 1
 531 0 l 1
 16 0 l 1
 113 686 l 1
 628 686 l 1
 586 528 l 1
EndSplineSet
Position2: "'cpsp' Capital Spacing lookup 0 subtable" dx=5 dy=0 dh=10 dv=0
EndChar

StartChar: Edieresis
Encoding: 203 203 25
Width: 600
GlyphClass: 2
Flags: MW
HStem: 0 164<245 531 245 531> 275 153<282 539 261 560> 528 158<297 586 297 297> 751 147<204 335 183 356 204 403 424 555>
VStem: 16 612
LayerCount: 2
Fore
SplineSet
335 751 m 1
 183 751 l 1
 204 898 l 1
 356 898 l 1
 335 751 l 1
555 751 m 1
 403 751 l 1
 424 898 l 1
 576 898 l 1
 555 751 l 1
586 528 m 1
 297 528 l 1
 282 428 l 1
 560 428 l 1
 539 275 l 1
 261 275 l 1
 245 164 l 1
 531 164 l 1
 531 0 l 1
 16 0 l 1
 113 686 l 1
 628 686 l 1
 586 528 l 1
EndSplineSet
Position2: "'cpsp' Capital Spacing lookup 0 subtable" dx=5 dy=0 dh=10 dv=0
EndChar

StartChar: Edotaccent
Encoding: 278 278 26
Width: 600
GlyphClass: 2
Flags: MW
HStem: 0 164<245 531 245 531> 275 153<282 539 261 560> 528 158<297 586 297 297> 779 132<358.5 379.5>
VStem: 303 134<834 855.5>
AnchorPoint: "Bottom" 300 0 basechar 0
LayerCount: 2
Fore
SplineSet
379 911 m 0
 414 911 437 886 437 854 c 0
 437 814 400 779 359 779 c 0
 327 779 303 803 303 835 c 0
 303 876 338 911 379 911 c 0
586 528 m 1
 297 528 l 1
 282 428 l 1
 560 428 l 1
 539 275 l 1
 261 275 l 1
 245 164 l 1
 531 164 l 1
 531 0 l 1
 16 0 l 1
 113 686 l 1
 628 686 l 1
 586 528 l 1
EndSplineSet
EndChar

StartChar: Egrave
Encoding: 200 200 27
Width: 600
GlyphClass: 2
Flags: MW
HStem: 0 164<245 531 245 531> 275 153<282 539 261 560> 528 158<297 586 297 297> 751 145<322 370 219 440 322 322>
VStem: 16 612
LayerCount: 2
Fore
SplineSet
440 751 m 1
 322 751 l 1
 216 893 l 1
 219 896 l 1
 370 896 l 1
 440 751 l 1
586 528 m 1
 297 528 l 1
 282 428 l 1
 560 428 l 1
 539 275 l 1
 261 275 l 1
 245 164 l 1
 531 164 l 1
 531 0 l 1
 16 0 l 1
 113 686 l 1
 628 686 l 1
 586 528 l 1
EndSplineSet
Position2: "'cpsp' Capital Spacing lookup 0 subtable" dx=5 dy=0 dh=10 dv=0
EndChar

StartChar: Emacron
Encoding: 274 274 28
Width: 600
GlyphClass: 2
Flags: MW
HStem: 0 164<245 531 245 531> 275 153<282 539 261 560> 528 158<297 586 297 297> 837 74<201 519 201 519>
VStem: 201 318<837 911 837 911>
AnchorPoint: "Bottom" 300 0 basechar 0
LayerCount: 2
Fore
SplineSet
519 837 m 1
 201 837 l 1
 201 911 l 1
 519 911 l 1
 519 837 l 1
586 528 m 1
 297 528 l 1
 282 428 l 1
 560 428 l 1
 539 275 l 1
 261 275 l 1
 245 164 l 1
 531 164 l 1
 531 0 l 1
 16 0 l 1
 113 686 l 1
 628 686 l 1
 586 528 l 1
EndSplineSet
EndChar

StartChar: Eogonek
Encoding: 280 280 29
Width: 600
GlyphClass: 2
Flags: MW
HStem: -143 53<440.5 505.5> 0 164<245 440 510 531 510 510> 275 153<282 539 261 560> 528 158<297 297 297 586>
VStem: 375 79<-72.5 -63.5> 440 91<0 164>
AnchorPoint: "Bottom" 300 0 basechar 0
LayerCount: 2
Fore
SplineSet
297 528 m 1x78
 282 428 l 1
 560 428 l 1
 539 275 l 1
 261 275 l 1
 245 164 l 1
 531 164 l 1
 531 0 l 1
 510 0 l 1
 487 -13 454 -31 454 -62 c 0
 454 -83 475 -90 494 -90 c 0
 517 -90 540 -84 563 -76 c 1
 570 -119 l 1
 535 -135 498 -143 462 -143 c 0
 419 -143 375 -128 375 -83 c 0xf8
 375 -44 408 -19 440 0 c 1x74
 16 0 l 1
 113 686 l 1
 628 686 l 1
 586 528 l 1
 297 528 l 1x78
EndSplineSet
EndChar

StartChar: F
Encoding: 70 70 30
Width: 563
GlyphClass: 2
Flags: MW
HStem: 257 154<279 509 257 531> 523 163<295 566 295 295>
VStem: 16 593
LayerCount: 2
Fore
SplineSet
566 523 m 1
 295 523 l 1
 279 411 l 1
 531 411 l 1
 509 257 l 1
 257 257 l 1
 221 0 l 1
 16 0 l 1
 113 686 l 1
 609 686 l 1
 566 523 l 1
EndSplineSet
Position2: "'cpsp' Capital Spacing lookup 0 subtable" dx=5 dy=0 dh=10 dv=0
EndChar

StartChar: G
Encoding: 71 71 31
Width: 699
GlyphClass: 2
Flags: MW
HStem: -10 157<200 355 275 355> 248 136<359 456 340 669> 439 257<483 504 407 677 483 483> 540 156<360 435 392 435>
VStem: 28 222<208.5 233 233 240 208.5 251.5> 484 196<449 543 473.5 487.5>
AnchorPoint: "Bottom" 350 0 basechar 0
LayerCount: 2
Fore
SplineSet
407 696 m 2xdc
 435 696 l 2xdc
 573 696 680 607 680 479 c 0
 680 468 679 457 678 446 c 2
 677 439 l 1xec
 483 439 l 2
 484 442 484 446 484 449 c 2
 484 459 l 2
 484 516 446 540 397 540 c 2
 392 540 l 2
 328 540 286 496 278 440 c 2
 251 247 l 2
 250 244 250 242 250 240 c 2
 250 233 l 2
 250 184 286 147 337 147 c 2
 355 147 l 2
 411 147 447 185 456 248 c 1
 340 248 l 1
 359 384 l 1
 669 384 l 1
 636 144 l 2
 624 74 622 29 622 0 c 1
 510 0 l 1
 493 73 l 1
 443 25 385 -10 285 -10 c 2
 275 -10 l 2
 125 -10 28 100 28 244 c 0
 28 259 29 274 31 290 c 2
 46 396 l 2
 69 562 199 696 407 696 c 2xdc
EndSplineSet
Position2: "'cpsp' Capital Spacing lookup 0 subtable" dx=5 dy=0 dh=10 dv=0
EndChar

StartChar: Gbreve
Encoding: 286 286 32
Width: 699
GlyphClass: 2
Flags: MW
HStem: -10 157<200 355 275 355> 248 136<359 456 340 669> 439 257<483 504 407 677 483 483> 540 156<360 435 392 435> 788 86<402.5 456 402.5 482.5>
VStem: 28 222<208.5 233 233 240 208.5 251.5> 237 96<906.5 912 906.5 912> 484 196<449 543 473.5 487.5> 527 95<906.5 912>
AnchorPoint: "Bottom" 350 0 basechar 0
LayerCount: 2
Fore
SplineSet
527 912 m 1xda80
 622 912 l 1
 622 856 536 788 429 788 c 0
 322 788 237 856 237 912 c 1
 333 912 l 1
 333 901 376 874 429 874 c 0
 483 874 527 901 527 912 c 1xda80
407 696 m 2
 435 696 l 2xdd
 573 696 680 607 680 479 c 0
 680 468 679 457 678 446 c 2
 677 439 l 1xed
 483 439 l 2
 484 442 484 446 484 449 c 2
 484 459 l 2
 484 516 446 540 397 540 c 2
 392 540 l 2
 328 540 286 496 278 440 c 2
 251 247 l 2
 250 244 250 242 250 240 c 2
 250 233 l 2
 250 184 286 147 337 147 c 2
 355 147 l 2
 411 147 447 185 456 248 c 1
 340 248 l 1
 359 384 l 1
 669 384 l 1
 636 144 l 2
 624 74 622 29 622 0 c 1
 510 0 l 1
 493 73 l 1
 443 25 385 -10 285 -10 c 2
 275 -10 l 2
 125 -10 28 100 28 244 c 0
 28 259 29 274 31 290 c 2
 46 396 l 2xdd
 69 562 199 696 407 696 c 2
EndSplineSet
EndChar

StartChar: Gcommaaccent
Encoding: 290 290 33
Width: 699
GlyphClass: 2
Flags: MW
HStem: -171 151<251 315 230 442> -10 157<200 355 275 355> 248 136<359 456 340 669> 439 257<483 504 407 677 483 483> 540 156<360 435 392 435>
VStem: 28 222<208.5 233 233 240 208.5 251.5> 484 196<449 543 473.5 487.5>
AnchorPoint: "Bottom" 350 0 basechar 0
LayerCount: 2
Fore
SplineSet
407 696 m 2xae
 435 696 l 2xae
 573 696 680 607 680 479 c 0
 680 468 679 457 678 446 c 2
 677 439 l 1xb6
 483 439 l 2
 484 442 484 446 484 449 c 2
 484 459 l 2
 484 516 446 540 397 540 c 2
 392 540 l 2
 328 540 286 496 278 440 c 2
 251 247 l 2
 250 244 250 242 250 240 c 2
 250 233 l 2
 250 184 286 147 337 147 c 2
 355 147 l 2
 411 147 447 185 456 248 c 1
 340 248 l 1
 359 384 l 1
 669 384 l 1
 636 144 l 2
 624 74 622 29 622 0 c 1
 510 0 l 1
 493 73 l 1
 443 25 385 -10 285 -10 c 2
 275 -10 l 2xee
 125 -10 28 100 28 244 c 0
 28 259 29 274 31 290 c 2
 46 396 l 2
 69 562 199 696 407 696 c 2xae
425 -139 m 1
 381 -250 l 1
 287 -250 l 1
 315 -171 l 1
 230 -171 l 1
 251 -20 l 1
 442 -20 l 1
 425 -139 l 1
EndSplineSet
EndChar

StartChar: H
Encoding: 72 72 34
Width: 697
GlyphClass: 2
Flags: MW
HStem: 267 166<287 427 265 449> 666 20G<113 323 323 323 485 696 696 696>
VStem: 16 680
LayerCount: 2
Fore
SplineSet
599 0 m 1
 389 0 l 1
 427 267 l 1
 265 267 l 1
 227 0 l 1
 16 0 l 1
 113 686 l 1
 323 686 l 1
 287 433 l 1
 449 433 l 1
 485 686 l 1
 696 686 l 1
 599 0 l 1
EndSplineSet
Position2: "'cpsp' Capital Spacing lookup 0 subtable" dx=5 dy=0 dh=10 dv=0
EndChar

StartChar: I
Encoding: 73 73 35
Width: 446
GlyphClass: 2
Flags: MW
HStem: 0 148<16 97 309 369 -5 97> 539 147<92 152 71 466 364 445 364 364>
VStem: -5 471
LayerCount: 2
Fore
SplineSet
445 539 m 1
 364 539 l 1
 309 148 l 1
 390 148 l 1
 369 0 l 1
 -5 0 l 1
 16 148 l 1
 97 148 l 1
 152 539 l 1
 71 539 l 1
 92 686 l 1
 466 686 l 1
 445 539 l 1
EndSplineSet
Position2: "'cpsp' Capital Spacing lookup 0 subtable" dx=5 dy=0 dh=10 dv=0
EndChar

StartChar: Iacute
Encoding: 205 205 36
Width: 446
GlyphClass: 2
Flags: MW
HStem: 0 148<16 97 309 369 -5 97> 539 147<92 152 71 466 364 445 364 364> 750 145<336 342 224 487>
VStem: -5 493
LayerCount: 2
Fore
SplineSet
488 892 m 1
 342 750 l 1
 224 750 l 1
 336 895 l 1
 487 895 l 1
 488 892 l 1
445 539 m 1
 364 539 l 1
 309 148 l 1
 390 148 l 1
 369 0 l 1
 -5 0 l 1
 16 148 l 1
 97 148 l 1
 152 539 l 1
 71 539 l 1
 92 686 l 1
 466 686 l 1
 445 539 l 1
EndSplineSet
Position2: "'cpsp' Capital Spacing lookup 0 subtable" dx=5 dy=0 dh=10 dv=0
EndChar

StartChar: Icircumflex
Encoding: 206 206 37
Width: 446
GlyphClass: 2
Flags: MW
HStem: 0 148<16 97 309 369 -5 97> 539 147<92 152 71 466 364 445 364 364> 750 145<81 369 357 369 241 487 357 357>
VStem: -5 492
LayerCount: 2
Fore
SplineSet
487 750 m 1
 357 750 l 1
 294 827 l 1
 209 750 l 1
 81 750 l 1
 241 895 l 1
 369 895 l 1
 487 750 l 1
445 539 m 1
 364 539 l 1
 309 148 l 1
 390 148 l 1
 369 0 l 1
 -5 0 l 1
 16 148 l 1
 97 148 l 1
 152 539 l 1
 71 539 l 1
 92 686 l 1
 466 686 l 1
 445 539 l 1
EndSplineSet
Position2: "'cpsp' Capital Spacing lookup 0 subtable" dx=5 dy=0 dh=10 dv=0
EndChar

StartChar: Idieresis
Encoding: 207 207 38
Width: 446
GlyphClass: 2
Flags: MW
HStem: 0 148<16 97 309 369 -5 97> 539 147<92 152 71 466 364 445 364 364> 750 147<119 250 98 271 119 318 339 470>
VStem: -5 496
LayerCount: 2
Fore
SplineSet
250 750 m 1
 98 750 l 1
 119 897 l 1
 271 897 l 1
 250 750 l 1
470 750 m 1
 318 750 l 1
 339 897 l 1
 491 897 l 1
 470 750 l 1
445 539 m 1
 364 539 l 1
 309 148 l 1
 390 148 l 1
 369 0 l 1
 -5 0 l 1
 16 148 l 1
 97 148 l 1
 152 539 l 1
 71 539 l 1
 92 686 l 1
 466 686 l 1
 445 539 l 1
EndSplineSet
Position2: "'cpsp' Capital Spacing lookup 0 subtable" dx=5 dy=0 dh=10 dv=0
EndChar

StartChar: Idotaccent
Encoding: 304 304 39
Width: 446
GlyphClass: 2
Flags: MW
HStem: 0 148<16 97 309 369 -5 97> 539 147<92 152 71 466 364 445 364 364> 779 132<291.5 312.5>
VStem: 236 134<834 855.5>
LayerCount: 2
Fore
SplineSet
312 911 m 0
 347 911 370 886 370 854 c 0
 370 814 333 779 292 779 c 0
 260 779 236 803 236 835 c 0
 236 876 271 911 312 911 c 0
445 539 m 1
 364 539 l 1
 309 148 l 1
 390 148 l 1
 369 0 l 1
 -5 0 l 1
 16 148 l 1
 97 148 l 1
 152 539 l 1
 71 539 l 1
 92 686 l 1
 466 686 l 1
 445 539 l 1
EndSplineSet
EndChar

StartChar: Igrave
Encoding: 204 204 40
Width: 446
GlyphClass: 2
Flags: MW
HStem: 0 148<16 97 309 369 -5 97> 539 147<92 152 71 466 364 445 364 364> 750 145<220 268 117 338 220 220>
VStem: -5 471
LayerCount: 2
Fore
SplineSet
338 750 m 1
 220 750 l 1
 114 892 l 1
 117 895 l 1
 268 895 l 1
 338 750 l 1
445 539 m 1
 364 539 l 1
 309 148 l 1
 390 148 l 1
 369 0 l 1
 -5 0 l 1
 16 148 l 1
 97 148 l 1
 152 539 l 1
 71 539 l 1
 92 686 l 1
 466 686 l 1
 445 539 l 1
EndSplineSet
Position2: "'cpsp' Capital Spacing lookup 0 subtable" dx=5 dy=0 dh=10 dv=0
EndChar

StartChar: Imacron
Encoding: 298 298 41
Width: 446
GlyphClass: 2
Flags: MW
HStem: 0 148<16 97 309 369 -5 97> 539 147<92 152 71 466 364 445 364 364> 837 74<134 452 134 452>
VStem: 134 318<837 911 837 911>
LayerCount: 2
Fore
SplineSet
452 837 m 1
 134 837 l 1
 134 911 l 1
 452 911 l 1
 452 837 l 1
445 539 m 1
 364 539 l 1
 309 148 l 1
 390 148 l 1
 369 0 l 1
 -5 0 l 1
 16 148 l 1
 97 148 l 1
 152 539 l 1
 71 539 l 1
 92 686 l 1
 466 686 l 1
 445 539 l 1
EndSplineSet
EndChar

StartChar: Iogonek
Encoding: 302 302 42
Width: 446
GlyphClass: 2
Flags: MW
HStem: -143 53<281.5 346.5> 0 148<16 97 16 281 -5 97 351 369 351 351> 539 147<92 152 71 466 364 445 364 364>
VStem: 216 79<-72.5 -63.5>
LayerCount: 2
Fore
SplineSet
364 539 m 1
 309 148 l 1
 390 148 l 1
 369 0 l 1
 351 0 l 1
 328 -13 295 -31 295 -62 c 0
 295 -83 316 -90 335 -90 c 0
 358 -90 381 -84 404 -76 c 1
 411 -119 l 1
 376 -135 339 -143 303 -143 c 0
 260 -143 216 -128 216 -83 c 0
 216 -44 249 -19 281 0 c 1
 -5 0 l 1
 16 148 l 1
 97 148 l 1
 152 539 l 1
 71 539 l 1
 92 686 l 1
 466 686 l 1
 445 539 l 1
 364 539 l 1
EndSplineSet
EndChar

StartChar: J
Encoding: 74 74 43
Width: 543
GlyphClass: 2
Flags: MW
HStem: -10 150<124.5 232.5 211 217> 666 20G<339 544 544 544>
VStem: -9 194<147 180 158 180> -9 553<147 686 158 686>
LayerCount: 2
Fore
SplineSet
544 686 m 1xd0
 473 180 l 2
 454 55 350 -10 217 -10 c 2
 186 -10 l 2
 63 -10 -9 46 -9 147 c 2
 -9 158 l 2
 -9 170 -7 189 3 248 c 1
 195 248 l 1
 190 216 l 2
 187 199 185 182 185 178 c 0
 185 155 201 140 221 140 c 0
 244 140 265 158 269 186 c 2xe0
 339 686 l 1
 544 686 l 1xd0
EndSplineSet
Position2: "'cpsp' Capital Spacing lookup 0 subtable" dx=5 dy=0 dh=10 dv=0
EndChar

StartChar: K
Encoding: 75 75 44
Width: 684
GlyphClass: 2
Flags: MW
HStem: 666 20G<113 317 317 317 513 745 745 745>
VStem: 16 729<0 686>
AnchorPoint: "Bottom" 342 0 basechar 0
LayerCount: 2
Fore
SplineSet
497 411 m 1
 654 0 l 1
 419 0 l 1
 335 248 l 1
 242 152 l 1
 220 0 l 1
 16 0 l 1
 113 686 l 1
 317 686 l 1
 279 415 l 1
 513 686 l 1
 745 686 l 1
 497 411 l 1
EndSplineSet
Position2: "'cpsp' Capital Spacing lookup 0 subtable" dx=5 dy=0 dh=10 dv=0
EndChar

StartChar: Kcommaaccent
Encoding: 310 310 45
Width: 684
GlyphClass: 2
Flags: MW
HStem: -171 151<243 307 222 434> 666 20G<113 317 317 317 513 745 745 745>
VStem: 16 729<0 686>
AnchorPoint: "Bottom" 342 0 basechar 0
LayerCount: 2
Fore
SplineSet
497 411 m 1
 654 0 l 1
 419 0 l 1
 335 248 l 1
 242 152 l 1
 220 0 l 1
 16 0 l 1
 113 686 l 1
 317 686 l 1
 279 415 l 1
 513 686 l 1
 745 686 l 1
 497 411 l 1
417 -139 m 1
 373 -250 l 1
 279 -250 l 1
 307 -171 l 1
 222 -171 l 1
 243 -20 l 1
 434 -20 l 1
 417 -139 l 1
EndSplineSet
EndChar

StartChar: L
Encoding: 76 76 46
Width: 540
GlyphClass: 2
Flags: MW
HStem: 0 168<252 497 252 497> 666 20G<113 325 325 325>
VStem: 16 481<0 168>
AnchorPoint: "Bottom" 270 0 basechar 0
LayerCount: 2
Fore
SplineSet
252 168 m 1
 497 168 l 1
 497 0 l 1
 16 0 l 1
 113 686 l 1
 325 686 l 1
 252 168 l 1
EndSplineSet
Position2: "'cpsp' Capital Spacing lookup 0 subtable" dx=5 dy=0 dh=10 dv=0
EndChar

StartChar: Lacute
Encoding: 313 313 47
Width: 540
GlyphClass: 2
Flags: MW
HStem: 0 168<252 497 252 497> 666 20G<113 325 325 325> 750 145<310 316 198 461>
VStem: 16 481<0 168>
AnchorPoint: "Bottom" 270 0 basechar 0
LayerCount: 2
Fore
SplineSet
462 892 m 1
 316 750 l 1
 198 750 l 1
 310 895 l 1
 461 895 l 1
 462 892 l 1
252 168 m 1
 497 168 l 1
 497 0 l 1
 16 0 l 1
 113 686 l 1
 325 686 l 1
 252 168 l 1
EndSplineSet
EndChar

StartChar: Lcaron
Encoding: 317 317 48
Width: 540
GlyphClass: 2
Flags: MW
HStem: 0 168<252 497 252 497> 503 183<418 476 113 392>
VStem: 16 593
AnchorPoint: "Bottom" 270 0 basechar 0
LayerCount: 2
Fore
SplineSet
252 168 m 1
 497 168 l 1
 497 0 l 1
 16 0 l 1
 113 686 l 1
 325 686 l 1
 252 168 l 1
586 525 m 1
 510 338 l 1
 416 338 l 1
 476 503 l 1
 392 503 l 1
 418 686 l 1
 609 686 l 1
 586 525 l 1
EndSplineSet
EndChar

StartChar: Lcommaaccent
Encoding: 315 315 49
Width: 540
GlyphClass: 2
Flags: MW
HStem: -171 151<171 235 150 362> 0 168<252 497 252 497> 666 20G<113 325 325 325>
VStem: 16 481<0 168>
AnchorPoint: "Bottom" 270 0 basechar 0
LayerCount: 2
Fore
SplineSet
252 168 m 1
 497 168 l 1
 497 0 l 1
 16 0 l 1
 113 686 l 1
 325 686 l 1
 252 168 l 1
345 -139 m 1
 301 -250 l 1
 207 -250 l 1
 235 -171 l 1
 150 -171 l 1
 171 -20 l 1
 362 -20 l 1xf0
 345 -139 l 1
EndSplineSet
EndChar

StartChar: Lslash
Encoding: 321 321 50
Width: 555
GlyphClass: 2
Flags: MW
HStem: 0 168<267 506 267 506> 666 20G<128 340 340 340>
VStem: 2 504<0 255>
LayerCount: 2
Fore
SplineSet
313 499 m 1
 411 544 l 1
 396 439 l 1
 299 394 l 1
 267 168 l 1
 506 168 l 1
 506 0 l 1
 31 0 l 1
 72 288 l 1
 2 255 l 1
 17 360 l 1
 87 393 l 1
 128 686 l 1
 340 686 l 1
 313 499 l 1
EndSplineSet
Position2: "'cpsp' Capital Spacing lookup 0 subtable" dx=5 dy=0 dh=10 dv=0
EndChar

StartChar: M
Encoding: 77 77 51
Width: 1004
GlyphClass: 2
Flags: MW
HStem: 440 246<269 274 269 269 754 758 754 754> 666 20G<113 457 457 457 657 1003 1003 1003>
VStem: 16 987<0 686>
LayerCount: 2
Fore
SplineSet
906 0 m 1x60
 696 0 l 1
 758 440 l 1
 754 440 l 1
 572 0 l 1
 331 0 l 1
 274 440 l 1
 269 440 l 1xa0
 207 0 l 1
 16 0 l 1
 113 686 l 1
 457 686 l 1
 504 320 l 1
 508 320 l 1
 657 686 l 1
 1003 686 l 1
 906 0 l 1x60
EndSplineSet
Position2: "'cpsp' Capital Spacing lookup 0 subtable" dx=5 dy=0 dh=10 dv=0
EndChar

StartChar: N
Encoding: 78 78 52
Width: 696
GlyphClass: 2
Flags: MW
HStem: 666 20G<113 289 289 289 501 695 695 695>
VStem: 16 679
AnchorPoint: "Bottom" 348 0 basechar 0
LayerCount: 2
Fore
SplineSet
598 0 m 1
 418 0 l 1
 282 246 l 2
 279 250 271 265 265 278 c 2
 252 304 l 1
 209 0 l 1
 16 0 l 1
 113 686 l 1
 289 686 l 1
 429 431 l 1
 457 375 l 1
 501 686 l 1
 695 686 l 1
 598 0 l 1
EndSplineSet
Position2: "'cpsp' Capital Spacing lookup 0 subtable" dx=5 dy=0 dh=10 dv=0
EndChar

StartChar: Nacute
Encoding: 323 323 53
Width: 696
GlyphClass: 2
Flags: MW
HStem: 666 20G<113 289 289 289 501 695 695 695> 750 145<468 474 356 619>
VStem: 16 679
AnchorPoint: "Bottom" 348 0 basechar 0
LayerCount: 2
Fore
SplineSet
620 892 m 1
 474 750 l 1
 356 750 l 1
 468 895 l 1
 619 895 l 1
 620 892 l 1
598 0 m 1
 418 0 l 1
 282 246 l 2
 279 250 271 265 265 278 c 2
 252 304 l 1
 209 0 l 1
 16 0 l 1
 113 686 l 1
 289 686 l 1
 429 431 l 1
 457 375 l 1
 501 686 l 1
 695 686 l 1
 598 0 l 1
EndSplineSet
EndChar

StartChar: Ncaron
Encoding: 327 327 54
Width: 696
GlyphClass: 2
Flags: MW
HStem: 666 20G<113 289 289 289 501 695 695 695> 750 145<383 395 265 511 383 383>
VStem: 16 679
AnchorPoint: "Bottom" 348 0 basechar 0
LayerCount: 2
Fore
SplineSet
511 750 m 1
 383 750 l 1
 265 895 l 1
 395 895 l 1
 458 818 l 1
 543 895 l 1
 671 895 l 1
 511 750 l 1
598 0 m 1
 418 0 l 1
 282 246 l 2
 279 250 271 265 265 278 c 2
 252 304 l 1
 209 0 l 1
 16 0 l 1
 113 686 l 1
 289 686 l 1
 429 431 l 1
 457 375 l 1
 501 686 l 1
 695 686 l 1
 598 0 l 1
EndSplineSet
EndChar

StartChar: Ncommaaccent
Encoding: 325 325 55
Width: 696
GlyphClass: 2
Flags: MW
HStem: -171 151<249 313 228 440> 666 20G<113 289 289 289 501 695 695 695>
VStem: 16 679
AnchorPoint: "Bottom" 348 0 basechar 0
LayerCount: 2
Fore
SplineSet
598 0 m 1
 418 0 l 1
 282 246 l 2
 279 250 271 265 265 278 c 2
 252 304 l 1
 209 0 l 1
 16 0 l 1
 113 686 l 1
 289 686 l 1
 429 431 l 1
 457 375 l 1
 501 686 l 1
 695 686 l 1
 598 0 l 1
423 -139 m 1
 379 -250 l 1
 285 -250 l 1
 313 -171 l 1
 228 -171 l 1
 249 -20 l 1
 440 -20 l 1
 423 -139 l 1
EndSplineSet
EndChar

StartChar: Ntilde
Encoding: 209 209 56
Width: 696
GlyphClass: 2
Flags: MW
HStem: 666 20G<113 289 289 289 501 695 695 695> 746 103<493 532.5 493 539.5> 786 103<316.5 355.5>
VStem: 16 679
LayerCount: 2
Fore
SplineSet
576 889 m 1xd0
 657 889 l 1
 646 817 583 746 496 746 c 0xd0
 432 746 382 786 329 786 c 0xb0
 304 786 284 769 273 746 c 1
 193 746 l 1xd0
 204 818 268 889 353 889 c 0xb0
 417 889 466 849 520 849 c 0
 545 849 565 866 576 889 c 1xd0
598 0 m 1
 418 0 l 1
 282 246 l 2
 279 250 271 265 265 278 c 2
 252 304 l 1
 209 0 l 1
 16 0 l 1
 113 686 l 1
 289 686 l 1
 429 431 l 1
 457 375 l 1
 501 686 l 1
 695 686 l 1
 598 0 l 1
EndSplineSet
Position2: "'cpsp' Capital Spacing lookup 0 subtable" dx=5 dy=0 dh=10 dv=0
EndChar

StartChar: O
Encoding: 79 79 57
Width: 719
GlyphClass: 2
Flags: MW
HStem: -10 157<213 342 337 342 342 345> 540 154<388 392 392 397>
VStem: 28 222<208.5 233 233 240 208.5 262.5> 484 221<451 478>
LayerCount: 2
Fore
SplineSet
388 694 m 2
 444 694 l 2
 596 694 705 582 705 436 c 0
 705 402 703 408 687 290 c 0
 663 124 532 -10 345 -10 c 2
 289 -10 l 2
 137 -10 28 102 28 248 c 0
 28 277 29 276 46 394 c 0
 69 560 202 694 388 694 c 2
397 540 m 2
 392 540 l 2
 324 540 286 496 278 440 c 2
 251 247 l 2
 250 245 250 243 250 240 c 2
 250 233 l 2
 250 184 286 147 337 147 c 2
 342 147 l 2
 410 147 448 191 456 247 c 2
 483 440 l 2
 484 443 484 448 484 454 c 0
 484 502 448 540 397 540 c 2
EndSplineSet
Substitution2: "Single Substitution lookup 5 subtable" ordmasculine
Substitution2: "'aalt' Access All Alternates lookup 0 subtable" ordmasculine
Position2: "'cpsp' Capital Spacing lookup 0 subtable" dx=5 dy=0 dh=10 dv=0
EndChar

StartChar: Oacute
Encoding: 211 211 58
Width: 719
GlyphClass: 2
Flags: MW
HStem: -10 157<213 342 337 342 342 345> 540 154<388 392 392 397> 750 145<482 488 370 633>
VStem: 28 222<208.5 233 233 240 208.5 262.5> 484 221<451 478>
LayerCount: 2
Fore
SplineSet
634 892 m 1
 488 750 l 1
 370 750 l 1
 482 895 l 1
 633 895 l 1
 634 892 l 1
388 694 m 2
 444 694 l 2
 596 694 705 582 705 436 c 0
 705 402 703 408 687 290 c 0
 663 124 532 -10 345 -10 c 2
 289 -10 l 2
 137 -10 28 102 28 248 c 0
 28 277 29 276 46 394 c 0
 69 560 202 694 388 694 c 2
397 540 m 2
 392 540 l 2
 324 540 286 496 278 440 c 2
 251 247 l 2
 250 244 250 242 250 240 c 2
 250 233 l 2
 250 184 286 147 337 147 c 2
 342 147 l 2
 410 147 448 191 456 247 c 2
 483 440 l 2
 484 443 484 448 484 454 c 0
 484 502 448 540 397 540 c 2
EndSplineSet
Position2: "'cpsp' Capital Spacing lookup 0 subtable" dx=5 dy=0 dh=10 dv=0
EndChar

StartChar: Ocircumflex
Encoding: 212 212 59
Width: 719
GlyphClass: 2
Flags: MW
HStem: -10 157<213 342 337 342 342 345> 540 154<388 392 392 397> 750 145<222 510 498 510 382 628 498 498>
VStem: 28 222<208.5 233 233 240 208.5 262.5> 484 221<451 478>
LayerCount: 2
Fore
SplineSet
628 750 m 1
 498 750 l 1
 435 827 l 1
 350 750 l 1
 222 750 l 1
 382 895 l 1
 510 895 l 1
 628 750 l 1
388 694 m 2
 444 694 l 2
 596 694 705 582 705 436 c 0
 705 402 703 408 687 290 c 0
 663 124 532 -10 345 -10 c 2
 289 -10 l 2
 137 -10 28 102 28 248 c 0
 28 277 29 276 46 394 c 0
 69 560 202 694 388 694 c 2
397 540 m 2
 392 540 l 2
 324 540 286 496 278 440 c 2
 251 247 l 2
 250 244 250 242 250 240 c 2
 250 233 l 2
 250 184 286 147 337 147 c 2
 342 147 l 2
 410 147 448 191 456 247 c 2
 483 440 l 2
 484 443 484 448 484 454 c 0
 484 502 448 540 397 540 c 2
EndSplineSet
Position2: "'cpsp' Capital Spacing lookup 0 subtable" dx=5 dy=0 dh=10 dv=0
EndChar

StartChar: Odieresis
Encoding: 214 214 60
Width: 719
GlyphClass: 2
Flags: MW
HStem: -10 157<213 342 337 342 342 345> 540 154<388 392 392 397> 750 147<264 395 243 416 264 463 484 615>
VStem: 28 222<208.5 233 233 240 208.5 262.5> 484 221<451 478>
LayerCount: 2
Fore
SplineSet
395 750 m 1
 243 750 l 1
 264 897 l 1
 416 897 l 1
 395 750 l 1
615 750 m 1
 463 750 l 1
 484 897 l 1
 636 897 l 1
 615 750 l 1
388 694 m 2
 444 694 l 2
 596 694 705 582 705 436 c 0
 705 402 703 408 687 290 c 0
 663 124 532 -10 345 -10 c 2
 289 -10 l 2
 137 -10 28 102 28 248 c 0
 28 277 29 276 46 394 c 0
 69 560 202 694 388 694 c 2
397 540 m 2
 392 540 l 2
 324 540 286 496 278 440 c 2
 251 247 l 2
 250 244 250 242 250 240 c 2
 250 233 l 2
 250 184 286 147 337 147 c 2
 342 147 l 2
 410 147 448 191 456 247 c 2
 483 440 l 2
 484 443 484 448 484 454 c 0
 484 502 448 540 397 540 c 2
EndSplineSet
Position2: "'cpsp' Capital Spacing lookup 0 subtable" dx=5 dy=0 dh=10 dv=0
EndChar

StartChar: Ograve
Encoding: 210 210 61
Width: 719
GlyphClass: 2
Flags: MW
HStem: -10 157<213 342 337 342 342 345> 540 154<388 392 392 397> 750 145<357 405 254 475 357 357>
VStem: 28 222<208.5 233 233 240 208.5 262.5> 484 221<451 478>
LayerCount: 2
Fore
SplineSet
475 750 m 1
 357 750 l 1
 251 892 l 1
 254 895 l 1
 405 895 l 1
 475 750 l 1
388 694 m 2
 444 694 l 2
 596 694 705 582 705 436 c 0
 705 402 703 408 687 290 c 0
 663 124 532 -10 345 -10 c 2
 289 -10 l 2
 137 -10 28 102 28 248 c 0
 28 277 29 276 46 394 c 0
 69 560 202 694 388 694 c 2
397 540 m 2
 392 540 l 2
 324 540 286 496 278 440 c 2
 251 247 l 2
 250 244 250 242 250 240 c 2
 250 233 l 2
 250 184 286 147 337 147 c 2
 342 147 l 2
 410 147 448 191 456 247 c 2
 483 440 l 2
 484 443 484 448 484 454 c 0
 484 502 448 540 397 540 c 2
EndSplineSet
Position2: "'cpsp' Capital Spacing lookup 0 subtable" dx=5 dy=0 dh=10 dv=0
EndChar

StartChar: Ohungarumlaut
Encoding: 336 336 62
Width: 719
GlyphClass: 2
Flags: MW
HStem: -10 157<213 342 337 342 342 345> 540 154<388 392 392 397> 750 145<366 372 254 517 481 481 481 517 593 599>
VStem: 28 222<208.5 233 233 240 208.5 262.5> 484 221<451 478>
LayerCount: 2
Fore
SplineSet
518 892 m 1
 372 750 l 1
 254 750 l 1
 366 895 l 1
 517 895 l 1
 518 892 l 1
745 892 m 1
 599 750 l 1
 481 750 l 1
 593 895 l 1
 744 895 l 1
 745 892 l 1
388 694 m 2
 444 694 l 2
 596 694 705 582 705 436 c 0
 705 402 703 408 687 290 c 0
 663 124 532 -10 345 -10 c 2
 289 -10 l 2
 137 -10 28 102 28 248 c 0
 28 277 29 276 46 394 c 0
 69 560 202 694 388 694 c 2
397 540 m 2
 392 540 l 2
 324 540 286 496 278 440 c 2
 251 247 l 2
 250 245 250 243 250 240 c 2
 250 233 l 2
 250 184 286 147 337 147 c 2
 342 147 l 2
 410 147 448 191 456 247 c 2
 483 440 l 2
 484 443 484 448 484 454 c 0
 484 502 448 540 397 540 c 2
EndSplineSet
EndChar

StartChar: Omacron
Encoding: 332 332 63
Width: 719
GlyphClass: 2
Flags: MW
HStem: -10 157<213 342 337 342 342 345> 540 154<388 392 392 397> 837 74<281 599 281 599>
VStem: 28 222<208.5 233 233 240 208.5 262.5> 281 318<837 911 837 911> 484 221<451 478>
LayerCount: 2
Fore
SplineSet
599 837 m 1xf8
 281 837 l 1
 281 911 l 1
 599 911 l 1
 599 837 l 1xf8
388 694 m 2
 444 694 l 2
 596 694 705 582 705 436 c 0
 705 402 703 408 687 290 c 0xf4
 663 124 532 -10 345 -10 c 2
 289 -10 l 2
 137 -10 28 102 28 248 c 0
 28 277 29 276 46 394 c 0
 69 560 202 694 388 694 c 2
397 540 m 2
 392 540 l 2
 324 540 286 496 278 440 c 2
 251 247 l 2
 250 245 250 243 250 240 c 2
 250 233 l 2
 250 184 286 147 337 147 c 2
 342 147 l 2
 410 147 448 191 456 247 c 2
 483 440 l 2
 484 443 484 448 484 454 c 0
 484 502 448 540 397 540 c 2
EndSplineSet
EndChar

StartChar: Oslash
Encoding: 216 216 64
Width: 719
GlyphClass: 2
Flags: MW
HStem: -10 157<267.5 342 337 342 342 345> 540 154<388 392 392 397>
VStem: 4 722
LayerCount: 2
Fore
SplineSet
726 754 m 1
 628 623 l 1
 676 576 705 512 705 436 c 0
 705 402 703 408 687 290 c 0
 663 124 532 -10 345 -10 c 2
 289 -10 l 2
 246 -10 206 0 171 15 c 1
 111 -65 l 1
 4 -65 l 1
 101 64 l 1
 54 111 28 175 28 248 c 0
 28 277 29 276 46 394 c 0
 69 560 202 694 388 694 c 2
 444 694 l 2
 485 694 521 686 556 671 c 1
 618 754 l 1
 726 754 l 1
397 540 m 2
 392 540 l 2
 324 540 286 496 278 440 c 2
 254 268 l 1
 446 525 l 1
 431 535 414 540 397 540 c 2
481 428 m 1
 283 164 l 1
 298 153 316 147 337 147 c 2
 342 147 l 2
 410 147 448 191 456 247 c 2
 481 428 l 1
EndSplineSet
Position2: "'cpsp' Capital Spacing lookup 0 subtable" dx=5 dy=0 dh=10 dv=0
EndChar

StartChar: Otilde
Encoding: 213 213 65
Width: 719
GlyphClass: 2
Flags: MW
HStem: -10 157<213 342 337 342 342 345> 540 154<388 392 392 397> 745 103<510 549.5 510 556.5> 785 103<333.5 372.5>
VStem: 28 222<208.5 233 233 240 208.5 262.5> 484 221<451 478>
LayerCount: 2
Fore
SplineSet
593 888 m 1xec
 674 888 l 1
 663 816 600 745 513 745 c 0xec
 449 745 399 785 346 785 c 0xdc
 321 785 301 768 290 745 c 1
 210 745 l 1xec
 221 817 285 888 370 888 c 0xdc
 434 888 483 848 537 848 c 0
 562 848 582 865 593 888 c 1xec
388 694 m 2
 444 694 l 2
 596 694 705 582 705 436 c 0
 705 402 703 408 687 290 c 0
 663 124 532 -10 345 -10 c 2
 289 -10 l 2
 137 -10 28 102 28 248 c 0
 28 277 29 276 46 394 c 0
 69 560 202 694 388 694 c 2
397 540 m 2
 392 540 l 2
 324 540 286 496 278 440 c 2
 251 247 l 2
 250 244 250 242 250 240 c 2
 250 233 l 2
 250 184 286 147 337 147 c 2
 342 147 l 2
 410 147 448 191 456 247 c 2
 483 440 l 2
 484 443 484 448 484 454 c 0
 484 502 448 540 397 540 c 2
EndSplineSet
Position2: "'cpsp' Capital Spacing lookup 0 subtable" dx=5 dy=0 dh=10 dv=0
EndChar

StartChar: OE
Encoding: 338 338 66
Width: 1004
GlyphClass: 2
Flags: MW
HStem: 0 164<649 935 649 935> 275 153<686 943 665 964> 528 158<701 990 701 701> 532 154<388 392 392 397>
VStem: 28 222<218.5 246 218.5 248>
LayerCount: 2
Fore
SplineSet
990 528 m 1xe8
 701 528 l 1
 686 428 l 1
 964 428 l 1
 943 275 l 1
 665 275 l 1
 649 164 l 1
 935 164 l 1
 935 0 l 1
 289 0 l 2
 137 0 28 107 28 248 c 0
 29 277 29 276 46 394 c 0
 69 556 203 686 388 686 c 2
 1032 686 l 1
 990 528 l 1xe8
397 532 m 2xd8
 392 532 l 2
 323 532 287 488 278 432 c 2
 251 257 l 2
 250 254 250 249 250 243 c 0
 250 194 286 157 337 157 c 2
 342 157 l 2
 410 157 447 201 456 257 c 2
 483 432 l 2
 484 435 484 440 484 446 c 0
 484 495 448 532 397 532 c 2xd8
EndSplineSet
Position2: "'cpsp' Capital Spacing lookup 0 subtable" dx=5 dy=0 dh=10 dv=0
EndChar

StartChar: P
Encoding: 80 80 67
Width: 645
GlyphClass: 2
Flags: MW
HStem: 244 153<282 374 374 395.5 282 416 261 374> 529 157<301 301 301 393>
VStem: 445 215<478 490.5>
LayerCount: 2
Fore
SplineSet
113 686 m 1
 478 686 l 2
 585 686 660 606 660 505 c 0
 660 368 570 244 416 244 c 2
 261 244 l 1
 226 0 l 1
 16 0 l 1
 113 686 l 1
301 529 m 1
 282 397 l 1
 374 397 l 2
 417 397 440 429 443 457 c 2
 445 478 l 2
 445 503 429 529 393 529 c 2
 301 529 l 1
EndSplineSet
Position2: "'cpsp' Capital Spacing lookup 0 subtable" dx=5 dy=0 dh=10 dv=0
EndChar

StartChar: Thorn
Encoding: 222 222 68
Width: 646
GlyphClass: 2
Flags: MW
HStem: 146 148<267 370 370 383.5 267 402 246 370> 427 156<285 463 307 388> 666 20G<113 322 322 322>
VStem: 16 630<0 452.5> 431 215<382.5 396.5>
LayerCount: 2
Fore
SplineSet
307 583 m 1xf0
 463 583 l 2
 570 583 646 503 646 402 c 0xe8
 646 263 542 146 402 146 c 2
 246 146 l 1
 225 0 l 1
 16 0 l 1
 113 686 l 1
 322 686 l 1
 307 583 l 1xf0
285 427 m 1
 267 294 l 1
 370 294 l 2
 397 294 423 316 427 344 c 0
 431 379 431 381 431 384 c 0
 431 409 413 427 388 427 c 2
 285 427 l 1
EndSplineSet
Position2: "'cpsp' Capital Spacing lookup 0 subtable" dx=5 dy=0 dh=10 dv=0
EndChar

StartChar: Q
Encoding: 81 81 69
Width: 718
GlyphClass: 2
Flags: MW
HStem: -162 123<367 534> 540 154<388 392 392 397>
VStem: 28 222<208.5 233 233 240 208.5 254> 484 220<451 478>
LayerCount: 2
Fore
SplineSet
388 694 m 2
 444 694 l 2
 595 694 704 584 704 437 c 0
 704 393 703 410 687 290 c 0
 668 157 586 49 444 6 c 1
 451 -18 468 -39 516 -39 c 0
 552 -39 605 -27 632 -19 c 2
 645 -15 l 1
 630 -120 l 1
 590 -140 532 -162 443 -162 c 0
 291 -162 237 -72 232 -4 c 1
 110 20 28 118 28 247 c 0
 28 261 29 274 45 394 c 0
 66 560 206 694 388 694 c 2
397 540 m 2
 392 540 l 2
 324 540 286 496 278 440 c 2
 251 247 l 2
 250 244 250 242 250 240 c 2
 250 233 l 2
 250 184 286 147 337 147 c 2
 342 147 l 2
 410 147 448 191 456 247 c 2
 483 440 l 2
 484 443 484 448 484 454 c 0
 484 502 448 540 397 540 c 2
EndSplineSet
Position2: "'cpsp' Capital Spacing lookup 0 subtable" dx=5 dy=0 dh=10 dv=0
EndChar

StartChar: R
Encoding: 82 82 70
Width: 682
GlyphClass: 2
Flags: MW
HStem: 266 153<280 316 258 386> 529 157<295 295 295 401>
VStem: 390 208<105.5 202> 443.5 221.5
AnchorPoint: "Bottom" 341 0 basechar 0
LayerCount: 2
Fore
SplineSet
112 686 m 1xe0
 497 686 l 2
 588 686 665 628 665 538 c 0xd0
 665 439 597 367 518 354 c 1
 517 349 l 1
 580 330 605 278 605 213 c 0
 605 185 598 157 598 122 c 0
 598 89 605 58 636 50 c 1
 630 9 l 1
 591 -6 547 -10 508 -10 c 0
 428 -10 382 16 382 88 c 0
 382 115 390 148 390 179 c 0
 390 225 376 266 316 266 c 2
 258 266 l 1
 221 0 l 1
 16 0 l 1
 112 686 l 1xe0
295 529 m 1
 280 419 l 1
 386 419 l 2
 419 419 439 441 443 469 c 2
 444 488 l 2
 445 512 423 529 401 529 c 2
 295 529 l 1
EndSplineSet
Position2: "'cpsp' Capital Spacing lookup 0 subtable" dx=5 dy=0 dh=10 dv=0
EndChar

StartChar: Racute
Encoding: 340 340 71
Width: 682
GlyphClass: 2
Flags: MW
HStem: 266 153<280 316 258 386> 529 157<295 295 295 401> 750 145<381 387 269 532>
VStem: 390 208<105.5 202> 443.5 221.5
AnchorPoint: "Bottom" 341 0 basechar 0
LayerCount: 2
Fore
SplineSet
533 892 m 1xf0
 387 750 l 1
 269 750 l 1
 381 895 l 1
 532 895 l 1
 533 892 l 1xf0
112 686 m 1
 497 686 l 2
 588 686 665 628 665 538 c 0xe8
 665 439 597 367 518 354 c 1
 517 349 l 1
 580 330 605 278 605 213 c 0
 605 185 598 157 598 122 c 0
 598 89 605 58 636 50 c 1
 630 9 l 1
 591 -6 547 -10 508 -10 c 0
 428 -10 382 16 382 88 c 0
 382 115 390 148 390 179 c 0
 390 225 376 266 316 266 c 2
 258 266 l 1
 221 0 l 1
 16 0 l 1
 112 686 l 1
295 529 m 1
 280 419 l 1
 386 419 l 2
 419 419 439 441 443 469 c 2
 444 488 l 2
 445 512 423 529 401 529 c 2
 295 529 l 1
EndSplineSet
EndChar

StartChar: Rcaron
Encoding: 344 344 72
Width: 682
GlyphClass: 2
Flags: MW
HStem: 266 153<280 316 258 386> 529 157<295 295 295 401> 750 145<296 308 178 424 296 296>
VStem: 390 208<105.5 202> 443.5 221.5
AnchorPoint: "Bottom" 341 0 basechar 0
LayerCount: 2
Fore
SplineSet
424 750 m 1xf0
 296 750 l 1
 178 895 l 1
 308 895 l 1
 371 818 l 1
 456 895 l 1
 584 895 l 1
 424 750 l 1xf0
112 686 m 1
 497 686 l 2
 588 686 665 628 665 538 c 0xe8
 665 439 597 367 518 354 c 1
 517 349 l 1
 580 330 605 278 605 213 c 0
 605 185 598 157 598 122 c 0
 598 89 605 58 636 50 c 1
 630 9 l 1
 591 -6 547 -10 508 -10 c 0
 428 -10 382 16 382 88 c 0
 382 115 390 148 390 179 c 0
 390 225 376 266 316 266 c 2
 258 266 l 1
 221 0 l 1
 16 0 l 1
 112 686 l 1
295 529 m 1
 280 419 l 1
 386 419 l 2
 419 419 439 441 443 469 c 2
 444 488 l 2
 445 512 423 529 401 529 c 2
 295 529 l 1
EndSplineSet
EndChar

StartChar: Rcommaaccent
Encoding: 342 342 73
Width: 682
GlyphClass: 2
Flags: MW
HStem: -171 151<242 306 221 433> 266 153<280 316 258 386> 529 157<295 295 295 401>
VStem: 390 208<105.5 202> 443.5 221.5
AnchorPoint: "Bottom" 341 0 basechar 0
LayerCount: 2
Fore
SplineSet
112 686 m 1xf0
 497 686 l 2
 588 686 665 628 665 538 c 0xe8
 665 439 597 367 518 354 c 1
 517 349 l 1
 580 330 605 278 605 213 c 0
 605 185 598 157 598 122 c 0
 598 89 605 58 636 50 c 1
 630 9 l 1
 591 -6 547 -10 508 -10 c 0
 428 -10 382 16 382 88 c 0
 382 115 390 148 390 179 c 0
 390 225 376 266 316 266 c 2
 258 266 l 1
 221 0 l 1
 16 0 l 1
 112 686 l 1xf0
295 529 m 1
 280 419 l 1
 386 419 l 2
 419 419 439 441 443 469 c 2
 444 488 l 2
 445 512 423 529 401 529 c 2
 295 529 l 1
416 -139 m 1
 372 -250 l 1
 278 -250 l 1
 306 -171 l 1
 221 -171 l 1
 242 -20 l 1
 433 -20 l 1
 416 -139 l 1
EndSplineSet
EndChar

StartChar: S
Encoding: 83 83 74
Width: 651
GlyphClass: 2
Flags: MW
HStem: -10 161<260.5 335 260.5 410> 262.33 168.92 544 152<340.5 396>
VStem: 12 196<112 216> 63 218<453 510.5 453 527> 394 222<196.5 241.5> 444.5 195.5
AnchorPoint: "Bottom" 326 0 basechar 0
LayerCount: 2
Fore
SplineSet
388 696 m 0xaa
 529 696 640 641 640 517 c 0
 640 506 640 494 636 474 c 1
 444 474 l 1
 445 493 l 2xaa
 446 520 421 544 371 544 c 0
 310 544 281 524 281 497 c 0xec
 281 409 616 469 616 261 c 0
 616 132 544 -10 276 -10 c 0
 135 -10 12 47 12 177 c 0
 12 196 15 215 18 234 c 1
 212 234 l 1
 209 227 208 220 208 212 c 0xb4
 208 180 228 151 293 151 c 0
 377 151 394 175 394 199 c 0xec
 394 284 63 221 63 443 c 0
 63 611 200 696 388 696 c 0xaa
EndSplineSet
Position2: "'cpsp' Capital Spacing lookup 0 subtable" dx=5 dy=0 dh=10 dv=0
EndChar

StartChar: Sacute
Encoding: 346 346 75
Width: 651
GlyphClass: 2
Flags: MW
HStem: -10 161<260.5 335 260.5 410> 262.33 168.92 544 152<340.5 396> 750 145<406 412 294 557>
VStem: 12 196<112 216> 63 218<453 510.5 453 527> 394 222<196.5 241.5> 444.5 195.5
AnchorPoint: "Bottom" 326 0 basechar 0
LayerCount: 2
Fore
SplineSet
558 892 m 1xb6
 412 750 l 1
 294 750 l 1
 406 895 l 1
 557 895 l 1
 558 892 l 1xb6
388 696 m 0xb5
 529 696 640 641 640 517 c 0
 640 506 640 494 636 474 c 1
 444 474 l 1
 445 493 l 2xb5
 446 520 421 544 371 544 c 0
 310 544 281 524 281 497 c 0xf6
 281 409 616 469 616 261 c 0
 616 132 544 -10 276 -10 c 0
 135 -10 12 47 12 177 c 0
 12 196 15 215 18 234 c 1
 212 234 l 1
 209 227 208 220 208 212 c 0xba
 208 180 228 151 293 151 c 0
 377 151 394 175 394 199 c 0xf6
 394 284 63 221 63 443 c 0
 63 611 200 696 388 696 c 0xb5
EndSplineSet
EndChar

StartChar: Scaron
Encoding: 352 352 76
Width: 651
GlyphClass: 2
Flags: MW
HStem: -10 161<260.5 335 260.5 410> 262.33 168.92 544 152<340.5 396> 750 145<322 334 204 450 322 322>
VStem: 12 196<112 216> 63 218<453 510.5 453 527> 394 222<196.5 241.5> 444.5 195.5
LayerCount: 2
Fore
SplineSet
450 750 m 1xb6
 322 750 l 1
 204 895 l 1
 334 895 l 1
 397 818 l 1
 482 895 l 1
 610 895 l 1
 450 750 l 1xb6
388 696 m 0xb5
 529 696 640 641 640 517 c 0
 640 506 640 494 636 474 c 1
 444 474 l 1
 445 493 l 2xb5
 446 520 421 544 371 544 c 0
 310 544 281 524 281 497 c 0xf6
 281 409 616 469 616 261 c 0
 616 132 544 -10 276 -10 c 0
 135 -10 12 47 12 177 c 0
 12 196 15 215 18 234 c 1
 212 234 l 1
 209 227 208 220 208 212 c 0xba
 208 180 228 151 293 151 c 0
 377 151 394 175 394 199 c 0xf6
 394 284 63 221 63 443 c 0
 63 611 200 696 388 696 c 0xb5
EndSplineSet
Position2: "'cpsp' Capital Spacing lookup 0 subtable" dx=5 dy=0 dh=10 dv=0
EndChar

StartChar: Scedilla
Encoding: 350 350 77
Width: 651
GlyphClass: 2
Flags: MW
HStem: -197 58<298 333.5 298 342> -76 59<321 331 313 342> -10 161<260.5 335 260.5 410> 262.33 168.92 544 152<340.5 396>
VStem: 12 196<112 216> 63 218<453 510.5 453 527> 365 87<-114.5 -100 -100 -92.5> 394 222<196.5 241.5> 444.5 195.5
AnchorPoint: "Bottom" 326 0 basechar 0
LayerCount: 2
Fore
SplineSet
388 696 m 0xaa40
 529 696 640 641 640 517 c 0
 640 506 640 494 636 474 c 1
 444 474 l 1
 445 493 l 2xaa40
 446 520 421 544 371 544 c 0
 310 544 281 524 281 497 c 0xba80
 281 409 616 469 616 261 c 0
 616 132 544 -10 276 -10 c 0
 135 -10 12 47 12 177 c 0
 12 196 15 215 18 234 c 1
 212 234 l 1
 209 227 208 220 208 212 c 0xac80
 208 180 228 151 293 151 c 0
 377 151 394 175 394 199 c 0xba80
 394 284 63 221 63 443 c 0
 63 611 200 696 388 696 c 0xaa40
321 -17 m 1xcb
 342 -17 l 2
 396 -17 452 -32 452 -92 c 2
 452 -100 l 2
 452 -180 363 -197 321 -197 c 0
 274 -197 227 -185 200 -161 c 1
 240 -107 l 1
 250 -120 276 -139 320 -139 c 0
 347 -139 365 -129 365 -100 c 0
 365 -85 356 -76 331 -76 c 2
 313 -76 l 1
 321 -17 l 1xcb
EndSplineSet
EndChar

StartChar: Scommaaccent
Encoding: 536 536 78
Width: 651
GlyphClass: 2
Flags: MW
HStem: -171 151<227 291 206 418> -10 161<260.5 335 260.5 410> 262.33 168.92 544 152<340.5 396>
VStem: 12 196<112 216> 63 218<453 510.5 453 527> 394 222<196.5 241.5> 444.5 195.5
AnchorPoint: "Bottom" 326 0 basechar 0
LayerCount: 2
Fore
SplineSet
388 696 m 0x95
 529 696 640 641 640 517 c 0
 640 506 640 494 636 474 c 1
 444 474 l 1
 445 493 l 2x95
 446 520 421 544 371 544 c 0
 310 544 281 524 281 497 c 0xb6
 281 409 616 469 616 261 c 0
 616 132 544 -10 276 -10 c 0
 135 -10 12 47 12 177 c 0
 12 196 15 215 18 234 c 1
 212 234 l 1
 209 227 208 220 208 212 c 0xda
 208 180 228 151 293 151 c 0
 377 151 394 175 394 199 c 0xf6
 394 284 63 221 63 443 c 0
 63 611 200 696 388 696 c 0x95
401 -139 m 1
 357 -250 l 1
 263 -250 l 1
 291 -171 l 1
 206 -171 l 1
 227 -20 l 1
 418 -20 l 1x96
 401 -139 l 1
EndSplineSet
EndChar

StartChar: T
Encoding: 84 84 79
Width: 585
GlyphClass: 2
Flags: MW
HStem: 521 165<70 221 47 626 429 603 429 429>
VStem: 47 579<521 686>
AnchorPoint: "Bottom" 251 0 basechar 0
LayerCount: 2
Fore
SplineSet
603 521 m 1
 429 521 l 1
 355 0 l 1
 147 0 l 1
 221 521 l 1
 47 521 l 1
 70 686 l 1
 626 686 l 1
 603 521 l 1
EndSplineSet
Position2: "'cpsp' Capital Spacing lookup 0 subtable" dx=5 dy=0 dh=10 dv=0
EndChar

StartChar: Tcaron
Encoding: 356 356 80
Width: 585
GlyphClass: 2
Flags: MW
HStem: 521 165<70 221 47 626 429 603 429 429> 750 145<298 310 180 426 298 298>
VStem: 47 579<521 686>
AnchorPoint: "Bottom" 251 0 basechar 0
LayerCount: 2
Fore
SplineSet
426 750 m 1
 298 750 l 1
 180 895 l 1
 310 895 l 1
 373 818 l 1
 458 895 l 1
 586 895 l 1
 426 750 l 1
603 521 m 1
 429 521 l 1
 355 0 l 1
 147 0 l 1
 221 521 l 1
 47 521 l 1
 70 686 l 1
 626 686 l 1
 603 521 l 1
EndSplineSet
EndChar

StartChar: Tcedilla
Encoding: 354 354 81
Width: 585
GlyphClass: 2
Flags: MW
HStem: -197 58<223 258.5 223 267> -76 59<246 256 238 267> 521 165<70 221 47 626 429 603 429 429>
VStem: 290 87<-114.5 -100 -100 -92.5>
AnchorPoint: "Bottom" 251 0 basechar 0
LayerCount: 2
Fore
SplineSet
603 521 m 1
 429 521 l 1
 355 0 l 1
 147 0 l 1
 221 521 l 1
 47 521 l 1
 70 686 l 1
 626 686 l 1
 603 521 l 1
246 -17 m 1
 267 -17 l 2
 321 -17 377 -32 377 -92 c 2
 377 -100 l 2
 377 -180 288 -197 246 -197 c 0
 199 -197 152 -185 125 -161 c 1
 165 -107 l 1
 175 -120 201 -139 245 -139 c 0
 272 -139 290 -129 290 -100 c 0
 290 -85 281 -76 256 -76 c 2
 238 -76 l 1
 246 -17 l 1
EndSplineSet
EndChar

StartChar: Tcommaaccent
Encoding: 538 538 82
Width: 585
GlyphClass: 2
Flags: MW
HStem: -171 151<152 216 131 343> 521 165<70 221 47 626 429 603 429 429>
VStem: 47 579<521 686>
AnchorPoint: "Bottom" 251 0 basechar 0
LayerCount: 2
Fore
SplineSet
603 521 m 1
 429 521 l 1
 355 0 l 1
 147 0 l 1
 221 521 l 1
 47 521 l 1
 70 686 l 1
 626 686 l 1
 603 521 l 1
326 -139 m 1
 282 -250 l 1
 188 -250 l 1
 216 -171 l 1
 131 -171 l 1
 152 -20 l 1
 343 -20 l 1
 326 -139 l 1
EndSplineSet
EndChar

StartChar: U
Encoding: 85 85 83
Width: 687
GlyphClass: 2
Flags: MW
HStem: -10 156<205.5 351.5 303.5 323> 666 20G<107 318 318 318 480 690 690 690>
VStem: 39 213<123.5 212.5> 39 651<123.5 686>
LayerCount: 2
Fore
SplineSet
690 686 m 1xd0
 625 218 l 2
 604 80 504 -10 323 -10 c 2
 280 -10 l 2
 131 -10 39 65 39 182 c 0
 39 194 40 206 42 218 c 2
 107 686 l 1
 318 686 l 1
 253 221 l 2
 252 218 252 215 252 210 c 0
 252 171 283 146 324 146 c 0xe0
 379 146 409 177 415 221 c 2
 480 686 l 1
 690 686 l 1xd0
EndSplineSet
Position2: "'cpsp' Capital Spacing lookup 0 subtable" dx=5 dy=0 dh=10 dv=0
EndChar

StartChar: Uacute
Encoding: 218 218 84
Width: 687
GlyphClass: 2
Flags: MW
HStem: -10 156<205.5 351.5 303.5 323> 666 20G<107 318 318 318 480 690 690 690> 750 145<457 463 345 608>
VStem: 39 213<123.5 212.5> 39 651<123.5 686>
LayerCount: 2
Fore
SplineSet
609 892 m 1xe8
 463 750 l 1
 345 750 l 1
 457 895 l 1
 608 895 l 1
 609 892 l 1xe8
690 686 m 1
 625 218 l 2
 604 80 504 -10 323 -10 c 2
 280 -10 l 2
 131 -10 39 65 39 182 c 0
 39 194 40 206 42 218 c 2
 107 686 l 1
 318 686 l 1
 253 221 l 2
 252 218 252 215 252 210 c 0
 252 171 283 146 324 146 c 0xf0
 379 146 409 177 415 221 c 2
 480 686 l 1
 690 686 l 1
EndSplineSet
Position2: "'cpsp' Capital Spacing lookup 0 subtable" dx=5 dy=0 dh=10 dv=0
EndChar

StartChar: Ucircumflex
Encoding: 219 219 85
Width: 687
GlyphClass: 2
Flags: MW
HStem: -10 156<205.5 351.5 303.5 323> 666 20G<107 318 318 318 480 690 690 690> 750 145<203 491 479 491 363 609 479 479>
VStem: 39 213<123.5 212.5> 39 651<123.5 686>
LayerCount: 2
Fore
SplineSet
609 750 m 1xe8
 479 750 l 1
 416 827 l 1
 331 750 l 1
 203 750 l 1
 363 895 l 1
 491 895 l 1
 609 750 l 1xe8
690 686 m 1
 625 218 l 2
 604 80 504 -10 323 -10 c 2
 280 -10 l 2
 131 -10 39 65 39 182 c 0
 39 194 40 206 42 218 c 2
 107 686 l 1
 318 686 l 1
 253 221 l 2
 252 218 252 215 252 210 c 0
 252 171 283 146 324 146 c 0xf0
 379 146 409 177 415 221 c 2
 480 686 l 1
 690 686 l 1
EndSplineSet
Position2: "'cpsp' Capital Spacing lookup 0 subtable" dx=5 dy=0 dh=10 dv=0
EndChar

StartChar: Udieresis
Encoding: 220 220 86
Width: 687
GlyphClass: 2
Flags: MW
HStem: -10 156<205.5 351.5 303.5 323> 666 20G<107 318 318 318 480 690 690 690> 750 147<239 370 218 391 239 438 459 590>
VStem: 39 213<123.5 212.5> 39 651<123.5 686>
LayerCount: 2
Fore
SplineSet
370 750 m 1xe8
 218 750 l 1
 239 897 l 1
 391 897 l 1
 370 750 l 1xe8
590 750 m 1
 438 750 l 1
 459 897 l 1
 611 897 l 1
 590 750 l 1
690 686 m 1
 625 218 l 2
 604 80 504 -10 323 -10 c 2
 280 -10 l 2
 131 -10 39 65 39 182 c 0
 39 194 40 206 42 218 c 2
 107 686 l 1
 318 686 l 1
 253 221 l 2
 252 218 252 215 252 210 c 0
 252 171 283 146 324 146 c 0xf0
 379 146 409 177 415 221 c 2
 480 686 l 1
 690 686 l 1
EndSplineSet
Position2: "'cpsp' Capital Spacing lookup 0 subtable" dx=5 dy=0 dh=10 dv=0
EndChar

StartChar: Ugrave
Encoding: 217 217 87
Width: 687
GlyphClass: 2
Flags: MW
HStem: -10 156<205.5 351.5 303.5 323> 666 20G<107 318 318 318 480 690 690 690> 750 145<345 393 242 463 345 345>
VStem: 39 213<123.5 212.5> 39 651<123.5 686>
LayerCount: 2
Fore
SplineSet
463 750 m 1xe8
 345 750 l 1
 239 892 l 1
 242 895 l 1
 393 895 l 1
 463 750 l 1xe8
690 686 m 1
 625 218 l 2
 604 80 504 -10 323 -10 c 2
 280 -10 l 2
 131 -10 39 65 39 182 c 0
 39 194 40 206 42 218 c 2
 107 686 l 1
 318 686 l 1
 253 221 l 2
 252 218 252 215 252 210 c 0
 252 171 283 146 324 146 c 0xf0
 379 146 409 177 415 221 c 2
 480 686 l 1
 690 686 l 1
EndSplineSet
Position2: "'cpsp' Capital Spacing lookup 0 subtable" dx=5 dy=0 dh=10 dv=0
EndChar

StartChar: Uhungarumlaut
Encoding: 368 368 88
Width: 687
GlyphClass: 2
Flags: MW
HStem: -10 156<205.5 351.5 303.5 323> 666 20G<107 318 318 318 480 690 690 690> 750 145<340 346 228 491 455 455 455 491 567 573>
VStem: 39 213<123.5 212.5> 39 680
LayerCount: 2
Fore
SplineSet
492 892 m 1xe8
 346 750 l 1
 228 750 l 1
 340 895 l 1
 491 895 l 1
 492 892 l 1xe8
719 892 m 1
 573 750 l 1
 455 750 l 1
 567 895 l 1
 718 895 l 1
 719 892 l 1
690 686 m 1
 625 218 l 2
 604 80 504 -10 323 -10 c 2
 280 -10 l 2
 131 -10 39 65 39 182 c 0
 39 194 40 206 42 218 c 2
 107 686 l 1
 318 686 l 1
 253 221 l 2
 252 218 252 215 252 210 c 0
 252 171 283 146 324 146 c 0xf0
 379 146 409 177 415 221 c 2
 480 686 l 1
 690 686 l 1
EndSplineSet
EndChar

StartChar: Umacron
Encoding: 362 362 89
Width: 687
GlyphClass: 2
Flags: MW
HStem: -10 156<205.5 351.5 303.5 323> 666 20G<107 318 318 318 480 690 690 690> 837 74<255 573 255 573>
VStem: 39 213<123.5 212.5> 255 318<837 911 837 911>
LayerCount: 2
Fore
SplineSet
573 837 m 1
 255 837 l 1
 255 911 l 1
 573 911 l 1
 573 837 l 1
690 686 m 1
 625 218 l 2
 604 80 504 -10 323 -10 c 2
 280 -10 l 2
 131 -10 39 65 39 182 c 0
 39 194 40 206 42 218 c 2
 107 686 l 1
 318 686 l 1
 253 221 l 2
 252 218 252 215 252 210 c 0
 252 171 283 146 324 146 c 0xf0
 379 146 409 177 415 221 c 2
 480 686 l 1
 690 686 l 1
EndSplineSet
EndChar

StartChar: Uogonek
Encoding: 370 370 90
Width: 687
GlyphClass: 2
Flags: MW
HStem: -143 53<358.5 423.5> -20 20G<420 428 428 428> -10 156<205.5 351.5 303.5 323 323 343> 666 20G<107 318 318 318 480 690 690 690>
VStem: 39 213<123.5 212.5> 293 79<-72.5 -66.5>
LayerCount: 2
Fore
SplineSet
690 686 m 1xdc
 625 218 l 2
 608 107 540 27 420 0 c 1
 428 0 l 1xdc
 405 -13 372 -31 372 -62 c 0
 372 -83 393 -90 412 -90 c 0
 435 -90 458 -84 481 -76 c 1
 488 -119 l 1
 453 -135 416 -143 380 -143 c 0
 337 -143 293 -128 293 -83 c 0
 293 -50 316 -27 343 -10 c 1
 323 -10 l 1
 280 -10 l 2
 131 -10 39 65 39 182 c 0
 39 194 40 206 42 218 c 2
 107 686 l 1
 318 686 l 1
 253 221 l 2
 252 218 252 215 252 210 c 0
 252 171 283 146 324 146 c 0
 379 146 409 177 415 221 c 2xbc
 480 686 l 1
 690 686 l 1xdc
EndSplineSet
EndChar

StartChar: Uring
Encoding: 366 366 91
Width: 687
GlyphClass: 2
Flags: MW
HStem: -10 156<205.5 351.5 303.5 323> 666 20G<107 318 318 318 480 690 690 690> 720 65<390.5 409.5 390.5 422> 855 66<397.5 418.5>
VStem: 39 213<123.5 212.5> 302 67<806.5 826.5 806.5 838> 440 66<810.5 833.5>
LayerCount: 2
Fore
SplineSet
419 921 m 0
 470 921 506 884 506 835 c 0
 506 771 454 720 390 720 c 0
 339 720 302 756 302 807 c 0
 302 869 356 921 419 921 c 0
409 855 m 0
 386 855 369 838 369 815 c 0
 369 798 381 785 400 785 c 0
 419 785 440 797 440 824 c 0
 440 843 428 855 409 855 c 0
690 686 m 1
 625 218 l 2
 604 80 504 -10 323 -10 c 2
 280 -10 l 2
 131 -10 39 65 39 182 c 0
 39 194 40 206 42 218 c 2
 107 686 l 1
 318 686 l 1
 253 221 l 2
 252 218 252 215 252 210 c 0
 252 171 283 146 324 146 c 0
 379 146 409 177 415 221 c 2
 480 686 l 1
 690 686 l 1
EndSplineSet
EndChar

StartChar: V
Encoding: 86 86 92
Width: 655
GlyphClass: 2
Flags: MW
HStem: 666 20G<51 269 269 269 512 714 714 714>
VStem: 51 663<686 686>
LayerCount: 2
Fore
SplineSet
409 0 m 1
 159 0 l 1
 51 686 l 1
 269 686 l 1
 329 260 l 1
 333 260 l 1
 512 686 l 1
 714 686 l 1
 409 0 l 1
EndSplineSet
Position2: "'cpsp' Capital Spacing lookup 0 subtable" dx=5 dy=0 dh=10 dv=0
EndChar

StartChar: W
Encoding: 87 87 93
Width: 1022
GlyphClass: 2
Flags: MW
HStem: 666 20G<53 270 270 270 469 684 684 684 881 1078 1078 1078>
VStem: 53 1025<686 686>
LayerCount: 2
Fore
SplineSet
795 0 m 1
 557 0 l 1
 521 329 l 1
 515 329 l 1
 385 0 l 1
 143 0 l 1
 53 686 l 1
 270 686 l 1
 313 305 l 1
 317 305 l 1
 469 686 l 1
 684 686 l 1
 726 305 l 1
 730 305 l 1
 881 686 l 1
 1078 686 l 1
 795 0 l 1
EndSplineSet
Position2: "'cpsp' Capital Spacing lookup 0 subtable" dx=5 dy=0 dh=10 dv=0
EndChar

StartChar: X
Encoding: 88 88 94
Width: 672
GlyphClass: 2
Flags: MW
HStem: 491 20G<375 379 379 379> 666 20G<62 305 305 305 499 724 724 724>
VStem: -56 780<0 686>
LayerCount: 2
Fore
SplineSet
484 362 m 1
 648 0 l 1
 404 0 l 1
 318 213 l 1
 314 213 l 1
 169 0 l 1
 -56 0 l 1
 209 363 l 1
 62 686 l 1
 305 686 l 1
 375 511 l 1
 379 511 l 1
 499 686 l 1
 724 686 l 1
 484 362 l 1
EndSplineSet
Position2: "'cpsp' Capital Spacing lookup 0 subtable" dx=5 dy=0 dh=10 dv=0
EndChar

StartChar: Y
Encoding: 89 89 95
Width: 644
GlyphClass: 2
Flags: MW
HStem: 666 20G<44 280 280 280 493 708 708 708>
VStem: 44 664<686 686>
LayerCount: 2
Fore
SplineSet
421 262 m 1
 384 0 l 1
 175 0 l 1
 212 262 l 1
 44 686 l 1
 280 686 l 1
 351 461 l 1
 356 461 l 1
 493 686 l 1
 708 686 l 1
 421 262 l 1
EndSplineSet
Position2: "'cpsp' Capital Spacing lookup 0 subtable" dx=5 dy=0 dh=10 dv=0
EndChar

StartChar: Yacute
Encoding: 221 221 96
Width: 644
GlyphClass: 2
Flags: MW
HStem: 666 20G<44 280 280 280 493 708 708 708> 750 145<447 453 335 598>
VStem: 44 664<686 686>
LayerCount: 2
Fore
SplineSet
599 892 m 1
 453 750 l 1
 335 750 l 1
 447 895 l 1
 598 895 l 1
 599 892 l 1
421 262 m 1
 384 0 l 1
 175 0 l 1
 212 262 l 1
 44 686 l 1
 280 686 l 1
 351 461 l 1
 356 461 l 1
 493 686 l 1
 708 686 l 1
 421 262 l 1
EndSplineSet
Position2: "'cpsp' Capital Spacing lookup 0 subtable" dx=5 dy=0 dh=10 dv=0
EndChar

StartChar: Ydieresis
Encoding: 376 376 97
Width: 644
GlyphClass: 2
Flags: MW
HStem: 666 20G<44 280 280 280 493 708 708 708> 750 147<220 351 199 372 220 419 440 571>
VStem: 44 664<686 686>
LayerCount: 2
Fore
SplineSet
351 750 m 1
 199 750 l 1
 220 897 l 1
 372 897 l 1
 351 750 l 1
571 750 m 1
 419 750 l 1
 440 897 l 1
 592 897 l 1
 571 750 l 1
421 262 m 1
 384 0 l 1
 175 0 l 1
 212 262 l 1
 44 686 l 1
 280 686 l 1
 351 461 l 1
 356 461 l 1
 493 686 l 1
 708 686 l 1
 421 262 l 1
EndSplineSet
Position2: "'cpsp' Capital Spacing lookup 0 subtable" dx=5 dy=0 dh=10 dv=0
EndChar

StartChar: Z
Encoding: 90 90 98
Width: 607
GlyphClass: 2
Flags: MW
HStem: 0 161<294 543> 526 160<93 315 70 632>
VStem: -27 659
LayerCount: 2
Fore
SplineSet
623 625 m 1
 294 161 l 1
 566 161 l 1
 543 0 l 1
 -27 0 l 1
 -18 61 l 1
 315 526 l 1
 70 526 l 1
 93 686 l 1
 632 686 l 1
 623 625 l 1
EndSplineSet
Position2: "'cpsp' Capital Spacing lookup 0 subtable" dx=5 dy=0 dh=10 dv=0
EndChar

StartChar: Zacute
Encoding: 377 377 99
Width: 607
GlyphClass: 2
Flags: MW
HStem: 0 161<294 543> 526 160<93 315 70 632> 750 145<374 380 262 525>
VStem: -27 659
LayerCount: 2
Fore
SplineSet
526 892 m 1
 380 750 l 1
 262 750 l 1
 374 895 l 1
 525 895 l 1
 526 892 l 1
623 625 m 1
 294 161 l 1
 566 161 l 1
 543 0 l 1
 -27 0 l 1
 -18 61 l 1
 315 526 l 1
 70 526 l 1
 93 686 l 1
 632 686 l 1
 623 625 l 1
EndSplineSet
EndChar

StartChar: Zcaron
Encoding: 381 381 100
Width: 607
GlyphClass: 2
Flags: MW
HStem: 0 161<294 543> 526 160<93 315 70 632> 750 145<308 320 190 436 308 308>
VStem: -27 659
LayerCount: 2
Fore
SplineSet
436 750 m 1
 308 750 l 1
 190 895 l 1
 320 895 l 1
 383 818 l 1
 468 895 l 1
 596 895 l 1
 436 750 l 1
623 625 m 1
 294 161 l 1
 566 161 l 1
 543 0 l 1
 -27 0 l 1
 -18 61 l 1
 315 526 l 1
 70 526 l 1
 93 686 l 1
 632 686 l 1
 623 625 l 1
EndSplineSet
Position2: "'cpsp' Capital Spacing lookup 0 subtable" dx=5 dy=0 dh=10 dv=0
EndChar

StartChar: Zdotaccent
Encoding: 379 379 101
Width: 607
GlyphClass: 2
Flags: MW
HStem: 0 161<294 543> 526 160<93 315 70 632> 779 132<342.5 363.5>
VStem: 287 134<834 855.5>
LayerCount: 2
Fore
SplineSet
363 911 m 0
 398 911 421 886 421 854 c 0
 421 814 384 779 343 779 c 0
 311 779 287 803 287 835 c 0
 287 876 322 911 363 911 c 0
623 625 m 1
 294 161 l 1
 566 161 l 1
 543 0 l 1
 -27 0 l 1
 -18 61 l 1
 315 526 l 1
 70 526 l 1
 93 686 l 1
 632 686 l 1
 623 625 l 1
EndSplineSet
EndChar

StartChar: a
Encoding: 97 97 102
Width: 628
GlyphClass: 2
Flags: MW
HStem: -10 121<126 287.5> 396 125<171.5 321.5> 491 20G<432 581 581 581>
VStem: 17 196<152.5 172 152.5 265>
LayerCount: 2
Fore
SplineSet
257 521 m 0xd0
 310 521 364 497 393 450 c 1
 398 450 l 1xd0
 432 511 l 1
 581 511 l 1xb0
 553 344 528 169 528 137 c 0
 528 122 535 110 554 110 c 0
 567 110 580 116 591 123 c 1
 576 13 l 1
 547 -2 505 -10 473 -10 c 0
 413 -10 353 0 337 68 c 1
 302 24 245 -10 188 -10 c 0
 64 -10 17 81 17 193 c 0
 17 337 86 521 257 521 c 0xd0
306 396 m 0
 269 396 239 365 234 326 c 0
 213 178 213 174 213 170 c 0
 213 135 235 111 266 111 c 0
 309 111 332 142 338 181 c 2
 348 253 l 2
 353 290 359 329 359 338 c 0
 359 377 337 396 306 396 c 0
EndSplineSet
Substitution2: "Single Substitution lookup 5 subtable" ordfeminine
Substitution2: "'aalt' Access All Alternates lookup 0 subtable" ordfeminine
EndChar

StartChar: aacute
Encoding: 225 225 103
Width: 628
GlyphClass: 2
Flags: MW
HStem: -10 121<126 287.5> 396 125<171.5 321.5> 491 20G<432 581 581 581> 575 145<376 382 264 527>
VStem: 17 196<152.5 172 152.5 265>
LayerCount: 2
Fore
SplineSet
528 717 m 1xb8
 382 575 l 1
 264 575 l 1
 376 720 l 1
 527 720 l 1
 528 717 l 1xb8
257 521 m 0xd8
 310 521 364 497 393 450 c 1
 398 450 l 1xd8
 432 511 l 1
 581 511 l 1xb8
 553 344 528 169 528 137 c 0
 528 122 535 110 554 110 c 0
 567 110 580 116 591 123 c 1
 576 13 l 1
 547 -2 505 -10 473 -10 c 0
 413 -10 353 0 337 68 c 1
 302 24 245 -10 188 -10 c 0
 64 -10 17 81 17 193 c 0
 17 337 86 521 257 521 c 0xd8
306 396 m 0
 269 396 239 365 234 326 c 0
 213 178 213 174 213 170 c 0
 213 135 235 111 266 111 c 0
 309 111 332 142 338 181 c 2
 348 253 l 2
 353 290 359 329 359 338 c 0
 359 377 337 396 306 396 c 0
EndSplineSet
EndChar

StartChar: abreve
Encoding: 259 259 104
Width: 628
GlyphClass: 2
Flags: MW
HStem: -10 121<126 287.5> 396 125<171.5 321.5> 491 20G<432 581 581 581> 613 86<346.5 400 346.5 426.5>
VStem: 17 196<152.5 172 152.5 265> 181 96<731.5 737 731.5 737> 471 95<731.5 737>
LayerCount: 2
Fore
SplineSet
471 737 m 1xba
 566 737 l 1
 566 681 480 613 373 613 c 0
 266 613 181 681 181 737 c 1
 277 737 l 1xd6
 277 726 320 699 373 699 c 0
 427 699 471 726 471 737 c 1xba
257 521 m 0
 310 521 364 497 393 450 c 1
 398 450 l 1xda
 432 511 l 1
 581 511 l 1xba
 553 344 528 169 528 137 c 0
 528 122 535 110 554 110 c 0
 567 110 580 116 591 123 c 1
 576 13 l 1
 547 -2 505 -10 473 -10 c 0
 413 -10 353 0 337 68 c 1
 302 24 245 -10 188 -10 c 0
 64 -10 17 81 17 193 c 0xda
 17 337 86 521 257 521 c 0
306 396 m 0
 269 396 239 365 234 326 c 0
 213 178 213 174 213 170 c 0
 213 135 235 111 266 111 c 0
 309 111 332 142 338 181 c 2xda
 348 253 l 2
 353 290 359 329 359 338 c 0
 359 377 337 396 306 396 c 0
EndSplineSet
EndChar

StartChar: acircumflex
Encoding: 226 226 105
Width: 628
GlyphClass: 2
Flags: MW
HStem: -10 121<126 287.5> 396 125<171.5 321.5> 491 20G<432 581 581 581> 575 145<148 436 424 436 308 554 424 424> 652 68<361 361>
VStem: 17 196<152.5 172 152.5 265>
LayerCount: 2
Fore
SplineSet
554 575 m 1xb4
 424 575 l 1xd4
 361 652 l 1xac
 276 575 l 1
 148 575 l 1
 308 720 l 1
 436 720 l 1
 554 575 l 1xb4
257 521 m 0
 310 521 364 497 393 450 c 1
 398 450 l 1xd4
 432 511 l 1
 581 511 l 1xb4
 553 344 528 169 528 137 c 0
 528 122 535 110 554 110 c 0
 567 110 580 116 591 123 c 1
 576 13 l 1
 547 -2 505 -10 473 -10 c 0
 413 -10 353 0 337 68 c 1
 302 24 245 -10 188 -10 c 0
 64 -10 17 81 17 193 c 0
 17 337 86 521 257 521 c 0
306 396 m 0
 269 396 239 365 234 326 c 0
 213 178 213 174 213 170 c 0
 213 135 235 111 266 111 c 0
 309 111 332 142 338 181 c 2
 348 253 l 2
 353 290 359 329 359 338 c 0
 359 377 337 396 306 396 c 0
EndSplineSet
EndChar

StartChar: adieresis
Encoding: 228 228 106
Width: 628
GlyphClass: 2
Flags: MW
HStem: -10 121<126 287.5> 396 125<171.5 321.5> 491 20G<432 581 581 581> 573 147<197 328 176 349 197 396 417 548>
VStem: 17 196<152.5 172 152.5 265>
LayerCount: 2
Fore
SplineSet
328 573 m 1xb8
 176 573 l 1
 197 720 l 1
 349 720 l 1
 328 573 l 1xb8
548 573 m 1
 396 573 l 1
 417 720 l 1
 569 720 l 1
 548 573 l 1
257 521 m 0xd8
 310 521 364 497 393 450 c 1
 398 450 l 1xd8
 432 511 l 1
 581 511 l 1xb8
 553 344 528 169 528 137 c 0
 528 122 535 110 554 110 c 0
 567 110 580 116 591 123 c 1
 576 13 l 1
 547 -2 505 -10 473 -10 c 0
 413 -10 353 0 337 68 c 1
 302 24 245 -10 188 -10 c 0
 64 -10 17 81 17 193 c 0
 17 337 86 521 257 521 c 0xd8
306 396 m 0
 269 396 239 365 234 326 c 0
 213 178 213 174 213 170 c 0
 213 135 235 111 266 111 c 0
 309 111 332 142 338 181 c 2
 348 253 l 2
 353 290 359 329 359 338 c 0
 359 377 337 396 306 396 c 0
EndSplineSet
EndChar

StartChar: agrave
Encoding: 224 224 107
Width: 628
GlyphClass: 2
Flags: MW
HStem: -10 121<126 287.5> 396 125<171.5 321.5> 491 20G<432 581 581 581> 575 145<291 339 188 409 291 291>
VStem: 17 196<152.5 172 152.5 265>
LayerCount: 2
Fore
SplineSet
409 575 m 1xb8
 291 575 l 1
 185 717 l 1
 188 720 l 1
 339 720 l 1
 409 575 l 1xb8
257 521 m 0xd8
 310 521 364 497 393 450 c 1
 398 450 l 1xd8
 432 511 l 1
 581 511 l 1xb8
 553 344 528 169 528 137 c 0
 528 122 535 110 554 110 c 0
 567 110 580 116 591 123 c 1
 576 13 l 1
 547 -2 505 -10 473 -10 c 0
 413 -10 353 0 337 68 c 1
 302 24 245 -10 188 -10 c 0
 64 -10 17 81 17 193 c 0
 17 337 86 521 257 521 c 0xd8
306 396 m 0
 269 396 239 365 234 326 c 0
 213 178 213 174 213 170 c 0
 213 135 235 111 266 111 c 0
 309 111 332 142 338 181 c 2
 348 253 l 2
 353 290 359 329 359 338 c 0
 359 377 337 396 306 396 c 0
EndSplineSet
EndChar

StartChar: amacron
Encoding: 257 257 108
Width: 628
GlyphClass: 2
Flags: MW
HStem: -10 121<126 287.5> 396 125<171.5 321.5> 491 20G<432 581 581 581> 662 74<205 523 205 523>
VStem: 17 196<152.5 172 152.5 265> 205 318<662 736 662 736>
LayerCount: 2
Fore
SplineSet
523 662 m 1xd4
 205 662 l 1
 205 736 l 1
 523 736 l 1
 523 662 l 1xd4
257 521 m 0
 310 521 364 497 393 450 c 1
 398 450 l 1xd8
 432 511 l 1
 581 511 l 1xb8
 553 344 528 169 528 137 c 0
 528 122 535 110 554 110 c 0
 567 110 580 116 591 123 c 1
 576 13 l 1
 547 -2 505 -10 473 -10 c 0
 413 -10 353 0 337 68 c 1
 302 24 245 -10 188 -10 c 0
 64 -10 17 81 17 193 c 0xd8
 17 337 86 521 257 521 c 0
306 396 m 0
 269 396 239 365 234 326 c 0
 213 178 213 174 213 170 c 0
 213 135 235 111 266 111 c 0xd8
 309 111 332 142 338 181 c 2xb4
 348 253 l 2
 353 290 359 329 359 338 c 0
 359 377 337 396 306 396 c 0
EndSplineSet
EndChar

StartChar: aogonek
Encoding: 261 261 109
Width: 628
GlyphClass: 2
Flags: MW
HStem: -143 53<495.5 560.5> -20 20G<542 565 565 565> -10 121<126 287.5> 396 125<171.5 321.5> 491 20G<432 581 581 581>
VStem: 17 196<152.5 172 152.5 265> 430 79<-72.5 -66.5>
LayerCount: 2
Fore
SplineSet
618 -76 m 1xce
 625 -119 l 1
 590 -135 553 -143 517 -143 c 0
 474 -143 430 -128 430 -83 c 0
 430 -50 453 -28 479 -10 c 1
 473 -10 l 2
 413 -10 353 0 337 68 c 1
 302 24 245 -10 188 -10 c 0
 64 -10 17 81 17 193 c 0
 17 337 86 521 257 521 c 0
 310 521 364 497 393 450 c 1
 398 450 l 1xb6
 432 511 l 1
 581 511 l 1
 553 344 528 169 528 137 c 0
 528 122 535 110 554 110 c 0
 567 110 580 116 591 123 c 1
 576 13 l 1
 566 8 554 3 542 0 c 2
 565 0 l 1
 542 -13 509 -31 509 -62 c 0
 509 -83 530 -90 549 -90 c 0
 572 -90 595 -84 618 -76 c 1xce
338 181 m 2
 348 253 l 2
 353 290 359 329 359 338 c 0
 359 377 337 396 306 396 c 0
 269 396 239 365 234 326 c 0
 213 178 213 174 213 170 c 0
 213 135 235 111 266 111 c 0
 309 111 332 142 338 181 c 2
EndSplineSet
EndChar

StartChar: aring
Encoding: 229 229 110
Width: 628
GlyphClass: 2
Flags: MW
HStem: -10 121<126 287.5> 396 125<171.5 321.5> 491 20G<432 581 581 581> 559 65<356.5 375.5 356.5 388> 694 66<363.5 384.5>
VStem: 17 196<152.5 172 152.5 265> 268 67<645.5 665.5 645.5 677> 406 66<649.5 672.5>
LayerCount: 2
Fore
SplineSet
385 760 m 0xbf
 436 760 472 723 472 674 c 0
 472 610 420 559 356 559 c 0
 305 559 268 595 268 646 c 0
 268 708 322 760 385 760 c 0xbf
375 694 m 0
 352 694 335 677 335 654 c 0
 335 637 347 624 366 624 c 0
 385 624 406 636 406 663 c 0
 406 682 394 694 375 694 c 0
257 521 m 0xdf
 310 521 364 497 393 450 c 1
 398 450 l 1xdf
 432 511 l 1
 581 511 l 1xbf
 553 344 528 169 528 137 c 0
 528 122 535 110 554 110 c 0
 567 110 580 116 591 123 c 1
 576 13 l 1
 547 -2 505 -10 473 -10 c 0
 413 -10 353 0 337 68 c 1
 302 24 245 -10 188 -10 c 0
 64 -10 17 81 17 193 c 0
 17 337 86 521 257 521 c 0xdf
306 396 m 0
 269 396 239 365 234 326 c 0
 213 178 213 174 213 170 c 0
 213 135 235 111 266 111 c 0
 309 111 332 142 338 181 c 2
 348 253 l 2
 353 290 359 329 359 338 c 0
 359 377 337 396 306 396 c 0
EndSplineSet
EndChar

StartChar: atilde
Encoding: 227 227 111
Width: 628
GlyphClass: 2
Flags: MW
HStem: -10 121<126 287.5> 396 125<171.5 321.5> 491 20G<432 581 581 581> 577 103<422 461.5 422 468.5> 577 143<122 314 122 314 239.5 468.5> 617 103<245.5 284.5>
VStem: 17 196<152.5 172 152.5 265>
LayerCount: 2
Fore
SplineSet
505 720 m 1xa6
 586 720 l 1xc6
 575 648 512 577 425 577 c 0xb2
 361 577 311 617 258 617 c 0xa6
 233 617 213 600 202 577 c 1
 122 577 l 1xaa
 133 649 197 720 282 720 c 0xa6
 346 720 395 680 449 680 c 0xb2
 474 680 494 697 505 720 c 1xa6
257 521 m 0
 310 521 364 497 393 450 c 1
 398 450 l 1xc6
 432 511 l 1
 581 511 l 1xa6
 553 344 528 169 528 137 c 0
 528 122 535 110 554 110 c 0
 567 110 580 116 591 123 c 1
 576 13 l 1
 547 -2 505 -10 473 -10 c 0
 413 -10 353 0 337 68 c 1
 302 24 245 -10 188 -10 c 0
 64 -10 17 81 17 193 c 0
 17 337 86 521 257 521 c 0
306 396 m 0
 269 396 239 365 234 326 c 0
 213 178 213 174 213 170 c 0
 213 135 235 111 266 111 c 0
 309 111 332 142 338 181 c 2
 348 253 l 2
 353 290 359 329 359 338 c 0
 359 377 337 396 306 396 c 0
EndSplineSet
EndChar

StartChar: ae
Encoding: 230 230 112
Width: 924
GlyphClass: 2
Flags: MW
HStem: -10 121<137 282.5 594.5 603> 229 87<566 704> 354 167<48 344> 400 121<656 664.5> 405 116<311 326>
VStem: 1 210<133.5 170.5 133.5 197.5> 706 192<336 356.5>
LayerCount: 2
Fore
SplineSet
656 521 m 2xe6
 681 521 l 2xe6
 824 521 898 443 898 330 c 1
 896 303 l 2
 895 288 892 266 887 229 c 1
 554 229 l 1
 547 181 l 2
 546 178 546 175 546 170 c 0
 546 131 575 111 614 111 c 0
 662 111 691 143 698 192 c 1
 881 192 l 1
 865 79 760 -10 603 -10 c 2
 588 -10 l 2
 507 -10 439 14 395 58 c 1
 344 18 263 -10 175 -10 c 0
 99 -10 1 5 1 114 c 0
 1 281 146 316 362 316 c 1
 364 333 l 2
 365 342 367 351 367 356 c 0
 367 388 342 405 310 405 c 0xce
 281 405 242 386 239 358 c 2
 238 354 l 1
 48 354 l 1
 48 445 156 521 311 521 c 2
 344 521 l 2
 413 521 464 508 500 487 c 1
 547 510 599 521 656 521 c 2xe6
647 400 m 0xd6
 605 400 573 369 568 330 c 2
 566 316 l 1
 704 316 l 1
 704 325 706 333 706 339 c 0
 706 374 682 400 647 400 c 0xd6
343 181 m 2
 349 225 l 1
 249 225 211 192 211 149 c 0
 211 118 238 111 265 111 c 0
 300 111 337 138 343 181 c 2
EndSplineSet
EndChar

StartChar: b
Encoding: 98 98 113
Width: 599
GlyphClass: 2
Flags: MW
HStem: -10 121<276 304.5 267.5 403.5> 396 125<304.5 457.5> 501 20G<376 457.5> 700 20G<109 307 307 307>
VStem: 376 196<333.5 357.5>
LayerCount: 2
Fore
SplineSet
307 720 m 1xb8
 270 458 l 1
 294 482 341 521 411 521 c 0
 504 521 572 457 572 326 c 0
 572 162 495 -10 312 -10 c 0
 240 -10 187 20 156 75 c 1
 78 0 l 1
 9 0 l 1
 109 720 l 1
 307 720 l 1xb8
323 396 m 0xd8
 286 396 256 365 251 326 c 0
 230 178 230 174 230 170 c 0
 230 135 252 111 283 111 c 0
 326 111 349 142 355 181 c 2
 365 253 l 2
 370 290 376 329 376 338 c 0
 376 377 354 396 323 396 c 0xd8
EndSplineSet
EndChar

StartChar: c
Encoding: 99 99 114
Width: 568
GlyphClass: 2
Flags: MW
HStem: -10 121<266.5 315.5 266.5 336.5> 400 121<298.5 339.5>
VStem: 16 205<153.5 179 153.5 286> 381 168<336 356.5>
AnchorPoint: "Bottom" 284 0 basechar 0
LayerCount: 2
Fore
SplineSet
326 521 m 0
 513 521 549 411 549 340 c 0
 549 328 548 316 546 304 c 1
 378 304 l 1
 378 318 381 333 381 339 c 0
 381 374 357 400 322 400 c 0
 275 400 248 369 243 330 c 0
 230 260 221 187 221 171 c 0
 221 136 245 111 288 111 c 0
 343 111 366 150 371 181 c 2
 375 207 l 1
 533 207 l 1
 512 68 409 -10 264 -10 c 0
 94 -10 16 89 16 198 c 0
 16 374 123 521 326 521 c 0
EndSplineSet
EndChar

StartChar: cacute
Encoding: 263 263 115
Width: 568
GlyphClass: 2
Flags: MW
HStem: -10 121<266.5 315.5 266.5 336.5> 400 121<298.5 339.5> 575 145<364 370 252 515>
VStem: 16 205<153.5 179 153.5 286> 381 168<336 356.5>
AnchorPoint: "Bottom" 284 0 basechar 0
LayerCount: 2
Fore
SplineSet
516 717 m 1
 370 575 l 1
 252 575 l 1
 364 720 l 1
 515 720 l 1
 516 717 l 1
326 521 m 0
 513 521 549 411 549 340 c 0
 549 328 548 316 546 304 c 1
 378 304 l 1
 378 318 381 333 381 339 c 0
 381 374 357 400 322 400 c 0
 275 400 248 369 243 330 c 0
 230 260 221 187 221 171 c 0
 221 136 245 111 288 111 c 0
 343 111 366 150 371 181 c 2
 375 207 l 1
 533 207 l 1
 512 68 409 -10 264 -10 c 0
 94 -10 16 89 16 198 c 0
 16 374 123 521 326 521 c 0
EndSplineSet
EndChar

StartChar: ccaron
Encoding: 269 269 116
Width: 568
GlyphClass: 2
Flags: MW
HStem: -10 121<266.5 315.5 266.5 336.5> 400 121<298.5 339.5> 575 145<279 291 161 407 279 279>
VStem: 16 205<153.5 179 153.5 286> 381 168<336 356.5>
AnchorPoint: "Bottom" 284 0 basechar 0
LayerCount: 2
Fore
SplineSet
407 575 m 1
 279 575 l 1
 161 720 l 1
 291 720 l 1
 354 643 l 1
 439 720 l 1
 567 720 l 1
 407 575 l 1
326 521 m 0
 513 521 549 411 549 340 c 0
 549 328 548 316 546 304 c 1
 378 304 l 1
 378 318 381 333 381 339 c 0
 381 374 357 400 322 400 c 0
 275 400 248 369 243 330 c 0
 230 260 221 187 221 171 c 0
 221 136 245 111 288 111 c 0
 343 111 366 150 371 181 c 2
 375 207 l 1
 533 207 l 1
 512 68 409 -10 264 -10 c 0
 94 -10 16 89 16 198 c 0
 16 374 123 521 326 521 c 0
EndSplineSet
EndChar

StartChar: ccedilla
Encoding: 231 231 117
Width: 568
GlyphClass: 2
Flags: MW
HStem: -197 58<205 240.5 205 249> -76 59<228 238 220 249> -10 121<266.5 315.5 266.5 336.5> 400 121<298.5 339.5>
VStem: 16 205<153.5 179 153.5 286> 272 87<-114.5 -100 -100 -92.5> 381 168<336 356.5>
LayerCount: 2
Fore
SplineSet
326 521 m 0
 513 521 549 411 549 340 c 0
 549 328 548 316 546 304 c 1
 378 304 l 1
 378 318 381 333 381 339 c 0
 381 374 357 400 322 400 c 0
 275 400 248 369 243 330 c 0
 230 260 221 187 221 171 c 0
 221 136 245 111 288 111 c 0
 343 111 366 150 371 181 c 2
 375 207 l 1
 533 207 l 1
 512 68 409 -10 264 -10 c 0
 94 -10 16 89 16 198 c 0
 16 374 123 521 326 521 c 0
228 -17 m 1xdc
 249 -17 l 2
 303 -17 359 -32 359 -92 c 2
 359 -100 l 2
 359 -180 270 -197 228 -197 c 0
 181 -197 134 -185 107 -161 c 1
 147 -107 l 1
 157 -120 183 -139 227 -139 c 0
 254 -139 272 -129 272 -100 c 0
 272 -85 263 -76 238 -76 c 2
 220 -76 l 1
 228 -17 l 1xdc
EndSplineSet
EndChar

StartChar: d
Encoding: 100 100 118
Width: 639
GlyphClass: 2
Flags: MW
HStem: -10 121<143 286.5> 396 125<286.5 288.5 195 320.5> 700 20G<413 611 611 611>
VStem: 18 194<152.5 172 152.5 303>
LayerCount: 2
Fore
SplineSet
611 720 m 1
 571 442 l 2
 551 302 530 158 531 146 c 0
 531 127 533 110 556 110 c 0
 569 110 582 116 593 123 c 1
 578 13 l 1
 549 -2 507 -10 475 -10 c 0
 418 -10 360 -1 342 59 c 1
 310 24 271 -10 197 -10 c 0
 89 -10 18 56 18 193 c 0
 18 413 137 521 253 521 c 0
 324 521 360 493 376 458 c 1
 413 720 l 1
 611 720 l 1
305 396 m 0
 268 396 238 365 233 326 c 0
 212 178 212 174 212 170 c 0
 212 135 234 111 265 111 c 0
 308 111 331 142 337 181 c 2
 347 253 l 2
 352 290 358 329 358 338 c 0
 358 377 336 396 305 396 c 0
EndSplineSet
EndChar

StartChar: eth
Encoding: 240 240 119
Width: 613
GlyphClass: 2
Flags: MW
HStem: -10 121<177 298 262.5 279> 490 20G 665 20G<148 148> 675 20G<358 358> 708 20G<434 434>
VStem: 15 205<152.5 172.5 152.5 213> 380 206<330 339 339 356.5>
LayerCount: 2
Fore
SplineSet
150 689 m 1xee
 270 739 l 1xee
 301 728 330 714 358 695 c 1
 434 728 l 1
 481 677 l 1
 418 649 l 1xde
 517 561 586 437 586 311 c 0
 586 296 585 281 583 266 c 2
 580 245 l 2
 559 93 430 -10 279 -10 c 2
 247 -10 l 2
 107 -10 15 76 15 207 c 0
 15 219 16 232 18 245 c 2
 21 266 l 2
 40 404 159 494 292 510 c 1
 291 525 282 552 265 580 c 1
 194 549 l 1
 143 600 l 1
 223 635 l 1
 202 656 177 674 148 685 c 1
 150 689 l 1xee
320 400 m 0
 279 400 247 369 242 330 c 2
 221 181 l 2
 220 178 220 175 220 170 c 0
 220 135 245 111 280 111 c 0
 316 111 352 142 359 181 c 2
 380 330 l 1
 380 339 l 2
 380 374 355 400 320 400 c 0
EndSplineSet
EndChar

StartChar: dcaron
Encoding: 271 271 120
Width: 639
GlyphClass: 2
Flags: MW
HStem: -10 121<143 286.5> 396 125<286.5 288.5 195 320.5> 503 183<653 711 627 844> 503 217<413 711 413 627>
VStem: 18 194<152.5 172 152.5 303>
LayerCount: 2
Fore
SplineSet
611 720 m 1x98
 571 442 l 2
 551 302 530 158 531 146 c 0
 531 127 533 110 556 110 c 0
 569 110 582 116 593 123 c 1
 578 13 l 1
 549 -2 507 -10 475 -10 c 0
 418 -10 360 -1 342 59 c 1
 310 24 271 -10 197 -10 c 0
 89 -10 18 56 18 193 c 0
 18 413 137 521 253 521 c 0
 324 521 360 493 376 458 c 1xc8
 413 720 l 1
 611 720 l 1x98
821 525 m 1
 745 338 l 1
 651 338 l 1
 711 503 l 1
 627 503 l 1
 653 686 l 1
 844 686 l 1xa8
 821 525 l 1
305 396 m 0xc8
 268 396 238 365 233 326 c 0
 212 178 212 174 212 170 c 0
 212 135 234 111 265 111 c 0
 308 111 331 142 337 181 c 2
 347 253 l 2
 352 290 358 329 358 338 c 0
 358 377 336 396 305 396 c 0xc8
EndSplineSet
EndChar

StartChar: dcroat
Encoding: 273 273 121
Width: 639
GlyphClass: 2
Flags: MW
HStem: -10 121<143 286.5> 396 125<286.5 288.5 195 320.5> 592 74<297 395 285 405 603 667> 592 128<285 611 593 611 413 667 593 593>
VStem: 18 194<152.5 172 152.5 303>
LayerCount: 2
Fore
SplineSet
593 592 m 1xd8
 571 442 l 2
 551 302 530 158 531 146 c 0
 531 127 533 110 556 110 c 0
 569 110 582 116 593 123 c 1
 578 13 l 1
 549 -2 507 -10 475 -10 c 0
 418 -10 360 -1 342 59 c 1
 310 24 271 -10 197 -10 c 0
 89 -10 18 56 18 193 c 0
 18 413 137 521 253 521 c 0
 324 521 360 493 376 458 c 1
 395 592 l 1
 285 592 l 1xd8
 297 666 l 1
 405 666 l 1xe8
 413 720 l 1
 611 720 l 1xd8
 603 666 l 1
 679 666 l 1xe8
 667 592 l 1
 593 592 l 1xd8
337 181 m 2
 347 253 l 2
 352 290 358 329 358 338 c 0
 358 377 336 396 305 396 c 0
 268 396 238 365 233 326 c 0
 212 178 212 174 212 170 c 0
 212 135 234 111 265 111 c 0
 308 111 331 142 337 181 c 2
EndSplineSet
EndChar

StartChar: e
Encoding: 101 101 122
Width: 600
GlyphClass: 2
Flags: MW
HStem: -10 121<192 314 270.5 279> 229 87<242 380 242 563 230 380> 400 121<332 340.5>
VStem: 16 206<150.5 170 150.5 300.5> 382 192<333 356.5>
AnchorPoint: "Bottom" 300 0 basechar 0
LayerCount: 2
Fore
SplineSet
332 521 m 2
 357 521 l 2
 500 521 574 443 574 330 c 1
 572 303 l 2
 571 288 568 266 563 229 c 1
 230 229 l 1
 226 204 l 2
 224 191 221 175 222 170 c 0
 222 131 251 111 290 111 c 0
 338 111 367 143 374 192 c 1
 557 192 l 1
 541 79 436 -10 279 -10 c 2
 264 -10 l 2
 120 -10 16 67 16 200 c 0
 16 401 148 521 332 521 c 2
323 400 m 0
 283 400 249 369 244 330 c 2
 242 316 l 1
 380 316 l 1
 380 320 382 327 382 339 c 0
 382 374 358 400 323 400 c 0
EndSplineSet
EndChar

StartChar: eacute
Encoding: 233 233 123
Width: 600
GlyphClass: 2
Flags: MW
HStem: -10 121<192 314 270.5 279> 229 87<242 380 242 563 230 380> 400 121<332 340.5> 575 145<397 403 285 548>
VStem: 16 206<150.5 170 150.5 300.5> 382 192<333 356.5>
LayerCount: 2
Fore
SplineSet
549 717 m 1
 403 575 l 1
 285 575 l 1
 397 720 l 1
 548 720 l 1
 549 717 l 1
332 521 m 2
 357 521 l 2
 500 521 574 443 574 330 c 1
 572 303 l 2
 571 288 568 266 563 229 c 1
 230 229 l 1
 226 204 l 2
 224 191 221 175 222 170 c 0
 222 131 251 111 290 111 c 0
 338 111 367 143 374 192 c 1
 557 192 l 1
 541 79 436 -10 279 -10 c 2
 264 -10 l 2
 120 -10 16 67 16 200 c 0
 16 401 148 521 332 521 c 2
323 400 m 0
 283 400 249 369 244 330 c 2
 242 316 l 1
 380 316 l 1
 380 320 382 327 382 339 c 0
 382 374 358 400 323 400 c 0
EndSplineSet
EndChar

StartChar: ecaron
Encoding: 283 283 124
Width: 600
GlyphClass: 2
Flags: MW
HStem: -10 121<192 314 270.5 279> 229 87<242 380 242 563 230 380> 400 121<332 340.5> 575 145<295 307 177 423 295 295>
VStem: 16 206<150.5 170 150.5 300.5> 382 192<333 356.5>
AnchorPoint: "Bottom" 300 0 basechar 0
LayerCount: 2
Fore
SplineSet
423 575 m 1
 295 575 l 1
 177 720 l 1
 307 720 l 1
 370 643 l 1
 455 720 l 1
 583 720 l 1
 423 575 l 1
332 521 m 2
 357 521 l 2
 500 521 574 443 574 330 c 1
 572 303 l 2
 571 288 568 266 563 229 c 1
 230 229 l 1
 226 204 l 2
 224 191 221 175 222 170 c 0
 222 131 251 111 290 111 c 0
 338 111 367 143 374 192 c 1
 557 192 l 1
 541 79 436 -10 279 -10 c 2
 264 -10 l 2
 120 -10 16 67 16 200 c 0
 16 401 148 521 332 521 c 2
323 400 m 0
 283 400 249 369 244 330 c 2
 242 316 l 1
 380 316 l 1
 380 320 382 327 382 339 c 0
 382 374 358 400 323 400 c 0
EndSplineSet
EndChar

StartChar: ecircumflex
Encoding: 234 234 125
Width: 600
GlyphClass: 2
Flags: MW
HStem: -10 121<192 314 270.5 279> 229 87<242 380 242 563 230 380> 400 121<332 340.5> 575 145<158 446 434 446 318 564 434 434> 652 68<371 371>
VStem: 16 206<150.5 170 150.5 300.5> 382 192<333 356.5>
LayerCount: 2
Fore
SplineSet
564 575 m 1xf6
 434 575 l 1xf6
 371 652 l 1xee
 286 575 l 1
 158 575 l 1
 318 720 l 1
 446 720 l 1
 564 575 l 1xf6
332 521 m 2
 357 521 l 2
 500 521 574 443 574 330 c 1
 572 303 l 2
 571 288 568 266 563 229 c 1
 230 229 l 1
 226 204 l 2
 224 191 221 175 222 170 c 0
 222 131 251 111 290 111 c 0
 338 111 367 143 374 192 c 1
 557 192 l 1
 541 79 436 -10 279 -10 c 2
 264 -10 l 2
 120 -10 16 67 16 200 c 0
 16 401 148 521 332 521 c 2
323 400 m 0
 283 400 249 369 244 330 c 2
 242 316 l 1
 380 316 l 1
 380 320 382 327 382 339 c 0
 382 374 358 400 323 400 c 0
EndSplineSet
EndChar

StartChar: edieresis
Encoding: 235 235 126
Width: 600
GlyphClass: 2
Flags: MW
HStem: -10 121<192 314 270.5 279> 229 87<242 380 242 563 230 380> 400 121<332 340.5> 573 147<185 316 164 337 185 384 405 536>
VStem: 16 206<150.5 170 150.5 300.5> 382 192<333 356.5>
LayerCount: 2
Fore
SplineSet
316 573 m 1
 164 573 l 1
 185 720 l 1
 337 720 l 1
 316 573 l 1
536 573 m 1
 384 573 l 1
 405 720 l 1
 557 720 l 1
 536 573 l 1
332 521 m 2
 357 521 l 2
 500 521 574 443 574 330 c 1
 572 303 l 2
 571 288 568 266 563 229 c 1
 230 229 l 1
 226 204 l 2
 224 191 221 175 222 170 c 0
 222 131 251 111 290 111 c 0
 338 111 367 143 374 192 c 1
 557 192 l 1
 541 79 436 -10 279 -10 c 2
 264 -10 l 2
 120 -10 16 67 16 200 c 0
 16 401 148 521 332 521 c 2
323 400 m 0
 283 400 249 369 244 330 c 2
 242 316 l 1
 380 316 l 1
 380 320 382 327 382 339 c 0
 382 374 358 400 323 400 c 0
EndSplineSet
EndChar

StartChar: edotaccent
Encoding: 279 279 127
Width: 600
GlyphClass: 2
Flags: MW
HStem: -10 121<192 314 270.5 279> 229 87<242 380 242 563 230 380> 400 121<332 340.5> 604 132<348.5 369.5>
VStem: 16 206<150.5 170 150.5 300.5> 293 134<659 680.5> 382 192<333 356.5>
AnchorPoint: "Bottom" 300 0 basechar 0
LayerCount: 2
Fore
SplineSet
369 736 m 0xfc
 404 736 427 711 427 679 c 0
 427 639 390 604 349 604 c 0
 317 604 293 628 293 660 c 0
 293 701 328 736 369 736 c 0xfc
332 521 m 2
 357 521 l 2
 500 521 574 443 574 330 c 1
 572 303 l 2
 571 288 568 266 563 229 c 1xea
 230 229 l 1
 226 204 l 2
 224 191 221 175 222 170 c 0
 222 131 251 111 290 111 c 0
 338 111 367 143 374 192 c 1
 557 192 l 1
 541 79 436 -10 279 -10 c 2
 264 -10 l 2
 120 -10 16 67 16 200 c 0
 16 401 148 521 332 521 c 2
323 400 m 0
 283 400 249 369 244 330 c 2
 242 316 l 1
 380 316 l 1
 380 320 382 327 382 339 c 0
 382 374 358 400 323 400 c 0
EndSplineSet
EndChar

StartChar: egrave
Encoding: 232 232 128
Width: 600
GlyphClass: 2
Flags: MW
HStem: -10 121<192 314 270.5 279> 229 87<242 380 242 563 230 380> 400 121<332 340.5> 575 145<289 337 186 407 289 289>
VStem: 16 206<150.5 170 150.5 300.5> 382 192<333 356.5>
LayerCount: 2
Fore
SplineSet
407 575 m 1
 289 575 l 1
 183 717 l 1
 186 720 l 1
 337 720 l 1
 407 575 l 1
332 521 m 2
 357 521 l 2
 500 521 574 443 574 330 c 1
 572 303 l 2
 571 288 568 266 563 229 c 1
 230 229 l 1
 226 204 l 2
 224 191 221 175 222 170 c 0
 222 131 251 111 290 111 c 0
 338 111 367 143 374 192 c 1
 557 192 l 1
 541 79 436 -10 279 -10 c 2
 264 -10 l 2
 120 -10 16 67 16 200 c 0
 16 401 148 521 332 521 c 2
323 400 m 0
 283 400 249 369 244 330 c 2
 242 316 l 1
 380 316 l 1
 380 320 382 327 382 339 c 0
 382 374 358 400 323 400 c 0
EndSplineSet
EndChar

StartChar: emacron
Encoding: 275 275 129
Width: 600
GlyphClass: 2
Flags: MW
HStem: -10 121<192 314 270.5 279> 229 87<242 380 242 563 230 380> 400 121<332 340.5> 662 74<191 509 191 509>
VStem: 16 206<150.5 170 150.5 300.5> 191 318<662 736 662 736> 382 192<333 356.5>
AnchorPoint: "Bottom" 300 0 basechar 0
LayerCount: 2
Fore
SplineSet
509 662 m 1xf4
 191 662 l 1
 191 736 l 1
 509 736 l 1
 509 662 l 1xf4
332 521 m 2
 357 521 l 2
 500 521 574 443 574 330 c 1
 572 303 l 2
 571 288 568 266 563 229 c 1
 230 229 l 1
 226 204 l 2
 224 191 221 175 222 170 c 0
 222 131 251 111 290 111 c 0
 338 111 367 143 374 192 c 1
 557 192 l 1
 541 79 436 -10 279 -10 c 2
 264 -10 l 2
 120 -10 16 67 16 200 c 0xfa
 16 401 148 521 332 521 c 2
323 400 m 0
 283 400 249 369 244 330 c 2
 242 316 l 1
 380 316 l 1
 380 320 382 327 382 339 c 0
 382 374 358 400 323 400 c 0
EndSplineSet
EndChar

StartChar: eogonek
Encoding: 281 281 130
Width: 600
GlyphClass: 2
Flags: MW
HStem: -143 53<290.5 355.5> -10 121<192 314 270.5 274> 229 87<242 380 242 563 230 380> 400 121<332 340.5>
VStem: 16 206<150.5 170 150.5 300.5> 225 79<-72.5 -66.5> 382 192<333 356.5>
AnchorPoint: "Bottom" 300 0 basechar 0
LayerCount: 2
Fore
SplineSet
332 521 m 2
 357 521 l 2
 500 521 574 443 574 330 c 1
 572 303 l 2
 571 288 568 266 563 229 c 1
 230 229 l 1
 226 204 l 2
 224 191 221 175 222 170 c 0
 222 131 251 111 290 111 c 0xfa
 338 111 367 143 374 192 c 1
 557 192 l 1
 544 99 470 22 356 -2 c 1
 333 -15 304 -33 304 -62 c 0
 304 -83 325 -90 344 -90 c 0
 367 -90 390 -84 413 -76 c 1
 420 -119 l 1
 385 -135 348 -143 312 -143 c 0
 269 -143 225 -128 225 -83 c 0xf6
 225 -50 248 -28 274 -10 c 1
 264 -10 l 2
 120 -10 16 67 16 200 c 0
 16 401 148 521 332 521 c 2
242 316 m 1
 380 316 l 1
 380 320 382 327 382 339 c 0
 382 374 358 400 323 400 c 0
 283 400 249 369 244 330 c 2
 242 316 l 1
EndSplineSet
EndChar

StartChar: f
Encoding: 102 102 131
Width: 418
GlyphClass: 2
Flags: MW
HStem: -187 122<-26.5 90> 369 142<56 100 36 120 318 418> 606 122<281.5 397.5> 708 20G<281.5 351>
VStem: -94 558
LayerCount: 2
Fore
SplineSet
334 728 m 0xe8
 368 728 433 722 464 706 c 1xd8
 449 596 l 1
 432 601 407 606 388 606 c 0
 325 606 326 559 318 511 c 1
 438 511 l 1
 418 369 l 1
 298 369 l 1
 243 -26 l 2
 228 -136 143 -187 37 -187 c 0
 1 -187 -62 -181 -94 -165 c 1
 -78 -53 l 1
 -62 -60 -35 -65 -18 -65 c 0
 26 -65 42 -36 49 4 c 2
 100 369 l 1
 36 369 l 1
 56 511 l 1
 120 511 l 1
 129 577 l 2
 144 689 229 728 334 728 c 0xe8
EndSplineSet
EndChar

StartChar: g
Encoding: 103 103 132
Width: 600
GlyphClass: 2
Flags: MW
HStem: -186 167<183 196 -3 313> 19 125<121.5 288.5> 400 121<285 307.5 183.5 318.5> 491 20G<509 579 579 579>
VStem: -3 199<-27.5 -19 -27.5 -19> 18 196<185.5 205 185.5 285.5>
LayerCount: 2
Fore
SplineSet
275 521 m 0xe4
 340 521 398 495 430 436 c 1xa4
 509 511 l 1
 579 511 l 1
 513 40 l 2
 491 -116 381 -186 245 -186 c 0
 121 -186 -3 -147 -3 -19 c 1
 196 -19 l 1
 196 -36 211 -63 252 -63 c 0x98
 298 -63 307 -21 312 7 c 2
 321 82 l 1
 284 43 234 19 179 19 c 0
 64 19 18 112 18 216 c 0
 18 355 92 521 275 521 c 0xe4
303 400 m 0
 267 400 237 371 231 330 c 2
 222 270 l 2
 217 239 214 207 214 203 c 0
 214 168 236 144 267 144 c 0
 310 144 334 175 339 214 c 0
 347 270 356 325 356 342 c 0
 356 381 334 400 303 400 c 0
EndSplineSet
EndChar

StartChar: gbreve
Encoding: 287 287 133
Width: 600
GlyphClass: 2
Flags: MW
HStem: -186 167<183 196 -3 313> 19 125<121.5 288.5> 400 121<285 307.5 183.5 318.5> 491 20G<509 579 579 579> 613 86<322.5 376 322.5 402.5>
VStem: -3 199<-27.5 -19 -27.5 -19> 18 196<185.5 205 185.5 285.5> 157 96<731.5 737 731.5 737> 447 95<731.5 737>
LayerCount: 2
Fore
SplineSet
447 737 m 1x9a80
 542 737 l 1
 542 681 456 613 349 613 c 0
 242 613 157 681 157 737 c 1
 253 737 l 1xa980
 253 726 296 699 349 699 c 0
 403 699 447 726 447 737 c 1x9a80
275 521 m 0
 340 521 398 495 430 436 c 1xaa80
 509 511 l 1
 579 511 l 1
 513 40 l 2
 491 -116 381 -186 245 -186 c 0
 121 -186 -3 -147 -3 -19 c 1
 196 -19 l 1
 196 -36 211 -63 252 -63 c 0x9c80
 298 -63 307 -21 312 7 c 2
 321 82 l 1
 284 43 234 19 179 19 c 0
 64 19 18 112 18 216 c 0xea80
 18 355 92 521 275 521 c 0
303 400 m 0
 267 400 237 371 231 330 c 2
 222 270 l 2
 217 239 214 207 214 203 c 0
 214 168 236 144 267 144 c 0
 310 144 334 175 339 214 c 0xea80
 347 270 356 325 356 342 c 0
 356 381 334 400 303 400 c 0
EndSplineSet
EndChar

StartChar: gcommaaccent
Encoding: 291 291 134
Width: 600
GlyphClass: 2
Flags: MW
HStem: -186 167<183 196 -3 313> 19 125<121.5 288.5> 400 121<285 307.5 183.5 318.5> 491 20G<509 579 579 579> 581 151<365 429 238 450>
VStem: -3 199<-27.5 -19 -27.5 -19> 18 196<185.5 205 185.5 285.5>
LayerCount: 2
Fore
SplineSet
255 700 m 1x9a
 299 811 l 1
 393 811 l 1
 365 732 l 1
 450 732 l 1
 429 581 l 1
 238 581 l 1
 255 700 l 1x9a
275 521 m 0xea
 340 521 398 495 430 436 c 1xaa
 509 511 l 1
 579 511 l 1
 513 40 l 2
 491 -116 381 -186 245 -186 c 0
 121 -186 -3 -147 -3 -19 c 1
 196 -19 l 1
 196 -36 211 -63 252 -63 c 0x9c
 298 -63 307 -21 312 7 c 2
 321 82 l 1
 284 43 234 19 179 19 c 0
 64 19 18 112 18 216 c 0
 18 355 92 521 275 521 c 0xea
303 400 m 0
 267 400 237 371 231 330 c 2
 222 270 l 2
 217 239 214 207 214 203 c 0
 214 168 236 144 267 144 c 0
 310 144 334 175 339 214 c 0
 347 270 356 325 356 342 c 0
 356 381 334 400 303 400 c 0
EndSplineSet
EndChar

StartChar: h
Encoding: 104 104 135
Width: 597
GlyphClass: 2
Flags: MW
HStem: 380 141<294.5 484 377.5 563> 501 20G<377.5 484> 700 20G<109 307 307 307>
VStem: 9 554<0 380>
LayerCount: 2
Fore
SplineSet
307 720 m 1x70
 269 451 l 1
 288 478 335 521 420 521 c 0
 548 521 563 428 563 392 c 2
 563 380 l 2
 563 360 553 313 510 0 c 1
 312 0 l 1
 356 323 358 313 358 333 c 0
 358 358 343 380 312 380 c 0
 277 380 256 353 251 320 c 2xb0
 206 0 l 1
 9 0 l 1
 109 720 l 1
 307 720 l 1x70
EndSplineSet
EndChar

StartChar: i
Encoding: 105 105 136
Width: 296
GlyphClass: 2
Flags: MW
HStem: 491 20G<80 277 277 277> 577 143<109 286 89 306>
VStem: 9 297
LayerCount: 2
Fore
SplineSet
286 577 m 1
 89 577 l 1
 109 720 l 1
 306 720 l 1
 286 577 l 1
205 0 m 1
 9 0 l 1
 80 511 l 1
 277 511 l 1
 205 0 l 1
EndSplineSet
EndChar

StartChar: dotlessi
Encoding: 305 305 137
Width: 296
GlyphClass: 2
Flags: MW
HStem: 491 20G<80 277 277 277>
VStem: 9 268
LayerCount: 2
Fore
SplineSet
206 0 m 1
 9 0 l 1
 80 511 l 1
 277 511 l 1
 206 0 l 1
EndSplineSet
EndChar

StartChar: iacute
Encoding: 237 237 138
Width: 296
GlyphClass: 2
Flags: MW
HStem: 491 20G<80 277 277 277> 575 145<204 210 92 355>
VStem: 9 347
LayerCount: 2
Fore
SplineSet
356 717 m 1
 210 575 l 1
 92 575 l 1
 204 720 l 1
 355 720 l 1
 356 717 l 1
206 0 m 1
 9 0 l 1
 80 511 l 1
 277 511 l 1
 206 0 l 1
EndSplineSet
EndChar

StartChar: icircumflex
Encoding: 238 238 139
Width: 296
GlyphClass: 2
Flags: MW
HStem: 491 20G<80 277 277 277> 575 145<-18 270 258 270 142 388 258 258> 652 68<195 195>
VStem: -18 406<575 575>
LayerCount: 2
Fore
SplineSet
388 575 m 1xd0
 258 575 l 1xd0
 195 652 l 1xb0
 110 575 l 1
 -18 575 l 1
 142 720 l 1
 270 720 l 1
 388 575 l 1xd0
206 0 m 1
 9 0 l 1
 80 511 l 1
 277 511 l 1
 206 0 l 1
EndSplineSet
EndChar

StartChar: idieresis
Encoding: 239 239 140
Width: 296
GlyphClass: 2
Flags: MW
HStem: 491 20G<80 277 277 277> 573 147<22 153 1 174 22 221 242 373>
VStem: 1 393<573 720>
LayerCount: 2
Fore
SplineSet
153 573 m 1
 1 573 l 1
 22 720 l 1
 174 720 l 1
 153 573 l 1
373 573 m 1
 221 573 l 1
 242 720 l 1
 394 720 l 1
 373 573 l 1
206 0 m 1
 9 0 l 1
 80 511 l 1
 277 511 l 1
 206 0 l 1
EndSplineSet
EndChar

StartChar: igrave
Encoding: 236 236 141
Width: 296
GlyphClass: 2
Flags: MW
HStem: 491 20G<80 277 277 277> 575 145<154 202 51 272 154 154>
VStem: 9 268
LayerCount: 2
Fore
SplineSet
272 575 m 1
 154 575 l 1
 48 717 l 1
 51 720 l 1
 202 720 l 1
 272 575 l 1
206 0 m 1
 9 0 l 1
 80 511 l 1
 277 511 l 1
 206 0 l 1
EndSplineSet
EndChar

StartChar: imacron
Encoding: 299 299 142
Width: 296
GlyphClass: 2
Flags: MW
HStem: 491 20G<80 277 277 277> 662 74<30 348 30 348>
VStem: 30 318<662 736 662 736>
LayerCount: 2
Fore
SplineSet
348 662 m 1
 30 662 l 1
 30 736 l 1
 348 736 l 1
 348 662 l 1
206 0 m 1
 9 0 l 1
 80 511 l 1
 277 511 l 1
 206 0 l 1
EndSplineSet
EndChar

StartChar: iogonek
Encoding: 303 303 143
Width: 296
GlyphClass: 2
Flags: MW
HStem: -143 53<126.5 191.5> 491 20G<80 277 277 277> 577 143<109 286 89 306>
VStem: 61 79<-72.5 -63.5>
LayerCount: 2
Fore
SplineSet
306 720 m 1
 286 577 l 1
 89 577 l 1
 109 720 l 1
 306 720 l 1
206 0 m 1
 196 0 l 1
 173 -13 140 -31 140 -62 c 0
 140 -83 161 -90 180 -90 c 0
 203 -90 226 -84 249 -76 c 1
 256 -119 l 1
 221 -135 184 -143 148 -143 c 0
 105 -143 61 -128 61 -83 c 0
 61 -44 94 -19 126 0 c 1
 9 0 l 1
 80 511 l 1
 277 511 l 1
 206 0 l 1
EndSplineSet
EndChar

StartChar: j
Encoding: 106 106 144
Width: 298
GlyphClass: 2
Flags: MW
HStem: -187 122<-63.5 52.5> 491 20G<80 279 279 279> 577 143<109 288 89 308>
VStem: -132 440
LayerCount: 2
Fore
SplineSet
288 577 m 1
 89 577 l 1
 109 720 l 1
 308 720 l 1
 288 577 l 1
279 511 m 1
 203 -26 l 2
 188 -134 107 -187 -2 -187 c 0
 -37 -187 -100 -178 -132 -165 c 1
 -116 -53 l 1
 -101 -60 -71 -65 -56 -65 c 0
 -28 -65 1 -55 9 4 c 2
 80 511 l 1
 279 511 l 1
EndSplineSet
EndChar

StartChar: k
Encoding: 107 107 145
Width: 601
GlyphClass: 2
Flags: MW
HStem: 491 20G<408 634 634 634> 700 20G<109 307 307 307>
VStem: 9 625<0 511>
AnchorPoint: "Bottom" 301 0 basechar 0
LayerCount: 2
Fore
SplineSet
251 321 m 1
 408 511 l 1
 634 511 l 1
 422 280 l 1
 565 0 l 1
 332 0 l 1
 262 145 l 1
 222 114 l 1
 206 0 l 1
 9 0 l 1
 109 720 l 1
 307 720 l 1
 251 321 l 1
EndSplineSet
EndChar

StartChar: kcommaaccent
Encoding: 311 311 146
Width: 601
GlyphClass: 2
Flags: MW
HStem: -171 151<202 266 181 393> 491 20G<408 634 634 634> 700 20G<109 307 307 307>
VStem: 9 625<0 511>
AnchorPoint: "Bottom" 301 0 basechar 0
LayerCount: 2
Fore
SplineSet
251 321 m 1
 408 511 l 1
 634 511 l 1
 422 280 l 1
 565 0 l 1
 332 0 l 1
 262 145 l 1
 222 114 l 1
 206 0 l 1
 9 0 l 1
 109 720 l 1
 307 720 l 1
 251 321 l 1
376 -139 m 1
 332 -250 l 1
 238 -250 l 1
 266 -171 l 1
 181 -171 l 1
 202 -20 l 1
 393 -20 l 1
 376 -139 l 1
EndSplineSet
EndChar

StartChar: l
Encoding: 108 108 147
Width: 297
GlyphClass: 2
Flags: MW
HStem: 700 20G<109 307 307 307>
VStem: 9 298
AnchorPoint: "Bottom" 108 0 basechar 0
LayerCount: 2
Fore
SplineSet
206 0 m 1
 9 0 l 1
 109 720 l 1
 307 720 l 1
 206 0 l 1
EndSplineSet
EndChar

StartChar: lacute
Encoding: 314 314 148
Width: 297
GlyphClass: 2
Flags: MW
HStem: 700 20G<109 307 307 307> 750 145<243 249 131 394>
VStem: 9 386
AnchorPoint: "Bottom" 108 0 basechar 0
LayerCount: 2
Fore
SplineSet
395 892 m 1
 249 750 l 1
 131 750 l 1
 243 895 l 1
 394 895 l 1
 395 892 l 1
206 0 m 1
 9 0 l 1
 109 720 l 1
 307 720 l 1xa0
 206 0 l 1
EndSplineSet
EndChar

StartChar: lcaron
Encoding: 318 318 149
Width: 297
GlyphClass: 2
Flags: MW
HStem: 503 183<358 416 332 549> 503 217<109 416 109 332>
VStem: 9 540
AnchorPoint: "Bottom" 108 0 basechar 0
LayerCount: 2
Fore
SplineSet
206 0 m 1xa0
 9 0 l 1
 109 720 l 1
 307 720 l 1x60
 206 0 l 1xa0
526 525 m 1
 450 338 l 1
 356 338 l 1
 416 503 l 1
 332 503 l 1
 358 686 l 1
 549 686 l 1xa0
 526 525 l 1
EndSplineSet
EndChar

StartChar: lcommaaccent
Encoding: 316 316 150
Width: 297
GlyphClass: 2
Flags: MW
HStem: -171 151<9 73 -12 200> 700 20G<109 307 307 307>
VStem: -12 319
AnchorPoint: "Bottom" 108 0 basechar 0
LayerCount: 2
Fore
SplineSet
206 0 m 1
 9 0 l 1
 109 720 l 1
 307 720 l 1
 206 0 l 1
183 -139 m 1
 139 -250 l 1
 45 -250 l 1
 73 -171 l 1
 -12 -171 l 1
 9 -20 l 1
 200 -20 l 1
 183 -139 l 1
EndSplineSet
EndChar

StartChar: lslash
Encoding: 322 322 151
Width: 346
GlyphClass: 2
Flags: MW
HStem: 499 20G<365 365> 700 20G<134 332 332 332>
VStem: 11 354<255 519>
LayerCount: 2
Fore
SplineSet
299 488 m 1
 365 519 l 1
 350 414 l 1
 285 384 l 1
 231 0 l 1
 34 0 l 1
 73 285 l 1
 11 255 l 1
 25 360 l 1
 88 389 l 1
 134 720 l 1
 332 720 l 1
 299 488 l 1
EndSplineSet
EndChar

StartChar: m
Encoding: 109 109 152
Width: 869
GlyphClass: 2
Flags: MW
HStem: 379 132<80 314.5> 491 20G<80 228 228 228> 501 20G<357.5 440 652.5 740>
VStem: 8 827<0 428.5>
LayerCount: 2
Fore
SplineSet
692 521 m 0x30
 788 521 835 465 835 392 c 0
 835 380 828 322 818 254 c 2
 808 184 l 2
 800 129 793 67 782 0 c 1
 588 0 l 1
 608 154 634 310 634 334 c 0
 634 361 616 379 593 379 c 0
 563 379 541 357 537 324 c 2
 492 0 l 1
 298 0 l 1
 318 154 344 310 344 334 c 0
 344 361 326 379 303 379 c 0
 273 379 251 357 247 324 c 2x90
 202 0 l 1
 8 0 l 1
 80 511 l 1
 228 511 l 1x50
 238 437 l 1
 256 463 313 521 402 521 c 0
 478 521 516 490 535 443 c 1
 568 488 613 521 692 521 c 0x30
EndSplineSet
EndChar

StartChar: n
Encoding: 110 110 153
Width: 597
GlyphClass: 2
Flags: MW
HStem: 380 131<80 327.5> 491 20G<80 229 229 229> 501 20G<361 467>
VStem: 8 555<0 428.5>
AnchorPoint: "Bottom" 299 0 basechar 0
LayerCount: 2
Fore
SplineSet
419 521 m 0x30
 515 521 563 465 563 392 c 0
 563 380 556 324 546 255 c 2
 536 185 l 2
 528 130 521 68 510 0 c 1
 312 0 l 1
 332 151 358 306 358 330 c 0
 358 358 343 380 312 380 c 0
 277 380 256 353 251 320 c 2x90
 206 0 l 1
 8 0 l 1
 80 511 l 1
 229 511 l 1x50
 238 437 l 1
 254 458 303 521 419 521 c 0x30
EndSplineSet
EndChar

StartChar: nacute
Encoding: 324 324 154
Width: 597
GlyphClass: 2
Flags: MW
HStem: 380 131<80 327.5> 491 20G<80 229 229 229> 501 20G<361 467> 575 145<409 415 297 560>
VStem: 8 555<0 428.5>
AnchorPoint: "Bottom" 299 0 basechar 0
LayerCount: 2
Fore
SplineSet
561 717 m 1x38
 415 575 l 1
 297 575 l 1
 409 720 l 1
 560 720 l 1
 561 717 l 1x38
419 521 m 0
 515 521 563 465 563 392 c 0
 563 380 556 324 546 255 c 2
 536 185 l 2
 528 130 521 68 510 0 c 1
 312 0 l 1
 332 151 358 306 358 330 c 0
 358 358 343 380 312 380 c 0
 277 380 256 353 251 320 c 2x98
 206 0 l 1
 8 0 l 1
 80 511 l 1
 229 511 l 1x58
 238 437 l 1
 254 458 303 521 419 521 c 0
EndSplineSet
EndChar

StartChar: ncaron
Encoding: 328 328 155
Width: 597
GlyphClass: 2
Flags: MW
HStem: 380 131<80 327.5> 491 20G<80 229 229 229> 501 20G<361 467> 575 145<324 336 206 452 324 324>
VStem: 8 604
AnchorPoint: "Bottom" 299 0 basechar 0
LayerCount: 2
Fore
SplineSet
452 575 m 1x38
 324 575 l 1
 206 720 l 1
 336 720 l 1
 399 643 l 1
 484 720 l 1
 612 720 l 1
 452 575 l 1x38
419 521 m 0
 515 521 563 465 563 392 c 0
 563 380 556 324 546 255 c 2
 536 185 l 2
 528 130 521 68 510 0 c 1
 312 0 l 1
 332 151 358 306 358 330 c 0
 358 358 343 380 312 380 c 0
 277 380 256 353 251 320 c 2x98
 206 0 l 1
 8 0 l 1
 80 511 l 1
 229 511 l 1x58
 238 437 l 1
 254 458 303 521 419 521 c 0
EndSplineSet
EndChar

StartChar: ncommaaccent
Encoding: 326 326 156
Width: 597
GlyphClass: 2
Flags: MW
HStem: -171 151<200 264 179 391> 380 131<80 327.5> 491 20G<80 229 229 229> 501 20G<361 467>
VStem: 8 555<0 428.5>
AnchorPoint: "Bottom" 299 0 basechar 0
LayerCount: 2
Fore
SplineSet
419 521 m 0x98
 515 521 563 465 563 392 c 0
 563 380 556 324 546 255 c 2
 536 185 l 2
 528 130 521 68 510 0 c 1
 312 0 l 1
 332 151 358 306 358 330 c 0
 358 358 343 380 312 380 c 0
 277 380 256 353 251 320 c 2xc8
 206 0 l 1
 8 0 l 1
 80 511 l 1
 229 511 l 1xa8
 238 437 l 1
 254 458 303 521 419 521 c 0x98
374 -139 m 1
 330 -250 l 1
 236 -250 l 1
 264 -171 l 1
 179 -171 l 1
 200 -20 l 1
 391 -20 l 1
 374 -139 l 1
EndSplineSet
EndChar

StartChar: ntilde
Encoding: 241 241 157
Width: 597
GlyphClass: 2
Flags: MW
HStem: 380 131<80 327.5> 491 20G<80 229 229 229> 501 20G<361 467> 577 103<411 450.5 411 457.5> 577 143<111 303 111 303 228.5 457.5> 617 103<234.5 273.5>
VStem: 8 567
LayerCount: 2
Fore
SplineSet
494 720 m 1x26
 575 720 l 1x26
 564 648 501 577 414 577 c 0x32
 350 577 300 617 247 617 c 0x26
 222 617 202 600 191 577 c 1
 111 577 l 1x2a
 122 649 186 720 271 720 c 0x26
 335 720 384 680 438 680 c 0x32
 463 680 483 697 494 720 c 1x26
419 521 m 0
 515 521 563 465 563 392 c 0
 563 380 556 324 546 255 c 2
 536 185 l 2
 528 130 521 68 510 0 c 1
 312 0 l 1
 332 151 358 306 358 330 c 0
 358 358 343 380 312 380 c 0
 277 380 256 353 251 320 c 2x86
 206 0 l 1
 8 0 l 1
 80 511 l 1
 229 511 l 1x46
 238 437 l 1
 254 458 303 521 419 521 c 0
EndSplineSet
EndChar

StartChar: o
Encoding: 111 111 158
Width: 613
GlyphClass: 2
Flags: MW
HStem: -10 121<263.5 265 265 280> 400 121<323 340 340 340.5>
VStem: 16 205<153.5 176 153.5 279.5> 382 205<339 354.5>
LayerCount: 2
Fore
SplineSet
323 521 m 2
 340 521 l 2
 500 521 587 435 587 305 c 0
 587 123 461 -10 280 -10 c 2
 265 -10 l 2
 102 -10 16 77 16 205 c 0
 16 354 111 521 323 521 c 2
322 400 m 0
 281 400 249 369 243 330 c 0
 231 256 221 181 221 171 c 0
 221 136 246 111 281 111 c 0
 324 111 354 142 360 181 c 2
 371 254 l 1
 382 339 l 2
 382 370 359 400 322 400 c 0
EndSplineSet
Substitution2: "Single Substitution lookup 5 subtable" ordmasculine
Substitution2: "'aalt' Access All Alternates lookup 0 subtable" ordmasculine
EndChar

StartChar: oacute
Encoding: 243 243 159
Width: 613
GlyphClass: 2
Flags: MW
HStem: -10 121<263.5 265 265 280> 400 121<323 340 340 340.5> 575 145<399 405 287 550>
VStem: 16 205<153.5 176 153.5 279.5> 382 205<339 354.5>
LayerCount: 2
Fore
SplineSet
551 717 m 1
 405 575 l 1
 287 575 l 1
 399 720 l 1
 550 720 l 1
 551 717 l 1
323 521 m 2
 340 521 l 2
 500 521 587 435 587 305 c 0
 587 123 461 -10 280 -10 c 2
 265 -10 l 2
 102 -10 16 77 16 205 c 0
 16 354 111 521 323 521 c 2
322 400 m 0
 281 400 249 369 243 330 c 0
 231 256 221 181 221 171 c 0
 221 136 246 111 281 111 c 0
 324 111 354 142 360 181 c 2
 371 254 l 1
 382 339 l 2
 382 370 359 400 322 400 c 0
EndSplineSet
EndChar

StartChar: ocircumflex
Encoding: 244 244 160
Width: 613
GlyphClass: 2
Flags: MW
HStem: -10 121<263.5 265 265 280> 400 121<323 340 340 340.5> 575 145<148 436 424 436 308 554 424 424> 652 68<361 361>
VStem: 16 205<153.5 176 153.5 279.5> 382 205<339 354.5>
LayerCount: 2
Fore
SplineSet
554 575 m 1xec
 424 575 l 1xec
 361 652 l 1xdc
 276 575 l 1
 148 575 l 1
 308 720 l 1
 436 720 l 1
 554 575 l 1xec
323 521 m 2
 340 521 l 2
 500 521 587 435 587 305 c 0
 587 123 461 -10 280 -10 c 2
 265 -10 l 2
 102 -10 16 77 16 205 c 0
 16 354 111 521 323 521 c 2
322 400 m 0
 281 400 249 369 243 330 c 0
 231 256 221 181 221 171 c 0
 221 136 246 111 281 111 c 0
 324 111 354 142 360 181 c 2
 371 254 l 1
 382 339 l 2
 382 370 359 400 322 400 c 0
EndSplineSet
EndChar

StartChar: odieresis
Encoding: 246 246 161
Width: 613
GlyphClass: 2
Flags: MW
HStem: -10 121<263.5 265 265 280> 400 121<323 340 340 340.5> 573 147<183 314 162 335 183 382 403 534>
VStem: 16 205<153.5 176 153.5 279.5> 382 205<339 354.5 214 573>
LayerCount: 2
Fore
SplineSet
314 573 m 1
 162 573 l 1
 183 720 l 1
 335 720 l 1
 314 573 l 1
534 573 m 1
 382 573 l 1
 403 720 l 1
 555 720 l 1
 534 573 l 1
323 521 m 2
 340 521 l 2
 500 521 587 435 587 305 c 0
 587 123 461 -10 280 -10 c 2
 265 -10 l 2
 102 -10 16 77 16 205 c 0
 16 354 111 521 323 521 c 2
322 400 m 0
 281 400 249 369 243 330 c 0
 231 256 221 181 221 171 c 0
 221 136 246 111 281 111 c 0
 324 111 354 142 360 181 c 2
 371 254 l 1
 382 339 l 2
 382 370 359 400 322 400 c 0
EndSplineSet
EndChar

StartChar: ograve
Encoding: 242 242 162
Width: 613
GlyphClass: 2
Flags: MW
HStem: -10 121<263.5 265 265 280> 400 121<323 340 340 340.5> 575 145<281 329 178 399 281 281>
VStem: 16 205<153.5 176 153.5 279.5> 382 205<339 354.5>
LayerCount: 2
Fore
SplineSet
399 575 m 1
 281 575 l 1
 175 717 l 1
 178 720 l 1
 329 720 l 1
 399 575 l 1
323 521 m 2
 340 521 l 2
 500 521 587 435 587 305 c 0
 587 123 461 -10 280 -10 c 2
 265 -10 l 2
 102 -10 16 77 16 205 c 0
 16 354 111 521 323 521 c 2
322 400 m 0
 281 400 249 369 243 330 c 0
 231 256 221 181 221 171 c 0
 221 136 246 111 281 111 c 0
 324 111 354 142 360 181 c 2
 371 254 l 1
 382 339 l 2
 382 370 359 400 322 400 c 0
EndSplineSet
EndChar

StartChar: ohungarumlaut
Encoding: 337 337 163
Width: 613
GlyphClass: 2
Flags: MW
HStem: -10 121<263.5 265 265 280> 400 121<323 340 340 340.5> 575 145<293 299 181 444 408 408 408 444 520 526>
VStem: 16 205<153.5 176 153.5 279.5> 382 205<339 354.5>
LayerCount: 2
Fore
SplineSet
445 717 m 1
 299 575 l 1
 181 575 l 1
 293 720 l 1
 444 720 l 1
 445 717 l 1
672 717 m 1
 526 575 l 1
 408 575 l 1
 520 720 l 1
 671 720 l 1
 672 717 l 1
323 521 m 2
 340 521 l 2
 500 521 587 435 587 305 c 0
 587 123 461 -10 280 -10 c 2
 265 -10 l 2
 102 -10 16 77 16 205 c 0
 16 354 111 521 323 521 c 2
322 400 m 0
 281 400 249 369 243 330 c 0
 231 256 221 181 221 171 c 0
 221 136 246 111 281 111 c 0
 324 111 354 142 360 181 c 2
 371 254 l 1
 382 339 l 2
 382 370 359 400 322 400 c 0
EndSplineSet
EndChar

StartChar: omacron
Encoding: 333 333 164
Width: 613
GlyphClass: 2
Flags: MW
HStem: -10 121<263.5 265 265 280> 400 121<323 340 340 340.5> 662 74<208 526 208 526>
VStem: 16 205<153.5 176 153.5 279.5> 208 318<662 736 662 736> 382 205<339 354.5>
LayerCount: 2
Fore
SplineSet
526 662 m 1xe8
 208 662 l 1
 208 736 l 1
 526 736 l 1
 526 662 l 1xe8
323 521 m 2
 340 521 l 2
 500 521 587 435 587 305 c 0
 587 123 461 -10 280 -10 c 2
 265 -10 l 2
 102 -10 16 77 16 205 c 0xf4
 16 354 111 521 323 521 c 2
322 400 m 0
 281 400 249 369 243 330 c 0
 231 256 221 181 221 171 c 0
 221 136 246 111 281 111 c 0
 324 111 354 142 360 181 c 2
 371 254 l 1
 382 339 l 2
 382 370 359 400 322 400 c 0
EndSplineSet
EndChar

StartChar: oslash
Encoding: 248 248 165
Width: 613
GlyphClass: 2
Flags: MW
HStem: -10 121<244.5 325.5 273.5 280> 400 121<323 329>
VStem: 14 576
LayerCount: 2
Fore
SplineSet
590 569 m 1
 513 470 l 1
 562 431 587 376 587 305 c 0
 587 123 461 -10 280 -10 c 2
 265 -10 l 2
 224 -10 187 -4 154 7 c 1
 106 -55 l 1
 14 -55 l 1
 89 41 l 1
 40 80 16 134 16 205 c 0
 16 354 111 521 323 521 c 2
 340 521 l 2
 380 521 416 515 448 504 c 1
 498 569 l 1
 590 569 l 1
322 400 m 0
 281 400 248 369 243 330 c 2
 227 219 l 1
 358 388 l 1
 348 396 336 400 322 400 c 0
375 292 m 1
 244 123 l 1
 254 115 266 111 281 111 c 0
 370 111 361 210 375 292 c 1
EndSplineSet
EndChar

StartChar: otilde
Encoding: 245 245 166
Width: 613
GlyphClass: 2
Flags: MW
HStem: -10 121<263.5 265 265 280> 400 121<323 340 340 340.5> 577 103<426 465.5 426 472.5> 577 143<126 318 126 318 243.5 472.5> 617 103<249.5 288.5>
VStem: 16 205<153.5 176 153.5 279.5> 382 205<339 354.5>
LayerCount: 2
Fore
SplineSet
509 720 m 1xce
 590 720 l 1xce
 579 648 516 577 429 577 c 0xe6
 365 577 315 617 262 617 c 0xce
 237 617 217 600 206 577 c 1
 126 577 l 1xd6
 137 649 201 720 286 720 c 0xce
 350 720 399 680 453 680 c 0xe6
 478 680 498 697 509 720 c 1xce
323 521 m 2
 340 521 l 2
 500 521 587 435 587 305 c 0
 587 123 461 -10 280 -10 c 2
 265 -10 l 2
 102 -10 16 77 16 205 c 0
 16 354 111 521 323 521 c 2
322 400 m 0
 281 400 249 369 243 330 c 0
 231 256 221 181 221 171 c 0
 221 136 246 111 281 111 c 0
 324 111 354 142 360 181 c 2
 371 254 l 1
 382 339 l 2
 382 370 359 400 322 400 c 0
EndSplineSet
EndChar

StartChar: oe
Encoding: 339 339 167
Width: 943
GlyphClass: 2
Flags: MW
HStem: -10 121<263.5 265 265 280 613.5 622> 229 87<585 723 585 906 573 723> 400 121<323 340 340 340.5 675 683.5>
VStem: 16 205<153.5 176 153.5 279.5> 725 192<333 356.5>
LayerCount: 2
Fore
SplineSet
675 521 m 2
 700 521 l 2
 843 521 917 443 917 330 c 0
 917 327 917 323 916 320 c 2
 915 303 l 2
 914 288 911 266 906 229 c 1
 573 229 l 1
 569 204 l 2
 567 191 564 175 565 170 c 0
 565 131 594 111 633 111 c 0
 681 111 710 143 717 192 c 1
 900 192 l 1
 884 79 779 -10 622 -10 c 2
 607 -10 l 2
 541 -10 487 4 444 33 c 1
 397 6 343 -10 280 -10 c 2
 265 -10 l 2
 102 -10 16 77 16 205 c 0
 16 354 111 521 323 521 c 2
 340 521 l 2
 408 521 461 505 502 478 c 1
 551 507 609 521 675 521 c 2
322 400 m 0
 281 400 249 369 243 330 c 0
 231 256 221 181 221 171 c 0
 221 136 246 111 281 111 c 0
 324 111 354 142 360 181 c 2
 371 254 l 1
 382 339 l 2
 382 370 359 400 322 400 c 0
666 400 m 0
 626 400 592 369 587 330 c 2
 585 316 l 1
 723 316 l 1
 723 320 725 327 725 339 c 0
 725 374 701 400 666 400 c 0
EndSplineSet
EndChar

StartChar: p
Encoding: 112 112 168
Width: 599
GlyphClass: 2
Flags: MW
HStem: -10 125<269.5 422> 400 111<80 340.5> 400 121<306.5 440.5>
VStem: 378 194<337.5 361.5>
LayerCount: 2
Fore
SplineSet
387 521 m 0xb0
 494 521 572 455 572 319 c 0
 572 178 507 -10 337 -10 c 0
 276 -10 230 18 214 53 c 1
 181 -181 l 1
 -16 -181 l 1
 80 511 l 1
 238 511 l 1xd0
 248 452 l 1
 281 487 324 521 387 521 c 0xb0
325 400 m 0
 288 400 258 369 253 330 c 0
 232 182 232 178 232 174 c 0
 232 139 254 115 285 115 c 0
 328 115 351 146 357 185 c 2
 367 257 l 2
 372 294 378 333 378 342 c 0
 378 381 356 400 325 400 c 0
EndSplineSet
EndChar

StartChar: thorn
Encoding: 254 254 169
Width: 599
GlyphClass: 2
Flags: MW
HStem: -10 125<268.5 389> 400 121<306.5 457.5> 501 20G<375.5 457.5> 700 20G<109 307 307 307>
VStem: -17 589<-181 391.5> 377 195<340 357.5>
LayerCount: 2
Fore
SplineSet
307 720 m 1xb8
 270 458 l 1
 297 493 340 521 411 521 c 0
 504 521 572 457 572 326 c 0
 572 306 570 284 567 261 c 2
 566 250 l 1xb4
 542 75 442 -10 336 -10 c 0
 265 -10 229 18 213 53 c 1
 180 -181 l 1
 -17 -181 l 1
 109 720 l 1
 307 720 l 1xb8
324 400 m 0xd4
 289 400 257 369 252 330 c 2
 232 185 l 2
 231 182 231 178 231 173 c 0
 231 140 253 115 284 115 c 0
 316 115 351 146 356 185 c 2
 377 340 l 1
 377 375 355 400 324 400 c 0xd4
EndSplineSet
EndChar

StartChar: q
Encoding: 113 113 170
Width: 599
GlyphClass: 2
Flags: MW
HStem: -11 125<130.5 285.5> 399 121<285.5 310 180.5 319.5> 491 20G<510 580 580 580>
VStem: 16 195<155.5 175 155.5 260.5>
LayerCount: 2
Fore
SplineSet
276 520 m 0xd0
 344 520 394 498 425 443 c 1xd0
 510 511 l 1
 580 511 l 1xb0
 483 -180 l 1
 285 -180 l 1
 318 52 l 1
 294 28 246 -11 177 -11 c 0
 84 -11 16 53 16 184 c 0
 16 337 85 520 276 520 c 0xd0
304 399 m 0
 267 399 237 368 232 329 c 0
 211 181 211 177 211 173 c 0
 211 138 233 114 264 114 c 0
 307 114 330 145 336 184 c 2
 346 256 l 2
 351 293 357 332 357 341 c 0
 357 380 335 399 304 399 c 0
EndSplineSet
EndChar

StartChar: r
Encoding: 114 114 171
Width: 504
GlyphClass: 2
Flags: MW
HStem: 304 207<80 491 80 329> 304 217<345.5 426 345.5 491 329 426> 378 133<80 307>
VStem: 8 500<0 444> 332 176<332 444>
AnchorPoint: "Bottom" 105 0 basechar 0
LayerCount: 2
Fore
SplineSet
386 521 m 0x48
 466 521 508 478 508 410 c 0
 508 384 498 342 491 304 c 1
 329 304 l 1x48
 329 316 332 328 332 336 c 0
 332 367 317 378 297 378 c 0
 269 378 251 356 247 328 c 2x28
 201 0 l 1
 8 0 l 1
 80 511 l 1
 228 511 l 1x90
 239 437 l 1
 247 452 305 521 386 521 c 0x48
EndSplineSet
EndChar

StartChar: racute
Encoding: 341 341 172
Width: 504
GlyphClass: 2
Flags: MW
HStem: 304 207<80 491 80 329> 304 217<345.5 426 345.5 491 329 426> 378 133<80 307> 575 145<252 258 140 403>
VStem: 8 500<0 444> 332 176<332 444>
AnchorPoint: "Bottom" 105 0 basechar 0
LayerCount: 2
Fore
SplineSet
404 717 m 1x58
 258 575 l 1
 140 575 l 1
 252 720 l 1
 403 720 l 1
 404 717 l 1x58
386 521 m 0x54
 466 521 508 478 508 410 c 0
 508 384 498 342 491 304 c 1
 329 304 l 1x54
 329 316 332 328 332 336 c 0
 332 367 317 378 297 378 c 0
 269 378 251 356 247 328 c 2x34
 201 0 l 1
 8 0 l 1
 80 511 l 1
 228 511 l 1x98
 239 437 l 1
 247 452 305 521 386 521 c 0x54
EndSplineSet
EndChar

StartChar: rcaron
Encoding: 345 345 173
Width: 504
GlyphClass: 2
Flags: MW
HStem: 304 207<80 491 80 329> 304 217<345.5 426 345.5 491 329 426> 378 133<80 307> 575 145<167 179 49 295 167 167>
VStem: 8 500<0 444> 332 176<332 444>
AnchorPoint: "Bottom" 105 0 basechar 0
LayerCount: 2
Fore
SplineSet
295 575 m 1x58
 167 575 l 1
 49 720 l 1
 179 720 l 1
 242 643 l 1
 327 720 l 1
 455 720 l 1
 295 575 l 1x58
386 521 m 0x54
 466 521 508 478 508 410 c 0
 508 384 498 342 491 304 c 1
 329 304 l 1x54
 329 316 332 328 332 336 c 0
 332 367 317 378 297 378 c 0
 269 378 251 356 247 328 c 2x34
 201 0 l 1
 8 0 l 1
 80 511 l 1
 228 511 l 1x98
 239 437 l 1
 247 452 305 521 386 521 c 0x54
EndSplineSet
EndChar

StartChar: rcommaaccent
Encoding: 343 343 174
Width: 504
GlyphClass: 2
Flags: MW
HStem: -171 151<6 70 -15 197> 304 207<80 491 80 329> 304 217<345.5 426 345.5 491 329 426> 378 133<80 307>
VStem: -15 523 332 176<332 444>
AnchorPoint: "Bottom" 105 0 basechar 0
LayerCount: 2
Fore
SplineSet
386 521 m 0xa4
 466 521 508 478 508 410 c 0
 508 384 498 342 491 304 c 1
 329 304 l 1xa4
 329 316 332 328 332 336 c 0
 332 367 317 378 297 378 c 0
 269 378 251 356 247 328 c 2x94
 201 0 l 1
 8 0 l 1
 80 511 l 1
 228 511 l 1xc8
 239 437 l 1
 247 452 305 521 386 521 c 0xa4
180 -139 m 1
 136 -250 l 1
 42 -250 l 1
 70 -171 l 1
 -15 -171 l 1
 6 -20 l 1
 197 -20 l 1xa8
 180 -139 l 1
EndSplineSet
EndChar

StartChar: s
Encoding: 115 115 175
Width: 559
GlyphClass: 2
Flags: MW
HStem: -10 121<229 230 230 240> 186.53 148.8 358 163<364 373.5 313 528 364 364> 403 118<313 314>
VStem: 1 165<79.5 156> 44 178<338.5 387 338.5 393.5> 335 181<141 178.5> 364 171<358 439.5 363 439.5>
AnchorPoint: "Bottom" 280 0 basechar 0
LayerCount: 2
Fore
SplineSet
313 521 m 2xd6
 321 521 l 2xd5
 426 521 535 482 535 397 c 0
 535 374 527 358 528 358 c 2xe5
 364 358 l 1
 364 363 l 2
 364 396 328 403 300 403 c 0
 281 403 222 403 222 371 c 0xd6
 222 306 516 382 516 199 c 0
 516 83 440 -10 240 -10 c 2
 230 -10 l 2
 87 -10 1 32 1 127 c 0
 1 140 2 155 5 167 c 1
 167 167 l 2
 166 166 166 164 166 163 c 2
 166 156 l 2xda
 166 120 213 111 245 111 c 0
 264 111 335 112 335 145 c 0
 335 212 44 143 44 322 c 0
 44 465 192 521 313 521 c 2xd6
EndSplineSet
EndChar

StartChar: sacute
Encoding: 347 347 176
Width: 559
GlyphClass: 2
Flags: MW
HStem: -10 121<229 230 230 240> 186.53 148.8 358 163<364 373.5 313 528 364 364> 403 118<313 314> 575 145<350 356 238 501>
VStem: 1 165<79.5 156> 44 178<338.5 387 338.5 393.5> 335 181<141 178.5> 364 171<358 439.5 363 439.5>
AnchorPoint: "Bottom" 280 0 basechar 0
LayerCount: 2
Fore
SplineSet
502 717 m 1xdb
 356 575 l 1
 238 575 l 1
 350 720 l 1
 501 720 l 1
 502 717 l 1xdb
313 521 m 2
 321 521 l 2xda80
 426 521 535 482 535 397 c 0
 535 374 527 358 528 358 c 2xea80
 364 358 l 1
 364 363 l 2
 364 396 328 403 300 403 c 0
 281 403 222 403 222 371 c 0xdb
 222 306 516 382 516 199 c 0
 516 83 440 -10 240 -10 c 2
 230 -10 l 2
 87 -10 1 32 1 127 c 0
 1 140 2 155 5 167 c 1
 167 167 l 2
 166 166 166 164 166 163 c 2
 166 156 l 2xdd
 166 120 213 111 245 111 c 0
 264 111 335 112 335 145 c 0
 335 212 44 143 44 322 c 0
 44 465 192 521 313 521 c 2
EndSplineSet
EndChar

StartChar: scaron
Encoding: 353 353 177
Width: 559
GlyphClass: 2
Flags: MW
HStem: -10 121<229 230 230 240> 186.53 148.8 358 163<364 373.5 313 528 364 364> 403 118<313 314> 575 145<261 273 143 389 261 261>
VStem: 1 165<79.5 156> 44 178<338.5 387 338.5 393.5> 335 181<141 178.5> 364 171<358 439.5 363 439.5>
LayerCount: 2
Fore
SplineSet
389 575 m 1xdb
 261 575 l 1
 143 720 l 1
 273 720 l 1
 336 643 l 1
 421 720 l 1
 549 720 l 1
 389 575 l 1xdb
313 521 m 2
 321 521 l 2xda80
 426 521 535 482 535 397 c 0
 535 374 527 358 528 358 c 2xea80
 364 358 l 1
 364 363 l 2
 364 396 328 403 300 403 c 0
 281 403 222 403 222 371 c 0xdb
 222 306 516 382 516 199 c 0
 516 83 440 -10 240 -10 c 2
 230 -10 l 2
 87 -10 1 32 1 127 c 0
 1 140 2 155 5 167 c 1
 167 167 l 2
 166 166 166 164 166 163 c 2
 166 156 l 2xdd
 166 120 213 111 245 111 c 0
 264 111 335 112 335 145 c 0
 335 212 44 143 44 322 c 0
 44 465 192 521 313 521 c 2
EndSplineSet
EndChar

StartChar: scedilla
Encoding: 351 351 178
Width: 559
GlyphClass: 2
Flags: MW
HStem: -197 58<252 287.5 252 296> -76 59<275 285 267 296> -10 121<229 230 230 240> 186.53 148.8 358 163<364 373.5 313 528 364 364> 403 118<313 314>
VStem: 1 165<79.5 156> 44 178<338.5 387 338.5 393.5> 319 87<-114.5 -100 -100 -92.5> 335 181<141 178.5> 364 171<358 439.5 363 439.5>
AnchorPoint: "Bottom" 280 0 basechar 0
LayerCount: 2
Fore
SplineSet
313 521 m 2xb580
 321 521 l 2xb520
 426 521 535 482 535 397 c 0
 535 374 527 358 528 358 c 2xb920
 364 358 l 1
 364 363 l 2
 364 396 328 403 300 403 c 0
 281 403 222 403 222 371 c 0xb540
 222 306 516 382 516 199 c 0
 516 83 440 -10 240 -10 c 2
 230 -10 l 2
 87 -10 1 32 1 127 c 0
 1 140 2 155 5 167 c 1
 167 167 l 2
 166 166 166 164 166 163 c 2
 166 156 l 2xb640
 166 120 213 111 245 111 c 0
 264 111 335 112 335 145 c 0xb540
 335 212 44 143 44 322 c 0
 44 465 192 521 313 521 c 2xb580
275 -17 m 1xd580
 296 -17 l 2
 350 -17 406 -32 406 -92 c 2
 406 -100 l 2
 406 -180 317 -197 275 -197 c 0
 228 -197 181 -185 154 -161 c 1
 194 -107 l 1
 204 -120 230 -139 274 -139 c 0
 301 -139 319 -129 319 -100 c 0
 319 -85 310 -76 285 -76 c 2
 267 -76 l 1
 275 -17 l 1xd580
EndSplineSet
EndChar

StartChar: scommaaccent
Encoding: 537 537 179
Width: 559
GlyphClass: 2
Flags: MW
HStem: -171 151<181 245 160 372> -10 121<229 230 230 240> 186.53 148.8 358 163<364 373.5 313 528 364 364> 403 118<313 314>
VStem: 1 165<79.5 156> 44 178<338.5 387 338.5 393.5> 335 181<141 178.5> 364 171<358 439.5 363 439.5>
AnchorPoint: "Bottom" 280 0 basechar 0
LayerCount: 2
Fore
SplineSet
313 521 m 2x6b
 321 521 l 2xea80
 426 521 535 482 535 397 c 0
 535 374 527 358 528 358 c 2x7280
 364 358 l 1
 364 363 l 2
 364 396 328 403 300 403 c 0
 281 403 222 403 222 371 c 0x6b
 222 306 516 382 516 199 c 0
 516 83 440 -10 240 -10 c 2
 230 -10 l 2
 87 -10 1 32 1 127 c 0
 1 140 2 155 5 167 c 1
 167 167 l 2
 166 166 166 164 166 163 c 2
 166 156 l 2x6d
 166 120 213 111 245 111 c 0
 264 111 335 112 335 145 c 0
 335 212 44 143 44 322 c 0
 44 465 192 521 313 521 c 2x6b
355 -139 m 1
 311 -250 l 1
 217 -250 l 1
 245 -171 l 1
 160 -171 l 1
 181 -20 l 1
 372 -20 l 1
 355 -139 l 1
EndSplineSet
EndChar

StartChar: germandbls
Encoding: 223 223 180
Width: 652
GlyphClass: 2
Flags: MW
HStem: 0 148<301 329 329 343 280 329> 321 122<342 353 325 369> 369 142<56 98 36 118> 579 149<371 405>
VStem: 423 195<221 268.5> 444 194<532.5 537.5>
LayerCount: 2
Fore
SplineSet
410 728 m 0xb4
 518 728 638 686 638 569 c 0xd4
 638 496 593 422 521 395 c 1
 521 390 l 1
 581 367 618 309 618 242 c 0
 618 98 507 0 343 0 c 2
 280 0 l 1
 301 148 l 1
 329 148 l 2
 377 148 423 195 423 247 c 0
 423 290 394 321 353 321 c 2
 325 321 l 1
 342 443 l 1xd8
 369 443 l 2xd4
 406 443 444 477 444 521 c 0
 444 554 421 579 389 579 c 0
 353 579 321 550 316 511 c 2
 235 -66 l 1
 37 -66 l 1
 98 369 l 1
 36 369 l 1
 56 511 l 1
 118 511 l 1
 145 663 283 728 410 728 c 0xb4
EndSplineSet
EndChar

StartChar: t
Encoding: 116 116 181
Width: 419
GlyphClass: 2
Flags: MW
HStem: -11 122<169.5 316.5> 369 142<54 90 34 110 308 408>
VStem: 54 205<59 164>
AnchorPoint: "Bottom" 210 0 basechar 0
LayerCount: 2
Fore
SplineSet
308 511 m 1
 428 511 l 1
 408 369 l 1
 288 369 l 1
 259 173 259 167 259 161 c 0
 259 118 280 111 309 111 c 0
 324 111 355 116 372 123 c 1
 356 11 l 1
 322 -2 253 -11 219 -11 c 0
 120 -11 54 16 54 102 c 0
 54 124 55 120 90 369 c 1
 34 369 l 1
 54 511 l 1
 110 511 l 1
 133 674 l 1
 342 674 l 1
 308 511 l 1
EndSplineSet
EndChar

StartChar: tcaron
Encoding: 357 357 182
Width: 419
GlyphClass: 2
Flags: MW
HStem: -11 122<169.5 316.5> 338 173 369 142<54 90 34 110 308 408> 503 8 503 183<489 547 463 680>
VStem: 54 205<59 164>
AnchorPoint: "Bottom" 210 0 basechar 0
LayerCount: 2
Fore
SplineSet
657 525 m 1x24
 581 338 l 1
 487 338 l 1x44
 547 503 l 1
 463 503 l 1x14
 489 686 l 1
 680 686 l 1x0c
 657 525 l 1x24
308 511 m 1xa4
 428 511 l 1
 408 369 l 1
 288 369 l 1
 259 173 259 167 259 161 c 0
 259 118 280 111 309 111 c 0
 324 111 355 116 372 123 c 1
 356 11 l 1
 322 -2 253 -11 219 -11 c 0
 120 -11 54 16 54 102 c 0
 54 124 55 120 90 369 c 1
 34 369 l 1
 54 511 l 1
 110 511 l 1
 133 674 l 1
 342 674 l 1
 308 511 l 1xa4
EndSplineSet
EndChar

StartChar: tcedilla
Encoding: 355 355 183
Width: 419
GlyphClass: 2
Flags: MW
HStem: -197 58<182 217.5 182 226> -76 59<205 215 197 226> -11 122<169.5 316.5> 369 142<54 90 34 110 308 408>
VStem: 54 205<59 164> 249 87<-114.5 -100 -100 -92.5>
AnchorPoint: "Bottom" 210 0 basechar 0
LayerCount: 2
Fore
SplineSet
308 511 m 1xd8
 428 511 l 1
 408 369 l 1
 288 369 l 1
 259 173 259 167 259 161 c 0
 259 118 280 111 309 111 c 0
 324 111 355 116 372 123 c 1
 356 11 l 1
 322 -2 253 -11 219 -11 c 0xb8
 120 -11 54 16 54 102 c 0
 54 124 55 120 90 369 c 1
 34 369 l 1
 54 511 l 1
 110 511 l 1
 133 674 l 1
 342 674 l 1
 308 511 l 1xd8
205 -17 m 1xd4
 226 -17 l 2
 280 -17 336 -32 336 -92 c 2
 336 -100 l 2
 336 -180 247 -197 205 -197 c 0
 158 -197 111 -185 84 -161 c 1
 124 -107 l 1
 134 -120 160 -139 204 -139 c 0
 231 -139 249 -129 249 -100 c 0
 249 -85 240 -76 215 -76 c 2
 197 -76 l 1
 205 -17 l 1xd4
EndSplineSet
EndChar

StartChar: tcommaaccent
Encoding: 539 539 184
Width: 419
GlyphClass: 2
Flags: MW
HStem: -171 151<111 175 90 302> -11 122<169.5 316.5> 369 142<54 90 34 110 308 408>
VStem: 54 205<59 164>
AnchorPoint: "Bottom" 210 0 basechar 0
LayerCount: 2
Fore
SplineSet
308 511 m 1
 428 511 l 1
 408 369 l 1
 288 369 l 1
 259 173 259 167 259 161 c 0
 259 118 280 111 309 111 c 0
 324 111 355 116 372 123 c 1
 356 11 l 1
 322 -2 253 -11 219 -11 c 0xf0
 120 -11 54 16 54 102 c 0
 54 124 55 120 90 369 c 1
 34 369 l 1
 54 511 l 1
 110 511 l 1
 133 674 l 1
 342 674 l 1
 308 511 l 1
285 -139 m 1
 241 -250 l 1
 147 -250 l 1
 175 -171 l 1
 90 -171 l 1
 111 -20 l 1
 302 -20 l 1xb0
 285 -139 l 1
EndSplineSet
EndChar

StartChar: u
Encoding: 117 117 185
Width: 627
GlyphClass: 2
Flags: MW
HStem: -10 121<426.5 560> 491 20G<77 275 275 275 381 579 579 579>
VStem: 24 566<120 120 120 137.5>
LayerCount: 2
Fore
SplineSet
381 511 m 1
 579 511 l 1
 553 336 527 158 527 140 c 0
 527 120 541 111 554 111 c 0
 566 111 576 114 590 120 c 1
 575 13 l 1
 554 0 521 -10 471 -10 c 0
 382 -10 346 20 335 71 c 1
 317 48 264 -10 168 -10 c 0
 72 -10 24 46 24 119 c 0
 24 156 49 338 77 511 c 1
 275 511 l 1
 252 352 l 2
 239 272 229 188 229 181 c 0
 229 153 244 131 275 131 c 0
 310 131 331 158 336 191 c 2
 381 511 l 1
EndSplineSet
EndChar

StartChar: uacute
Encoding: 250 250 186
Width: 627
GlyphClass: 2
Flags: MW
HStem: -10 121<426.5 560> 491 20G<77 275 275 275 381 579 579 579> 575 145<379 385 267 530>
VStem: 24 566<120 120 120 137.5>
LayerCount: 2
Fore
SplineSet
531 717 m 1
 385 575 l 1
 267 575 l 1
 379 720 l 1
 530 720 l 1
 531 717 l 1
381 511 m 1
 579 511 l 1
 553 336 527 158 527 140 c 0
 527 120 541 111 554 111 c 0
 566 111 576 114 590 120 c 1
 575 13 l 1
 554 0 521 -10 471 -10 c 0
 382 -10 346 20 335 71 c 1
 317 48 264 -10 168 -10 c 0
 72 -10 24 46 24 119 c 0
 24 156 49 338 77 511 c 1
 275 511 l 1
 252 352 l 2
 239 272 229 188 229 181 c 0
 229 153 244 131 275 131 c 0
 310 131 331 158 336 191 c 2
 381 511 l 1
EndSplineSet
EndChar

StartChar: ucircumflex
Encoding: 251 251 187
Width: 627
GlyphClass: 2
Flags: MW
HStem: -10 121<426.5 560> 491 20G<77 275 275 275 381 579 579 579> 575 145<135 423 411 423 295 541 411 411> 652 68<348 348>
VStem: 24 566<120 120 120 137.5>
LayerCount: 2
Fore
SplineSet
541 575 m 1xe8
 411 575 l 1xe8
 348 652 l 1xd8
 263 575 l 1
 135 575 l 1
 295 720 l 1
 423 720 l 1
 541 575 l 1xe8
381 511 m 1
 579 511 l 1
 553 336 527 158 527 140 c 0
 527 120 541 111 554 111 c 0
 566 111 576 114 590 120 c 1
 575 13 l 1
 554 0 521 -10 471 -10 c 0
 382 -10 346 20 335 71 c 1
 317 48 264 -10 168 -10 c 0
 72 -10 24 46 24 119 c 0
 24 156 49 338 77 511 c 1
 275 511 l 1
 252 352 l 2
 239 272 229 188 229 181 c 0
 229 153 244 131 275 131 c 0
 310 131 331 158 336 191 c 2
 381 511 l 1
EndSplineSet
EndChar

StartChar: udieresis
Encoding: 252 252 188
Width: 627
GlyphClass: 2
Flags: MW
HStem: -10 121<426.5 560> 491 20G<77 275 275 275 381 579 579 579> 573 147<170 301 149 322 170 369 390 521>
VStem: 24 566<120 120 120 137.5>
LayerCount: 2
Fore
SplineSet
301 573 m 1
 149 573 l 1
 170 720 l 1
 322 720 l 1
 301 573 l 1
521 573 m 1
 369 573 l 1
 390 720 l 1
 542 720 l 1
 521 573 l 1
381 511 m 1
 579 511 l 1
 553 336 527 158 527 140 c 0
 527 120 541 111 554 111 c 0
 566 111 576 114 590 120 c 1
 575 13 l 1
 554 0 521 -10 471 -10 c 0
 382 -10 346 20 335 71 c 1
 317 48 264 -10 168 -10 c 0
 72 -10 24 46 24 119 c 0
 24 156 49 338 77 511 c 1
 275 511 l 1
 252 352 l 2
 239 272 229 188 229 181 c 0
 229 153 244 131 275 131 c 0
 310 131 331 158 336 191 c 2
 381 511 l 1
EndSplineSet
EndChar

StartChar: ugrave
Encoding: 249 249 189
Width: 627
GlyphClass: 2
Flags: MW
HStem: -10 121<426.5 560> 491 20G<77 275 275 275 381 579 579 579> 575 145<275 323 172 393 275 275>
VStem: 24 566<120 120 120 137.5>
LayerCount: 2
Fore
SplineSet
393 575 m 1
 275 575 l 1
 169 717 l 1
 172 720 l 1
 323 720 l 1
 393 575 l 1
381 511 m 1
 579 511 l 1
 553 336 527 158 527 140 c 0
 527 120 541 111 554 111 c 0
 566 111 576 114 590 120 c 1
 575 13 l 1
 554 0 521 -10 471 -10 c 0
 382 -10 346 20 335 71 c 1
 317 48 264 -10 168 -10 c 0
 72 -10 24 46 24 119 c 0
 24 156 49 338 77 511 c 1
 275 511 l 1
 252 352 l 2
 239 272 229 188 229 181 c 0
 229 153 244 131 275 131 c 0
 310 131 331 158 336 191 c 2
 381 511 l 1
EndSplineSet
EndChar

StartChar: uhungarumlaut
Encoding: 369 369 190
Width: 627
GlyphClass: 2
Flags: MW
HStem: -10 121<426.5 560> 491 20G<77 275 275 275 381 579 579 579> 575 145<264 270 152 415 379 379 379 415 491 497>
VStem: 24 619<82.5 717>
LayerCount: 2
Fore
SplineSet
416 717 m 1
 270 575 l 1
 152 575 l 1
 264 720 l 1
 415 720 l 1
 416 717 l 1
643 717 m 1
 497 575 l 1
 379 575 l 1
 491 720 l 1
 642 720 l 1
 643 717 l 1
381 511 m 1
 579 511 l 1
 553 336 527 158 527 140 c 0
 527 120 541 111 554 111 c 0
 566 111 576 114 590 120 c 1
 575 13 l 1
 554 0 521 -10 471 -10 c 0
 382 -10 346 20 335 71 c 1
 317 48 264 -10 168 -10 c 0
 72 -10 24 46 24 119 c 0
 24 156 49 338 77 511 c 1
 275 511 l 1
 252 352 l 2
 239 272 229 188 229 181 c 0
 229 153 244 131 275 131 c 0
 310 131 331 158 336 191 c 2
 381 511 l 1
EndSplineSet
EndChar

StartChar: umacron
Encoding: 363 363 191
Width: 627
GlyphClass: 2
Flags: MW
HStem: -10 121<426.5 560> 491 20G<77 275 275 275 381 579 579 579> 662 74<179 497 179 497>
VStem: 179 318<662 736 662 736>
LayerCount: 2
Fore
SplineSet
497 662 m 1
 179 662 l 1
 179 736 l 1
 497 736 l 1
 497 662 l 1
381 511 m 1
 579 511 l 1
 553 336 527 158 527 140 c 0
 527 120 541 111 554 111 c 0
 566 111 576 114 590 120 c 1
 575 13 l 1
 554 0 521 -10 471 -10 c 0
 382 -10 346 20 335 71 c 1
 317 48 264 -10 168 -10 c 0
 72 -10 24 46 24 119 c 0
 24 156 49 338 77 511 c 1
 275 511 l 1
 252 352 l 2
 239 272 229 188 229 181 c 0
 229 153 244 131 275 131 c 0
 310 131 331 158 336 191 c 2
 381 511 l 1
EndSplineSet
EndChar

StartChar: uogonek
Encoding: 371 371 192
Width: 627
GlyphClass: 2
Flags: MW
HStem: -143 53<494.5 559.5> -20 20G<546 564 564 564> -10 141<120 292.5 259.5 471> 491 20G<77 275 275 275 381 579 579 579>
VStem: 429 79<-72.5 -66.5>
LayerCount: 2
Fore
SplineSet
617 -76 m 1xd8
 624 -119 l 1
 589 -135 552 -143 516 -143 c 0
 473 -143 429 -128 429 -83 c 0
 429 -50 452 -28 478 -10 c 1
 471 -10 l 2
 382 -10 346 20 335 71 c 1
 317 48 264 -10 168 -10 c 0
 72 -10 24 46 24 119 c 0
 24 156 49 338 77 511 c 1
 275 511 l 1
 252 352 l 2
 239 272 229 188 229 181 c 0
 229 153 244 131 275 131 c 0
 310 131 331 158 336 191 c 2xb8
 381 511 l 1
 579 511 l 1
 553 336 527 158 527 140 c 0
 527 120 541 111 554 111 c 0
 566 111 576 114 590 120 c 1
 575 13 l 1
 567 8 558 4 546 0 c 1
 564 0 l 1
 541 -13 508 -31 508 -62 c 0
 508 -83 529 -90 548 -90 c 0
 571 -90 594 -84 617 -76 c 1xd8
EndSplineSet
EndChar

StartChar: uring
Encoding: 367 367 193
Width: 627
GlyphClass: 2
Flags: MW
HStem: -10 121<426.5 560> 491 20G<77 275 275 275 381 579 579 579> 545 65<314.5 333.5 314.5 346> 680 66<321.5 342.5>
VStem: 226 67<631.5 651.5 631.5 663> 364 66<635.5 658.5>
LayerCount: 2
Fore
SplineSet
343 746 m 0
 394 746 430 709 430 660 c 0
 430 596 378 545 314 545 c 0
 263 545 226 581 226 632 c 0
 226 694 280 746 343 746 c 0
333 680 m 0
 310 680 293 663 293 640 c 0
 293 623 305 610 324 610 c 0
 343 610 364 622 364 649 c 0
 364 668 352 680 333 680 c 0
381 511 m 1
 579 511 l 1
 553 336 527 158 527 140 c 0
 527 120 541 111 554 111 c 0
 566 111 576 114 590 120 c 1
 575 13 l 1
 554 0 521 -10 471 -10 c 0
 382 -10 346 20 335 71 c 1
 317 48 264 -10 168 -10 c 0
 72 -10 24 46 24 119 c 0
 24 156 49 338 77 511 c 1
 275 511 l 1
 252 352 l 2
 239 272 229 188 229 181 c 0
 229 153 244 131 275 131 c 0
 310 131 331 158 336 191 c 2
 381 511 l 1
EndSplineSet
EndChar

StartChar: v
Encoding: 118 118 194
Width: 558
GlyphClass: 2
Flags: MW
HStem: 0 219<272 279 272 350 121 279> 491 20G<27 238 238 238 395 588 588 588>
VStem: 27 561<511 511>
LayerCount: 2
Fore
SplineSet
350 0 m 1
 121 0 l 1
 27 511 l 1
 238 511 l 1
 272 219 l 1
 279 219 l 1
 395 511 l 1
 588 511 l 1
 350 0 l 1
EndSplineSet
EndChar

StartChar: w
Encoding: 119 119 195
Width: 855
GlyphClass: 2
Flags: MW
HStem: 0 253<260 267 260 335 107 267 588 596 260 440> 491 20G<33 239 239 239 364 564 564 564 689 881 881 881>
VStem: 33 848<511 511>
LayerCount: 2
Fore
SplineSet
664 0 m 1
 440 0 l 1
 421 213 l 1
 413 213 l 1
 335 0 l 1
 107 0 l 1
 33 511 l 1
 239 511 l 1
 260 253 l 1
 267 253 l 1
 364 511 l 1
 564 511 l 1
 588 253 l 1
 596 253 l 1
 689 511 l 1
 881 511 l 1
 664 0 l 1
EndSplineSet
EndChar

StartChar: x
Encoding: 120 120 196
Width: 583
GlyphClass: 2
Flags: MW
HStem: 491 20G<40 267 267 267 395 608 608 608>
VStem: -48 656<0 511>
LayerCount: 2
Fore
SplineSet
418 265 m 1
 548 0 l 1
 321 0 l 1
 265 143 l 1
 261 143 l 1
 164 0 l 1
 -48 0 l 1
 159 270 l 1
 40 511 l 1
 267 511 l 1
 313 393 l 1
 317 393 l 1
 395 511 l 1
 608 511 l 1
 418 265 l 1
EndSplineSet
EndChar

StartChar: y
Encoding: 121 121 197
Width: 552
GlyphClass: 2
Flags: MW
HStem: -187 130<42 86.5 42 122> 491 20G<26 237 237 237 391 586 586 586>
VStem: -34 620
LayerCount: 2
Fore
SplineSet
586 511 m 1
 347 36 l 2
 283 -91 183 -187 61 -187 c 0
 18 -187 -15 -183 -34 -172 c 1
 -17 -43 l 1
 -4 -50 28 -57 56 -57 c 0
 117 -57 136 -10 144 15 c 1
 26 511 l 1
 237 511 l 1
 278 246 l 1
 286 246 l 1
 391 511 l 1
 586 511 l 1
EndSplineSet
EndChar

StartChar: yacute
Encoding: 253 253 198
Width: 552
GlyphClass: 2
Flags: MW
HStem: -187 130<42 86.5 42 122> 491 20G<26 237 237 237 391 586 586 586> 575 145<368 374 256 519>
VStem: -34 620
LayerCount: 2
Fore
SplineSet
520 717 m 1
 374 575 l 1
 256 575 l 1
 368 720 l 1
 519 720 l 1
 520 717 l 1
586 511 m 1
 347 36 l 2
 283 -91 183 -187 61 -187 c 0
 18 -187 -15 -183 -34 -172 c 1
 -17 -43 l 1
 -4 -50 28 -57 56 -57 c 0
 117 -57 136 -10 144 15 c 1
 26 511 l 1
 237 511 l 1
 278 246 l 1
 286 246 l 1
 391 511 l 1
 586 511 l 1
EndSplineSet
EndChar

StartChar: ydieresis
Encoding: 255 255 199
Width: 552
GlyphClass: 2
Flags: MW
HStem: -187 130<42 86.5 42 122> 491 20G<26 237 237 237 391 586 586 586> 573 147<148 279 127 300 148 347 368 499>
VStem: -34 620
LayerCount: 2
Fore
SplineSet
279 573 m 1
 127 573 l 1
 148 720 l 1
 300 720 l 1
 279 573 l 1
499 573 m 1
 347 573 l 1
 368 720 l 1
 520 720 l 1
 499 573 l 1
586 511 m 1
 347 36 l 2
 283 -91 183 -187 61 -187 c 0
 18 -187 -15 -183 -34 -172 c 1
 -17 -43 l 1
 -4 -50 28 -57 56 -57 c 0
 117 -57 136 -10 144 15 c 1
 26 511 l 1
 237 511 l 1
 278 246 l 1
 286 246 l 1
 391 511 l 1
 586 511 l 1
EndSplineSet
EndChar

StartChar: z
Encoding: 122 122 200
Width: 497
GlyphClass: 2
Flags: MW
HStem: 0 124<253 433> 387 124<63 223 46 496>
VStem: -18 514<0 511>
LayerCount: 2
Fore
SplineSet
488 451 m 1
 253 124 l 1
 450 124 l 1
 433 0 l 1
 -18 0 l 1
 -10 63 l 1
 223 387 l 1
 46 387 l 1
 63 511 l 1
 496 511 l 1
 488 451 l 1
EndSplineSet
EndChar

StartChar: zacute
Encoding: 378 378 201
Width: 497
GlyphClass: 2
Flags: MW
HStem: 0 124<253 433> 387 124<63 223 46 496> 575 145<289 295 177 440>
VStem: -18 514<0 511>
LayerCount: 2
Fore
SplineSet
441 717 m 1
 295 575 l 1
 177 575 l 1
 289 720 l 1
 440 720 l 1
 441 717 l 1
488 451 m 1
 253 124 l 1
 450 124 l 1
 433 0 l 1
 -18 0 l 1
 -10 63 l 1
 223 387 l 1
 46 387 l 1
 63 511 l 1
 496 511 l 1
 488 451 l 1
EndSplineSet
EndChar

StartChar: zcaron
Encoding: 382 382 202
Width: 497
GlyphClass: 2
Flags: MW
HStem: 0 124<253 433> 387 124<63 223 46 496> 575 145<223 235 105 351 223 223>
VStem: -18 529
LayerCount: 2
Fore
SplineSet
351 575 m 1
 223 575 l 1
 105 720 l 1
 235 720 l 1
 298 643 l 1
 383 720 l 1
 511 720 l 1
 351 575 l 1
488 451 m 1
 253 124 l 1
 450 124 l 1
 433 0 l 1
 -18 0 l 1
 -10 63 l 1
 223 387 l 1
 46 387 l 1
 63 511 l 1
 496 511 l 1
 488 451 l 1
EndSplineSet
EndChar

StartChar: zdotaccent
Encoding: 380 380 203
Width: 497
GlyphClass: 2
Flags: MW
HStem: 0 124<253 433> 387 124<63 223 46 496> 604 132<257.5 278.5>
VStem: 202 134<659 680.5>
LayerCount: 2
Fore
SplineSet
278 736 m 0
 313 736 336 711 336 679 c 0
 336 639 299 604 258 604 c 0
 226 604 202 628 202 660 c 0
 202 701 237 736 278 736 c 0
488 451 m 1
 253 124 l 1
 450 124 l 1
 433 0 l 1
 -18 0 l 1
 -10 63 l 1
 223 387 l 1
 46 387 l 1
 63 511 l 1
 496 511 l 1
 488 451 l 1
EndSplineSet
EndChar

StartChar: fi
Encoding: 64257 64257 204
Width: 702
GlyphClass: 3
Flags: MW
HStem: -187 122<-26.5 90> 369 142<56 100 36 120 318 418> 577 143<496 713 516 693> 606 122<281.5 397.5> 708 20G<281.5 351>
VStem: -94 807
LayerCount: 2
Fore
SplineSet
334 728 m 0xd4
 368 728 433 722 464 706 c 1x4c
 449 596 l 1
 432 601 407 606 388 606 c 0
 325 606 326 559 318 511 c 1
 438 511 l 1
 418 369 l 1
 298 369 l 1
 243 -26 l 2
 228 -136 143 -187 37 -187 c 0
 1 -187 -62 -181 -94 -165 c 1
 -78 -53 l 1
 -62 -60 -35 -65 -18 -65 c 0
 26 -65 42 -36 49 4 c 2
 100 369 l 1
 36 369 l 1
 56 511 l 1
 120 511 l 1
 129 577 l 2
 144 689 229 728 334 728 c 0xd4
693 577 m 1x64
 496 577 l 1
 516 720 l 1
 713 720 l 1
 693 577 l 1x64
612 0 m 1
 416 0 l 1
 487 511 l 1
 684 511 l 1
 612 0 l 1
EndSplineSet
Ligature2: "'liga' Standard Ligatures lookup 4 subtable" f i
EndChar

StartChar: fl
Encoding: 64258 64258 205
Width: 704
GlyphClass: 3
Flags: MW
HStem: -187 122<-26.5 90> 369 142<56 100 36 120 318 418> 606 122<281.5 397.5> 700 20G<516 714 714 714> 708 20G<281.5 351>
VStem: -94 808
LayerCount: 2
Fore
SplineSet
334 728 m 0xe4
 368 728 433 722 464 706 c 1xcc
 449 596 l 1
 432 601 407 606 388 606 c 0
 325 606 326 559 318 511 c 1
 438 511 l 1
 418 369 l 1
 298 369 l 1
 243 -26 l 2
 228 -136 143 -187 37 -187 c 0
 1 -187 -62 -181 -94 -165 c 1
 -78 -53 l 1
 -62 -60 -35 -65 -18 -65 c 0
 26 -65 42 -36 49 4 c 2
 100 369 l 1
 36 369 l 1
 56 511 l 1
 120 511 l 1
 129 577 l 2
 144 689 229 728 334 728 c 0xe4
613 0 m 1
 416 0 l 1
 516 720 l 1
 714 720 l 1xd4
 613 0 l 1
EndSplineSet
Ligature2: "'liga' Standard Ligatures lookup 4 subtable" f l
EndChar

StartChar: ordfeminine
Encoding: 170 170 206
Width: 418
GlyphClass: 2
Flags: MW
HStem: 376 73<128.5 226.5> 621 75<156 246.5> 670 20G<313 403 403 403>
VStem: 63 118<474 484 484 488 474 542>
LayerCount: 2
Fore
SplineSet
208 696 m 0xd0
 240 696 270 681 289 653 c 1
 293 653 l 1xd0
 313 690 l 1
 403 690 l 1xb0
 381 543 l 2
 375 504 371 471 371 465 c 0
 371 454 376 448 387 448 c 0
 395 448 402 452 409 456 c 1
 400 390 l 1
 381 381 357 376 338 376 c 0
 301 376 267 382 256 423 c 1
 235 396 201 376 166 376 c 0
 91 376 63 430 63 498 c 0
 63 586 104 696 208 696 c 0xd0
237 621 m 0
 214 621 197 602 194 578 c 0
 184 512 181 493 181 488 c 2
 181 484 l 2
 181 464 194 449 213 449 c 0
 240 449 253 468 256 491 c 2
 262 534 l 2
 265 557 269 579 269 586 c 0
 269 609 256 621 237 621 c 0
EndSplineSet
EndChar

StartChar: ordmasculine
Encoding: 186 186 207
Width: 395
GlyphClass: 2
Flags: MW
HStem: 378 72<208.5 209 209 218> 624 72<244 254 254 254.5>
VStem: 60 123<476 487.5 476 552> 279 123<584.5 596.5>
LayerCount: 2
Fore
SplineSet
244 696 m 2
 254 696 l 2
 350 696 402 644 402 567 c 0
 402 458 327 378 218 378 c 2
 209 378 l 2
 112 378 60 430 60 507 c 0
 60 597 117 696 244 696 c 2
243 624 m 0
 218 624 199 605 196 582 c 2
 189 536 l 2
 185 513 183 489 183 486 c 0
 183 466 198 450 219 450 c 0
 245 450 263 469 266 492 c 2
 272 536 l 2
 275 559 279 582 279 587 c 0
 279 606 266 624 243 624 c 0
EndSplineSet
EndChar

StartChar: Delta
Encoding: 916 916 208
Width: 635
GlyphClass: 2
Flags: MW
HStem: 0 109<146 442 146 570> 666 20G<305 444 444 444>
VStem: -14 597<0 93>
LayerCount: 2
Fore
SplineSet
583 93 m 1
 570 0 l 1
 -14 0 l 1
 -1 93 l 1
 305 686 l 1
 444 686 l 1
 583 93 l 1
146 109 m 1
 442 109 l 1
 353 525 l 1
 146 109 l 1
EndSplineSet
EndChar

StartChar: Omega
Encoding: 937 937 209
Width: 765
GlyphClass: 2
Flags: MW
HStem: 0 162<18 29 18 300 -4 29> 540 154<410 415 415 420>
VStem: 507 220<448 477.5>
LayerCount: 2
Fore
SplineSet
410 694 m 2
 466 694 l 2
 618 694 727 582 727 436 c 0
 727 422 726 408 724 394 c 2
 718 350 l 2
 707 270 656 202 583 142 c 1
 698 162 l 1
 709 162 l 1
 687 0 l 1
 382 0 l 1
 394 85 l 1
 432 100 463 134 469 177 c 2
 488 308 l 2
 496 375 507 443 507 453 c 0
 507 502 471 540 420 540 c 2
 415 540 l 2
 359 540 309 495 301 440 c 2
 264 177 l 2
 263 174 263 172 263 170 c 2
 263 163 l 2
 263 128 281 98 312 85 c 1
 300 0 l 1
 -4 0 l 1
 18 162 l 1
 29 162 l 1
 138 142 l 1
 89 194 60 251 60 318 c 0
 60 329 61 339 62 350 c 2
 68 394 l 2
 91 560 245 694 410 694 c 2
EndSplineSet
EndChar

StartChar: mu
Encoding: 956 956 210
Width: 650
GlyphClass: 2
Flags: MW
HStem: -10 121<436.5 570> 491 20G<87 285 285 285 391 589 589 589>
VStem: -8 608<-161 120>
LayerCount: 2
Fore
SplineSet
391 511 m 1
 589 511 l 1
 563 336 537 158 537 140 c 0
 537 120 551 111 564 111 c 0
 576 111 586 114 600 120 c 1
 585 13 l 1
 564 0 531 -10 481 -10 c 0
 392 -10 356 20 345 71 c 1
 329 50 283 0 205 -8 c 1
 205 -18 l 2
 205 -33 205 -56 201 -83 c 2
 190 -161 l 1
 -8 -161 l 1
 87 511 l 1
 285 511 l 1
 262 352 l 2
 249 272 239 188 239 181 c 0
 239 153 254 131 285 131 c 0
 320 131 341 158 346 191 c 2
 391 511 l 1
EndSplineSet
EndChar

StartChar: pi
Encoding: 960 960 211
Width: 718
GlyphClass: 2
Flags: MW
HStem: 386 125<127.5 740 340 438 340 340 631 709 631 631>
VStem: 396 193<37.5 53 29.5 63>
LayerCount: 2
Fore
SplineSet
709 386 m 1
 631 386 l 1
 600 165 l 2
 593 113 589 69 589 37 c 0
 589 22 590 11 591 0 c 1
 404 0 l 1
 397 8 396 26 396 49 c 0
 396 77 398 114 405 153 c 2
 438 386 l 1
 340 386 l 1
 319 269 267 80 219 0 c 1
 31 0 l 1
 79 105 135 277 151 386 c 1
 104 386 65 383 34 376 c 1
 34 475 l 1
 65 498 133 511 249 511 c 2
 740 511 l 1
 709 386 l 1
EndSplineSet
EndChar

StartChar: zero
Encoding: 48 48 212
Width: 615
Flags: MW
HStem: -10 145<180.5 311 266.5 288> 552 144<342 363.5>
VStem: 25 197<182.5 204.5 182.5 210.5> 25 579<144.5 541.5> 409 195<484 503.5>
LayerCount: 2
Fore
SplineSet
342 696 m 2xd0
 387 696 l 2
 513 696 604 603 604 480 c 0
 603 469 604 459 602 446 c 2
 573 240 l 2
 553 101 447 -10 288 -10 c 2
 243 -10 l 2
 118 -10 25 84 25 205 c 0
 25 216 26 228 28 240 c 2
 57 446 l 2xe8
 78 598 203 696 342 696 c 2xd0
345 552 m 0
 302 552 267 529 259 472 c 2
 223 215 l 2
 222 212 222 207 222 202 c 0
 222 163 248 135 285 135 c 0
 337 135 366 171 372 215 c 2
 409 484 l 1
 409 523 382 552 345 552 c 0
EndSplineSet
EndChar

StartChar: one
Encoding: 49 49 213
Width: 615
Flags: MW
HStem: 0 153<54 206 402 527 33 206> 473 115<115 115 115 251 99 115> 676 20G<411 478 478 478>
VStem: 33 515<0 153>
LayerCount: 2
Fore
SplineSet
402 153 m 1
 548 153 l 1
 527 0 l 1
 33 0 l 1
 54 153 l 1
 206 153 l 1
 251 473 l 1
 99 473 l 1
 115 588 l 1
 205 593 331 645 411 696 c 1
 478 696 l 1
 402 153 l 1
EndSplineSet
Substitution2: "'sups' Superscript lookup 1 subtable" onesuperior
Substitution2: "'aalt' Access All Alternates lookup 0 subtable" onesuperior
EndChar

StartChar: two
Encoding: 50 50 214
Width: 615
Flags: MW
HStem: 0 168<290 530> 540 156<299.5 381 319 381>
VStem: 393 204<444.5 496.5>
LayerCount: 2
Fore
SplineSet
350 696 m 2
 381 696 l 2
 516 696 597 620 597 508 c 0
 597 329 427 256 290 168 c 1
 553 168 l 1
 530 0 l 1
 -4 0 l 1
 1 36 l 2
 11 111 36 161 104 209 c 0
 355 388 393 410 393 479 c 0
 393 514 368 540 332 540 c 2
 319 540 l 2
 280 540 246 510 240 470 c 2
 236 442 l 1
 60 442 l 1
 71 597 187 696 350 696 c 2
EndSplineSet
Substitution2: "'sups' Superscript lookup 1 subtable" twosuperior
Substitution2: "'aalt' Access All Alternates lookup 0 subtable" twosuperior
EndChar

StartChar: three
Encoding: 51 51 215
Width: 615
Flags: MW
HStem: -10 149<162.5 284 257 282> 289 123<228 315 211 316> 547 149<297.5 381 317 381>
VStem: 7 179<112.5 198.5> 376 196<203 250.5> 396 200<493 507.5>
LayerCount: 2
Fore
SplineSet
351 696 m 2xf8
 381 696 l 2
 514 696 596 623 596 532 c 0xf4
 596 454 544 385 479 359 c 1
 539 336 572 289 572 221 c 0
 572 72 440 -10 282 -10 c 2
 240 -10 l 2
 85 -10 7 64 7 161 c 0
 7 172 8 181 9 192 c 2
 12 209 l 1
 187 209 l 2
 186 206 186 201 186 196 c 0
 186 163 206 139 257 139 c 2
 284 139 l 2
 341 139 376 175 376 231 c 0
 376 270 350 289 315 289 c 2xf8
 211 289 l 1
 228 412 l 1
 316 412 l 2
 354 412 396 437 396 492 c 0
 396 523 371 547 335 547 c 2
 317 547 l 2xf4
 278 547 243 519 238 484 c 1
 71 484 l 1
 71 608 198 696 351 696 c 2xf8
EndSplineSet
Substitution2: "'sups' Superscript lookup 1 subtable" threesuperior
Substitution2: "'aalt' Access All Alternates lookup 0 subtable" threesuperior
EndChar

StartChar: four
Encoding: 52 52 216
Width: 615
Flags: MW
HStem: 151 147<152 282 490 568> 676 20G<234 411 411 411>
VStem: 3 585<151 298>
LayerCount: 2
Fore
SplineSet
234 696 m 1
 411 696 l 1
 383 591 235 381 152 298 c 1
 302 298 l 1
 317 400 l 1
 358 449 432 573 454 630 c 1
 537 630 l 1
 490 298 l 1
 588 298 l 1
 568 151 l 1
 470 151 l 1
 449 0 l 1
 261 0 l 1
 282 151 l 1
 3 151 l 1
 23 300 l 1
 83 388 202 599 234 696 c 1
EndSplineSet
EndChar

StartChar: five
Encoding: 53 53 217
Width: 615
Flags: MW
HStem: -10 154<173 281 264 277> 315 144<269.5 440 291 440> 516 170<269 560 269 269>
VStem: 17 177<193.5 208 208 210.5> 375 198<212.5 265.5>
LayerCount: 2
Fore
SplineSet
560 516 m 1
 269 516 l 1
 246 414 l 1
 271 432 314 459 380 459 c 0
 500 459 573 389 573 269 c 0
 573 105 441 -10 277 -10 c 2
 247 -10 l 2
 99 -10 17 77 17 191 c 2
 17 208 l 2
 17 213 18 219 19 224 c 1
 195 224 l 2
 194 221 194 218 194 213 c 0
 194 174 224 144 264 144 c 2
 281 144 l 2
 325 144 375 179 375 246 c 0
 375 285 345 315 305 315 c 2
 291 315 l 2
 248 315 229 289 215 281 c 1
 61 303 l 1
 143 686 l 1
 583 686 l 1
 560 516 l 1
EndSplineSet
EndChar

StartChar: six
Encoding: 54 54 218
Width: 615
Flags: MW
HStem: -10 140<189 293 255 293> 321 116<293 436.5 313 436.5> 546 150<326.5 382 347 382>
VStem: 28 193<176 194 194 199 176 212.5> 385 192<256 276.5> 413.5 180.5
LayerCount: 2
Fore
SplineSet
354 696 m 2xf8
 382 696 l 2
 499 696 594 631 594 505 c 0
 594 492 593 479 591 466 c 1
 413 466 l 1
 414 487 l 2
 413 522 388 546 353 546 c 2
 347 546 l 2xf4
 306 546 266 512 259 471 c 2
 247 385 l 1
 288 422 343 437 380 437 c 0
 493 437 577 379 577 265 c 0
 577 93 437 -10 283 -10 c 2
 255 -10 l 2
 123 -10 28 80 28 205 c 0
 28 220 27 228 59 446 c 0
 78 590 211 696 354 696 c 2xf8
319 321 m 2xf8
 313 321 l 2
 273 321 234 287 228 246 c 2
 222 205 l 2
 221 203 221 201 221 199 c 2
 221 194 l 2
 221 158 248 130 287 130 c 2
 293 130 l 2
 334 130 375 164 378 205 c 2
 385 256 l 1
 385 297 356 321 319 321 c 2xf8
EndSplineSet
EndChar

StartChar: seven
Encoding: 55 55 219
Width: 615
Flags: MW
HStem: 514 172<116 384 92 625>
VStem: 87 538
LayerCount: 2
Fore
SplineSet
625 686 m 1
 612 595 l 1
 476 437 349 263 318 59 c 2
 309 0 l 1
 87 0 l 1
 114 191 250 367 384 514 c 1
 92 514 l 1
 116 686 l 1
 625 686 l 1
EndSplineSet
EndChar

StartChar: eight
Encoding: 56 56 220
Width: 615
Flags: MW
HStem: -10 132<264.5 303 264.5 379.5> 295 108<305 325.5> 566 130<325.5 363.5>
VStem: 21 200<164.5 184.5 164.5 210.5> 87 174<444.5 464.5 444.5 538> 368 196<234 249.5 168 251.5> 406 178<505 522.5>
LayerCount: 2
Fore
SplineSet
363 696 m 0xea
 488 696 584 635 584 524 c 0xea
 584 429 535 386 484 351 c 1
 483 347 l 1
 532 315 564 281 564 218 c 0
 564 118 495 -10 264 -10 c 0
 118 -10 21 49 21 161 c 0xf4
 21 260 75 308 146 347 c 1
 147 351 l 1
 112 380 87 408 87 464 c 0
 87 612 218 696 363 696 c 0xea
345 566 m 0
 306 566 270 535 265 496 c 2
 262 473 l 2
 261 470 261 467 261 462 c 0
 261 427 287 403 323 403 c 0
 361 403 399 434 403 473 c 2
 406 505 l 2
 406 540 382 566 345 566 c 0
307 295 m 0xf4
 268 295 233 264 227 225 c 2
 222 192 l 2
 221 190 221 187 221 182 c 0
 221 147 246 122 283 122 c 0
 323 122 356 153 363 192 c 2
 368 234 l 1
 368 269 344 295 307 295 c 0xf4
EndSplineSet
EndChar

StartChar: nine
Encoding: 57 57 221
Width: 615
Flags: MW
HStem: -10 150<187 281 246 281> 249 116<191.5 315> 556 140<315 373 335 373>
VStem: 34 180<184 187> 50 193<411 431.5 411 502.5> 407 193<491 509.5>
LayerCount: 2
Fore
SplineSet
345 696 m 2xec
 373 696 l 2
 505 696 600 606 600 482 c 0
 600 470 601 458 569 240 c 0
 548 96 433 -10 274 -10 c 2
 246 -10 l 2
 128 -10 34 54 34 181 c 0
 34 193 35 206 37 220 c 1
 215 220 l 2
 214 217 214 215 214 212 c 2
 214 200 l 2
 214 168 240 140 275 140 c 2
 281 140 l 2xf4
 333 140 362 174 369 215 c 2
 381 301 l 1
 340 264 285 249 248 249 c 0
 135 249 50 307 50 421 c 0
 50 584 192 696 345 696 c 2xec
341 556 m 2
 335 556 l 2
 295 556 256 522 250 481 c 2
 245 447 l 2
 245 446 243 434 243 429 c 0
 243 393 270 365 309 365 c 2
 315 365 l 2xec
 355 365 394 399 400 440 c 2
 407 491 l 1
 407 528 378 556 341 556 c 2
EndSplineSet
EndChar

StartChar: fraction
Encoding: 8260 8260 222
Width: 482
Flags: MW
HStem: 666 20G<465 551 551 551>
VStem: -51 602
LayerCount: 2
Fore
SplineSet
38 0 m 1
 -51 0 l 1
 465 686 l 1
 551 686 l 1
 38 0 l 1
EndSplineSet
EndChar

StartChar: onehalf
Encoding: 189 189 223
Width: 765
Flags: MW
HStem: 0 90<567 696> 298 84<574.5 617 585 617> 312 82<48 130 235 301 36 130> 566 62<81 81 81 154 72 81> 666 20G<240 276 276 276 617 703 703 703>
VStem: 444 96 623 111<255.5 276.5>
LayerCount: 2
Fore
SplineSet
235 394 m 1xbe
 313 394 l 1
 301 312 l 1
 36 312 l 1
 48 394 l 1
 130 394 l 1
 154 566 l 1
 72 566 l 1
 81 628 l 1
 130 631 195 659 240 686 c 1
 276 686 l 1
 235 394 l 1xbe
189 0 m 1
 100 0 l 1
 617 686 l 1
 703 686 l 1
 189 0 l 1
600 382 m 2xde
 617 382 l 2
 690 382 734 341 734 280 c 0
 734 182 641 141 567 90 c 1
 708 90 l 1
 696 0 l 1
 409 0 l 1
 411 19 l 2
 415 60 432 85 467 112 c 2
 586 204 l 2
 611 223 623 244 623 267 c 0
 623 286 611 298 592 298 c 2
 585 298 l 2
 564 298 544 282 541 261 c 2
 539 246 l 1
 444 246 l 1
 444 294 480 382 600 382 c 2xde
EndSplineSet
Ligature2: "'frac' Diagonal Fractions lookup 2 subtable" one slash two
EndChar

StartChar: onequarter
Encoding: 188 188 224
Width: 765
Flags: MW
HStem: 81 80<485 555 667 709> 311 82<51 133 238 304 39 133> 565 62<83 83 83 157 75 83> 665 20G<243 279 279 279> 666 20G<620 706 706 706>
VStem: 39 681<161 311>
LayerCount: 2
Fore
SplineSet
192 0 m 1xec
 103 0 l 1
 620 686 l 1
 706 686 l 1
 192 0 l 1xec
238 393 m 1
 316 393 l 1
 304 311 l 1
 39 311 l 1
 51 393 l 1
 133 393 l 1
 157 565 l 1
 75 565 l 1
 83 627 l 1
 133 630 198 658 243 685 c 1
 279 685 l 1xf4
 238 393 l 1
529 375 m 1
 624 375 l 1
 608 317 529 207 485 161 c 1
 566 161 l 1
 574 216 l 1
 595 242 636 309 647 339 c 1
 692 339 l 1
 667 161 l 1
 720 161 l 1
 709 81 l 1
 656 81 l 1
 644 0 l 1
 543 0 l 1
 555 81 l 1
 404 81 l 1
 415 162 l 1
 449 209 510 322 529 375 c 1
EndSplineSet
Ligature2: "'frac' Diagonal Fractions lookup 2 subtable" one slash four
EndChar

StartChar: threequarters
Encoding: 190 190 225
Width: 757
Flags: MW
HStem: 81 80<477 547 659 701> 305 80<127 192 178 191> 470 66<164 209 154 211> 579 114<80 246> 613 80<201.5 246 212 246> 666 20G<612 698 698 698>
VStem: 43 98<371.5 423> 242 105<422.5 449.5> 253 109<582.5 590.5> 541.5 101
LayerCount: 2
Fore
SplineSet
230 693 m 2xeb40
 246 693 l 2
 318 693 362 655 362 604 c 0xeac0
 362 561 333 523 298 508 c 1
 331 495 347 469 347 431 c 0
 347 342 266 305 191 305 c 2
 169 305 l 2
 85 305 43 345 43 398 c 0
 43 402 43 407 46 423 c 1
 141 423 l 1
 141 403 145 385 178 385 c 2
 192 385 l 2
 224 385 242 407 242 438 c 0
 242 461 228 470 209 470 c 2
 154 470 l 1
 164 536 l 1xeb40
 211 536 l 2
 231 536 253 547 253 582 c 0
 253 599 241 613 222 613 c 2
 212 613 l 2xeac0
 191 613 173 598 170 579 c 1
 80 579 l 1xf2c0
 80 648 148 693 230 693 c 2xeb40
185 0 m 1
 96 0 l 1
 612 686 l 1
 698 686 l 1xe740
 185 0 l 1
522 375 m 1
 617 375 l 1
 601 318 522 206 477 161 c 1
 558 161 l 1
 566 216 l 1
 587 242 628 309 639 339 c 1
 684 339 l 1
 659 161 l 1
 712 161 l 1
 701 81 l 1
 648 81 l 1
 637 0 l 1
 536 0 l 1
 547 81 l 1
 396 81 l 1
 408 162 l 1
 440 211 503 322 522 375 c 1
EndSplineSet
Ligature2: "'frac' Diagonal Fractions lookup 2 subtable" three slash four
EndChar

StartChar: onesuperior
Encoding: 185 185 226
Width: 335
Flags: MW
HStem: 422 82<69 151 256 322 57 151> 676 62<102 102 102 175 93 102>
VStem: 57 277<422 504>
LayerCount: 2
Fore
SplineSet
256 504 m 1
 334 504 l 1
 322 422 l 1
 57 422 l 1
 69 504 l 1
 151 504 l 1
 175 676 l 1
 93 676 l 1
 102 738 l 1
 151 741 216 769 261 796 c 1
 297 796 l 1
 256 504 l 1
EndSplineSet
EndChar

StartChar: twosuperior
Encoding: 178 178 227
Width: 369
Flags: MW
HStem: 422 90<214 343> 720 84<221.5 264 232 264>
VStem: 91 96 270 111<677.5 698.5>
LayerCount: 2
Fore
SplineSet
247 804 m 2
 264 804 l 2
 337 804 381 763 381 702 c 0
 381 604 288 563 214 512 c 1
 355 512 l 1
 343 422 l 1
 56 422 l 1
 58 441 l 2
 62 482 79 507 114 534 c 2
 233 626 l 2
 258 645 270 666 270 689 c 0
 270 708 258 720 239 720 c 2
 232 720 l 2
 211 720 191 704 188 683 c 2
 186 668 l 1
 91 668 l 1
 91 716 127 804 247 804 c 2
EndSplineSet
EndChar

StartChar: threesuperior
Encoding: 179 179 228
Width: 354
Flags: MW
HStem: 413 80<136 201 187 200> 578 66<173 218 163 220> 721 80<210.5 255 221 255>
VStem: 52 98<479.5 531> 251 105<530.5 557.5> 262 109<690.5 698.5>
LayerCount: 2
Fore
SplineSet
239 801 m 2xf8
 255 801 l 2
 327 801 371 763 371 712 c 0xf4
 371 669 342 631 307 616 c 1
 340 603 356 577 356 539 c 0
 356 450 275 413 200 413 c 2
 178 413 l 2
 94 413 52 453 52 506 c 0
 52 510 52 515 55 531 c 1
 150 531 l 1
 150 511 154 493 187 493 c 2
 201 493 l 2
 233 493 251 515 251 546 c 0
 251 569 237 578 218 578 c 2
 163 578 l 1
 173 644 l 1xf8
 220 644 l 2
 240 644 262 655 262 690 c 0
 262 707 250 721 231 721 c 2
 221 721 l 2
 200 721 182 706 179 687 c 1xf4
 89 687 l 1
 89 756 157 801 239 801 c 2xf8
EndSplineSet
EndChar

StartChar: asterisk
Encoding: 42 42 229
Width: 506
Flags: MW
HStem: 666 20G<247 367 367 367>
VStem: 247 84<533 686>
LayerCount: 2
Fore
SplineSet
331 533 m 1
 487 593 l 1
 507 483 l 1
 352 448 l 1
 436 335 l 1
 326 265 l 1
 265 396 l 1
 169 265 l 1
 79 335 l 1
 195 448 l 1
 53 483 l 1
 107 593 l 1
 247 533 l 1
 247 686 l 1
 367 686 l 1
 331 533 l 1
EndSplineSet
EndChar

StartChar: backslash
Encoding: 92 92 230
Width: 648
Flags: MW
HStem: 666 20G<68 199 199 199>
VStem: 68 500
LayerCount: 2
Fore
SplineSet
568 -171 m 1
 436 -171 l 1
 68 686 l 1
 199 686 l 1
 568 -171 l 1
EndSplineSet
EndChar

StartChar: periodcentered
Encoding: 183 183 231
Width: 287
Flags: MW
HStem: 197 183<60 226 35 251>
VStem: 35 216<197 380>
LayerCount: 2
Fore
SplineSet
226 197 m 1
 35 197 l 1
 60 380 l 1
 251 380 l 1
 226 197 l 1
EndSplineSet
EndChar

StartChar: bullet
Encoding: 8226 8226 232
Width: 600
Flags: MW
HStem: 494 20G<279 375>
VStem: 134 347<305.5 371>
LayerCount: 2
Fore
SplineSet
331 514 m 0
 419 514 481 450 481 367 c 0
 481 244 372 171 282 171 c 0
 196 171 134 233 134 317 c 0
 134 425 227 514 331 514 c 0
EndSplineSet
EndChar

StartChar: colon
Encoding: 58 58 233
Width: 308
Flags: MW
HStem: 0 183<43 209 18 234> 328 183<89 255 64 280>
VStem: 18 262
LayerCount: 2
Fore
SplineSet
255 328 m 1
 64 328 l 1
 89 511 l 1
 280 511 l 1
 255 328 l 1
209 0 m 1
 18 0 l 1
 43 183 l 1
 234 183 l 1
 209 0 l 1
EndSplineSet
EndChar

StartChar: comma
Encoding: 44 44 234
Width: 286
Flags: MW
HStem: 0 183<33 91 7 224>
VStem: 7 217<0 183>
LayerCount: 2
Fore
SplineSet
201 22 m 1
 125 -165 l 1
 31 -165 l 1
 91 0 l 1
 7 0 l 1
 33 183 l 1
 224 183 l 1
 201 22 l 1
EndSplineSet
EndChar

StartChar: ellipsis
Encoding: 8230 8230 235
Width: 953
Flags: MW
HStem: 0 183<33 199 8 224 33 341 366 532 699 865>
VStem: 8 882<0 183>
LayerCount: 2
Fore
SplineSet
199 0 m 1
 8 0 l 1
 33 183 l 1
 224 183 l 1
 199 0 l 1
532 0 m 1
 341 0 l 1
 366 183 l 1
 557 183 l 1
 532 0 l 1
865 0 m 1
 674 0 l 1
 699 183 l 1
 890 183 l 1
 865 0 l 1
EndSplineSet
EndChar

StartChar: exclam
Encoding: 33 33 236
Width: 315
Flags: MW
HStem: 0 183<51 216 25 242> 666 20G<88 336 336 336>
VStem: 88 127<231 686>
LayerCount: 2
Fore
SplineSet
215 231 m 1
 88 231 l 1
 88 686 l 1
 336 686 l 1
 215 231 l 1
216 0 m 1
 25 0 l 1
 51 183 l 1
 242 183 l 1
 216 0 l 1
EndSplineSet
EndChar

StartChar: exclamdown
Encoding: 161 161 237
Width: 303
Flags: MW
HStem: 328 183<83 248 57 274>
VStem: 83 127<278 278>
LayerCount: 2
Fore
SplineSet
248 328 m 1
 57 328 l 1
 83 511 l 1
 274 511 l 1
 248 328 l 1
210 -177 m 1
 -37 -177 l 1
 83 278 l 1
 210 278 l 1
 210 -177 l 1
EndSplineSet
EndChar

StartChar: numbersign
Encoding: 35 35 238
Width: 661
Flags: MW
HStem: 166 107<24 106 9 146 24 335 24 223 493 582> 394 108<100 191 85 227 570 646> 676 20G<297 416 416 416 525 642 642 642>
VStem: 9 652<166 502>
LayerCount: 2
Fore
SplineSet
570 502 m 1
 661 502 l 1
 646 394 l 1
 536 394 l 1
 493 273 l 1
 597 273 l 1
 582 166 l 1
 451 166 l 1
 392 0 l 1
 276 0 l 1
 335 166 l 1
 223 166 l 1
 165 0 l 1
 48 0 l 1
 106 166 l 1
 9 166 l 1
 24 273 l 1
 146 273 l 1
 191 394 l 1
 85 394 l 1
 100 502 l 1
 227 502 l 1
 297 696 l 1
 416 696 l 1
 345 502 l 1
 455 502 l 1
 525 696 l 1
 642 696 l 1
 570 502 l 1
306 393 m 1
 262 272 l 1
 375 272 l 1
 420 393 l 1
 306 393 l 1
EndSplineSet
EndChar

StartChar: period
Encoding: 46 46 239
Width: 287
Flags: MW
HStem: 0 183<33 199 8 224>
VStem: 8 216<0 183>
LayerCount: 2
Fore
SplineSet
199 0 m 1
 8 0 l 1
 33 183 l 1
 224 183 l 1
 199 0 l 1
EndSplineSet
EndChar

StartChar: question
Encoding: 63 63 240
Width: 583
Flags: MW
HStem: 0 183<191 357 166 382> 447 249<49 370> 558 138<279 370>
VStem: 370 212<498 514.5 419 696>
LayerCount: 2
Fore
SplineSet
332 696 m 2xb0
 370 696 l 2
 485 696 582 621 582 509 c 0
 582 329 382 295 375 240 c 2
 372 218 l 1
 201 218 l 1
 210 277 l 2
 222 359 369 403 370 498 c 0
 370 531 348 558 313 558 c 0xb0
 245 558 238 496 233 447 c 1
 49 447 l 1xd0
 49 460 50 472 52 485 c 0
 72 616 193 696 332 696 c 2xb0
357 0 m 1
 166 0 l 1
 191 183 l 1
 382 183 l 1
 357 0 l 1
EndSplineSet
EndChar

StartChar: questiondown
Encoding: 191 191 241
Width: 578
Flags: MW
HStem: -186 138<142.5 290.5 200 290.5> 328 183<216 382 191 407>
VStem: -12 212<-4.5 60> 337 184<56.5 63 56.5 63>
LayerCount: 2
Fore
SplineSet
382 328 m 1
 191 328 l 1
 216 511 l 1
 407 511 l 1
 382 328 l 1
369 292 m 1
 360 233 l 2
 347 150 200 108 200 12 c 0
 200 -21 222 -48 257 -48 c 0
 324 -48 337 15 337 63 c 1
 521 63 l 1
 521 50 520 38 518 25 c 0
 498 -106 384 -186 238 -186 c 2
 200 -186 l 2
 85 -186 -12 -112 -12 2 c 0
 -12 184 187 212 195 270 c 2
 198 292 l 1
 369 292 l 1
EndSplineSet
EndChar

StartChar: quotedbl
Encoding: 34 34 242
Width: 433
Flags: MW
HStem: 396 290<98 159 98 98 301 301 301 361>
VStem: 71 379<539 686>
LayerCount: 2
Fore
SplineSet
226 539 m 1
 159 396 l 1
 98 396 l 1
 71 539 l 1
 92 686 l 1
 247 686 l 1
 226 539 l 1
429 539 m 1
 361 396 l 1
 301 396 l 1
 274 539 l 1
 295 686 l 1
 450 686 l 1
 429 539 l 1
EndSplineSet
EndChar

StartChar: quotesingle
Encoding: 39 39 243
Width: 230
Flags: MW
HStem: 396 290<98 159 98 98> 666 20G<92 247 247 247>
VStem: 71 176<539 686>
LayerCount: 2
Fore
SplineSet
226 539 m 1x60
 159 396 l 1
 98 396 l 1xa0
 71 539 l 1
 92 686 l 1
 247 686 l 1
 226 539 l 1x60
EndSplineSet
EndChar

StartChar: semicolon
Encoding: 59 59 244
Width: 307
Flags: MW
HStem: 0 183<43 101 17 234> 328 183<89 254 63 280>
VStem: 17 263
LayerCount: 2
Fore
SplineSet
254 328 m 1
 63 328 l 1
 89 511 l 1
 280 511 l 1
 254 328 l 1
211 22 m 1
 135 -165 l 1
 41 -165 l 1
 101 0 l 1
 17 0 l 1
 43 183 l 1
 234 183 l 1
 211 22 l 1
EndSplineSet
EndChar

StartChar: slash
Encoding: 47 47 245
Width: 541
Flags: MW
HStem: 666 20G<446 577 577 577>
VStem: -44 621
LayerCount: 2
Fore
SplineSet
88 -171 m 1
 -44 -171 l 1
 446 686 l 1
 577 686 l 1
 88 -171 l 1
EndSplineSet
EndChar

StartChar: underscore
Encoding: 95 95 246
Width: 662
Flags: MW
HStem: -127 62<30 521 22 530>
VStem: 22 508<-127 -65>
LayerCount: 2
Fore
SplineSet
521 -127 m 1
 22 -127 l 1
 30 -65 l 1
 530 -65 l 1
 521 -127 l 1
EndSplineSet
EndChar

StartChar: braceleft
Encoding: 123 123 247
Width: 342
Flags: MW
HStem: -159 68<252 256> 224 79<22 29.5> 618 68<351.5 365>
VStem: 49 147<-70.5 -46> 81 134<163.5 194.5>
LayerCount: 2
Fore
SplineSet
375 686 m 1xe8
 365 618 l 1
 338 618 291 614 284 577 c 2
 245 371 l 2
 233 306 196 268 129 268 c 1
 128 259 l 1
 188 259 215 228 215 175 c 0xe8
 215 131 196 -22 196 -54 c 0
 196 -87 238 -91 266 -91 c 1
 256 -159 l 1
 175 -159 l 2
 112 -159 49 -130 49 -63 c 0xf0
 49 -29 81 149 81 178 c 0
 81 211 48 224 11 224 c 1
 22 303 l 1
 56 303 101 320 107 360 c 2
 137 574 l 2
 148 651 226 686 294 686 c 2
 375 686 l 1xe8
EndSplineSet
EndChar

StartChar: braceright
Encoding: 125 125 248
Width: 341
Flags: MW
HStem: -159 68<-31 -17.5 -31 39 -41 -17.5> 224 79<304.5 310> 618 68<77 80.5>
VStem: 118 134<334.5 352 334.5 365> 138 146<590 597.5>
LayerCount: 2
Fore
SplineSet
77 686 m 1xa8
 158 686 l 2
 221 686 284 657 284 590 c 0
 283 582 281 555 276 522 c 2xa8
 260 418 l 2
 255 385 253 359 252 352 c 0
 252 317 287 303 322 303 c 1
 310 224 l 1
 274 224 231 209 226 169 c 2
 196 -47 l 2
 185 -124 107 -159 39 -159 c 2
 -41 -159 l 1
 -31 -91 l 1
 -4 -91 43 -87 50 -49 c 2
 88 156 l 2
 100 221 137 259 204 259 c 1
 205 268 l 1
 145 268 118 298 118 351 c 0xf0
 118 379 138 562 138 580 c 0
 138 615 94 618 67 618 c 1
 77 686 l 1xa8
EndSplineSet
EndChar

StartChar: bracketleft
Encoding: 91 91 249
Width: 318
Flags: MW
HStem: -161 83<154 230> 603 83<249 337 249 249>
VStem: -7 356
LayerCount: 2
Fore
SplineSet
337 603 m 1
 249 603 l 1
 154 -78 l 1
 242 -78 l 1
 230 -161 l 1
 -7 -161 l 1
 112 686 l 1
 349 686 l 1
 337 603 l 1
EndSplineSet
EndChar

StartChar: bracketright
Encoding: 93 93 250
Width: 317
Flags: MW
HStem: -161 83<-28 60 -28 197 -40 60> 603 83<79 155 67 316>
VStem: -40 356
LayerCount: 2
Fore
SplineSet
197 -161 m 1
 -40 -161 l 1
 -28 -78 l 1
 60 -78 l 1
 155 603 l 1
 67 603 l 1
 79 686 l 1
 316 686 l 1
 197 -161 l 1
EndSplineSet
EndChar

StartChar: parenleft
Encoding: 40 40 251
Width: 311
Flags: MW
HStem: 666 20G<244 352 352 352>
VStem: 19 156<112 249 102.5 266.5>
LayerCount: 2
Fore
SplineSet
244 686 m 1
 352 686 l 1
 242 528 175 340 175 158 c 0
 175 47 194 -70 233 -158 c 1
 125 -158 l 1
 56 -65 19 50 19 174 c 0
 19 359 103 548 244 686 c 1
EndSplineSet
EndChar

StartChar: parenright
Encoding: 41 41 252
Width: 312
Flags: MW
HStem: 666 20G<71 179 179 179>
VStem: 129 156<277.5 413.5 258 423.5>
LayerCount: 2
Fore
SplineSet
71 686 m 1
 179 686 l 1
 250 591 285 476 285 351 c 0
 285 165 200 -20 60 -158 c 1
 -48 -158 l 1
 60 -5 129 187 129 368 c 0
 129 479 108 598 71 686 c 1
EndSplineSet
EndChar

StartChar: emdash
Encoding: 8212 8212 253
Width: 1015
Flags: MW
HStem: 196 158<60 947 38 970>
VStem: 38 932<196 354>
LayerCount: 2
Fore
SplineSet
947 196 m 1
 38 196 l 1
 60 354 l 1
 970 354 l 1
 947 196 l 1
EndSplineSet
EndChar

StartChar: endash
Encoding: 8211 8211 254
Width: 597
Flags: MW
HStem: 196 158<57 534 35 557>
VStem: 35 522<196 354>
LayerCount: 2
Fore
SplineSet
534 196 m 1
 35 196 l 1
 57 354 l 1
 557 354 l 1
 534 196 l 1
EndSplineSet
EndChar

StartChar: hyphen
Encoding: 45 45 255
Width: 351
Flags: MW
HStem: 196 158<57 288 35 311>
VStem: 35 276<196 354>
LayerCount: 2
Fore
SplineSet
288 196 m 1
 35 196 l 1
 57 354 l 1
 311 354 l 1
 288 196 l 1
EndSplineSet
EndChar

StartChar: softhyphen
Encoding: 173 173 256
Width: 351
Flags: MW
HStem: 196 158<57 288 35 311>
VStem: 35 276<196 354>
LayerCount: 2
Fore
SplineSet
288 196 m 1
 35 196 l 1
 57 354 l 1
 311 354 l 1
 288 196 l 1
EndSplineSet
EndChar

StartChar: guillemetleft
Encoding: 171 171 257
Width: 442
Flags: MW
HStem: 337 174<37 255 146 255 218 218 181 327>
VStem: 37 399<337 511>
LayerCount: 2
Fore
SplineSet
146 337 m 1
 206 163 l 1
 132 163 l 1
 37 337 l 1
 181 511 l 1
 255 511 l 1
 146 337 l 1
327 337 m 1
 387 163 l 1
 313 163 l 1
 218 337 l 1
 362 511 l 1
 436 511 l 1
 327 337 l 1
EndSplineSet
EndChar

StartChar: guillemetright
Encoding: 187 187 258
Width: 443
Flags: MW
HStem: 337 174<129 129 68 238 310 310>
VStem: 19 400<163 337>
LayerCount: 2
Fore
SplineSet
238 337 m 1
 93 163 l 1
 19 163 l 1
 129 337 l 1
 68 511 l 1
 142 511 l 1
 238 337 l 1
419 337 m 1
 274 163 l 1
 200 163 l 1
 310 337 l 1
 249 511 l 1
 323 511 l 1
 419 337 l 1
EndSplineSet
EndChar

StartChar: guilsinglleft
Encoding: 8249 8249 259
Width: 261
Flags: MW
HStem: 491 20G<181 255 255 255>
VStem: 37 218<337 511>
LayerCount: 2
Fore
SplineSet
146 337 m 1
 206 163 l 1
 132 163 l 1
 37 337 l 1
 181 511 l 1
 255 511 l 1
 146 337 l 1
EndSplineSet
EndChar

StartChar: guilsinglright
Encoding: 8250 8250 260
Width: 262
Flags: MW
HStem: 491 20G<68 142 142 142>
VStem: 19 219<163 337>
LayerCount: 2
Fore
SplineSet
238 337 m 1
 93 163 l 1
 19 163 l 1
 129 337 l 1
 68 511 l 1
 142 511 l 1
 238 337 l 1
EndSplineSet
EndChar

StartChar: quotedblbase
Encoding: 8222 8222 261
Width: 534
Flags: MW
HStem: 0 183<33 91 7 224 33 255 281 339>
VStem: 7 465<0 183>
LayerCount: 2
Fore
SplineSet
201 22 m 1
 125 -165 l 1
 31 -165 l 1
 91 0 l 1
 7 0 l 1
 33 183 l 1
 224 183 l 1
 201 22 l 1
449 22 m 1
 373 -165 l 1
 279 -165 l 1
 339 0 l 1
 255 0 l 1
 281 183 l 1
 472 183 l 1
 449 22 l 1
EndSplineSet
EndChar

StartChar: quotedblleft
Encoding: 8220 8220 262
Width: 514
Flags: MW
HStem: 503 183<174 258 174 174 422 422 422 506>
VStem: 70 462<525 686>
LayerCount: 2
Fore
SplineSet
258 503 m 1
 174 503 l 1
 188 338 l 1
 94 338 l 1
 70 525 l 1
 93 686 l 1
 284 686 l 1
 258 503 l 1
506 503 m 1
 422 503 l 1
 436 338 l 1
 342 338 l 1
 318 525 l 1
 341 686 l 1
 532 686 l 1
 506 503 l 1
EndSplineSet
EndChar

StartChar: quotedblright
Encoding: 8221 8221 263
Width: 513
Flags: MW
HStem: 503 183<91 149 65 282 91 313 339 397>
VStem: 65 465<503 686>
LayerCount: 2
Fore
SplineSet
259 525 m 1
 183 338 l 1
 89 338 l 1
 149 503 l 1
 65 503 l 1
 91 686 l 1
 282 686 l 1
 259 525 l 1
507 525 m 1
 431 338 l 1
 337 338 l 1
 397 503 l 1
 313 503 l 1
 339 686 l 1
 530 686 l 1
 507 525 l 1
EndSplineSet
EndChar

StartChar: quoteleft
Encoding: 8216 8216 264
Width: 272
Flags: MW
HStem: 338 183<181 239 48 265> 666 20G<147 241 241 241>
VStem: 48 217<338 521>
LayerCount: 2
Fore
SplineSet
181 521 m 1
 265 521 l 1
 239 338 l 1
 48 338 l 1
 71 499 l 1
 147 686 l 1
 241 686 l 1
 181 521 l 1
EndSplineSet
EndChar

StartChar: quoteright
Encoding: 8217 8217 265
Width: 265
Flags: MW
HStem: 503 183<91 149 65 282>
VStem: 65 217<503 686>
LayerCount: 2
Fore
SplineSet
259 525 m 1
 183 338 l 1
 89 338 l 1
 149 503 l 1
 65 503 l 1
 91 686 l 1
 282 686 l 1
 259 525 l 1
EndSplineSet
EndChar

StartChar: quotesinglbase
Encoding: 8218 8218 266
Width: 286
Flags: MW
HStem: 0 183<33 91 7 224>
VStem: 7 217<0 183>
LayerCount: 2
Fore
SplineSet
201 22 m 1
 125 -165 l 1
 31 -165 l 1
 91 0 l 1
 7 0 l 1
 33 183 l 1
 224 183 l 1
 201 22 l 1
EndSplineSet
EndChar

StartChar: cent
Encoding: 162 162 269
Width: 580
Flags: MW
HStem: -10 207<285.5 322 191 334.5> 486 208<317.5 358.5> 604 90<395 395>
VStem: 35 205<239.5 265 239.5 363.5> 400 168<422 442.5>
LayerCount: 2
Fore
SplineSet
419 694 m 1xd8
 395 604 l 1xb8
 538 585 568 491 568 426 c 0
 568 414 567 402 565 390 c 1
 397 390 l 1
 397 404 400 419 400 425 c 0
 400 460 376 486 341 486 c 0
 294 486 267 455 262 416 c 0
 249 346 240 273 240 257 c 0
 240 222 264 197 307 197 c 0
 362 197 385 236 390 267 c 2
 394 293 l 1
 552 293 l 1
 533 166 446 91 322 78 c 1
 322 -10 l 1
 191 -10 l 1
 218 81 l 1
 93 102 35 191 35 284 c 0
 35 443 122 579 290 603 c 1
 290 694 l 1
 419 694 l 1xd8
EndSplineSet
EndChar

StartChar: currency
Encoding: 164 164 270
Width: 607
Flags: MW
HStem: 91 110<257.5 303.5> 477 110<318.5 364.5>
VStem: 59 121<283.5 333.5> 440 121<347 394>
LayerCount: 2
Fore
SplineSet
600 535 m 1
 536 479 l 1
 552 458 561 422 561 381 c 0
 561 313 537 241 494 197 c 1
 542 141 l 1
 474 81 l 1
 424 139 l 1
 389 108 332 91 275 91 c 0
 219 91 168 108 140 137 c 1
 75 80 l 1
 22 141 l 1
 88 199 l 1
 69 224 59 261 59 302 c 0
 59 365 85 441 128 479 c 1
 78 537 l 1
 150 600 l 1
 199 543 l 1
 232 570 292 587 345 587 c 0
 401 587 452 569 475 545 c 1
 541 603 l 1
 600 535 l 1
330 477 m 0
 249 477 180 402 180 317 c 0
 180 250 224 201 291 201 c 0
 375 201 440 279 440 362 c 0
 440 426 399 477 330 477 c 0
EndSplineSet
EndChar

StartChar: dollar
Encoding: 36 36 271
Width: 608
Flags: MW
HStem: 21 148<301 307.5 239.5 365.5> 469 205<393 580 393 407> 534 223<313 365>
VStem: 16 177<142 224.5> 63 197<450 502.5 450 515.5> 360 202<202.5 252> 408 175<482.5 561.5>
LayerCount: 2
Fore
SplineSet
419 757 m 1xac
 393 674 l 1
 501 666 583 612 583 511 c 0
 583 501 582 487 580 469 c 1xca
 407 469 l 1
 407 475 l 2
 407 478 408 482 408 483 c 0xaa
 408 510 389 534 341 534 c 0
 285 534 260 515 260 490 c 0xac
 260 410 562 452 562 252 c 0
 562 63 430 21 301 21 c 1
 304 -66 l 1
 176 -66 l 1
 203 22 l 1
 98 33 16 90 16 194 c 0
 16 209 15 230 22 246 c 1
 197 246 l 1
 195 238 l 2
 194 231 193 226 193 223 c 0xb4
 193 194 210 169 269 169 c 0
 346 169 360 192 360 213 c 0
 360 291 63 246 63 461 c 0
 63 570 152 660 294 671 c 1
 291 757 l 1
 419 757 l 1xac
EndSplineSet
EndChar

StartChar: euro
Encoding: 8364 8364 272
Width: 597
Flags: MW
HStem: -10 166<319.5 460> 225 92<32 109 19 110 320 453 320 320> 365 92<52 117 39 142 349 473> 532 160<464 505 418.5 507> 672 20G<418.5 505>
VStem: 19 588<225 674>
LayerCount: 2
Fore
SplineSet
477 692 m 0xf4
 533 692 578 683 607 674 c 1xec
 585 514 l 1
 566 522 529 532 485 532 c 0
 443 532 389 518 349 457 c 1
 486 457 l 1
 473 365 l 1
 315 365 l 1
 311 350 308 332 308 317 c 1
 466 317 l 1
 453 225 l 1
 320 225 l 1
 344 169 401 156 444 156 c 0
 476 156 511 167 538 182 c 1
 515 15 l 1
 476 2 428 -10 375 -10 c 0
 264 -10 128 43 109 225 c 1
 19 225 l 1
 32 317 l 1
 110 317 l 1
 117 365 l 1
 39 365 l 1
 52 457 l 1
 142 457 l 1
 208 637 360 692 477 692 c 0xf4
EndSplineSet
EndChar

StartChar: florin
Encoding: 402 402 273
Width: 418
Flags: MW
HStem: -184 122<-25.5 91.5> 369 142<56 100 36 120 318 418> 606 122<278.5 395> 708 20G<278.5 351>
VStem: -94 558
LayerCount: 2
Fore
SplineSet
333 728 m 0xe8
 369 728 432 719 464 706 c 1xd8
 449 596 l 1
 436 601 402 606 388 606 c 0
 363 606 330 603 323 548 c 2
 318 511 l 1
 438 511 l 1
 418 369 l 1
 298 369 l 1
 241 -33 l 2
 226 -141 146 -184 37 -184 c 0
 1 -184 -62 -175 -94 -162 c 1
 -79 -52 l 1
 -64 -57 -33 -62 -18 -62 c 0
 7 -62 39 -59 47 -4 c 2
 100 369 l 1
 36 369 l 1
 56 511 l 1
 120 511 l 1
 129 577 l 2
 144 685 224 728 333 728 c 0xe8
EndSplineSet
EndChar

StartChar: sterling
Encoding: 163 163 274
Width: 668
Flags: MW
HStem: 0 147<44 108 285 546 24 108> 266 147<51 125 32 145 343 419> 552 148<401 435.5>
VStem: 471 201<511.5 515.5>
LayerCount: 2
Fore
SplineSet
442 700 m 0
 574 700 672 620 672 517 c 0
 672 506 670 495 669 484 c 2
 666 466 l 1
 467 466 l 1
 469 478 l 2
 470 485 471 494 471 501 c 0
 471 530 450 552 421 552 c 0
 381 552 360 526 355 494 c 2
 343 413 l 1
 439 413 l 1
 419 266 l 1
 322 266 l 1
 285 147 l 1
 567 147 l 1
 546 0 l 1
 24 0 l 1
 44 147 l 1
 108 147 l 1
 125 266 l 1
 32 266 l 1
 51 413 l 1
 145 413 l 1
 157 493 l 2
 174 609 281 700 442 700 c 0
EndSplineSet
EndChar

StartChar: yen
Encoding: 165 165 275
Width: 712
Flags: MW
HStem: 224 93<71 224 71 240 58 224 491 637> 364 93<91 168 91 204 77 168 586 656> 666 20G<77 313 313 313 526 741 741 741>
VStem: 58 683<224 686>
LayerCount: 2
Fore
SplineSet
586 457 m 1
 670 457 l 1
 656 364 l 1
 523 364 l 1
 491 317 l 1
 650 317 l 1
 637 224 l 1
 449 224 l 1
 417 0 l 1
 208 0 l 1
 240 224 l 1
 58 224 l 1
 71 317 l 1
 224 317 l 1
 204 364 l 1
 77 364 l 1
 91 457 l 1
 168 457 l 1
 77 686 l 1
 313 686 l 1
 384 461 l 1
 389 461 l 1
 526 686 l 1
 741 686 l 1
 586 457 l 1
EndSplineSet
EndChar

StartChar: Ohm
Encoding: 8486 8486 276
Width: 765
Flags: MW
HStem: 0 162<18 29 18 300 -4 29> 540 154<410 415 415 420>
VStem: 507 220<448 477.5>
LayerCount: 2
Fore
SplineSet
410 694 m 2
 466 694 l 2
 618 694 727 582 727 436 c 0
 727 422 726 408 724 394 c 2
 718 350 l 2
 707 270 656 202 583 142 c 1
 698 162 l 1
 709 162 l 1
 687 0 l 1
 382 0 l 1
 394 85 l 1
 432 100 463 134 469 177 c 2
 488 308 l 2
 496 375 507 443 507 453 c 0
 507 502 471 540 420 540 c 2
 415 540 l 2
 359 540 309 495 301 440 c 2
 264 177 l 2
 263 174 263 172 263 170 c 2
 263 163 l 2
 263 128 281 98 312 85 c 1
 300 0 l 1
 -4 0 l 1
 18 162 l 1
 29 162 l 1
 138 142 l 1
 89 194 60 251 60 318 c 0
 60 329 61 339 62 350 c 2
 68 394 l 2
 91 560 245 694 410 694 c 2
EndSplineSet
EndChar

StartChar: approxequal
Encoding: 8776 8776 277
Width: 615
Flags: MW
HStem: 57 126<367 430.5> 123 126<143 209.5> 278 126<397.5 462.5> 344 126<175 240>
VStem: -9 625<45 482>
LayerCount: 2
Fore
SplineSet
616 482 m 1x68
 599 356 l 1
 565 322 500 278 425 278 c 0xa8
 339 278 284 344 196 344 c 0
 118 344 56 298 22 266 c 1
 40 392 l 1
 74 424 136 470 214 470 c 0x58
 299 470 353 404 442 404 c 0
 517 404 582 448 616 482 c 1x68
585 261 m 1
 567 135 l 1
 533 101 468 57 393 57 c 0x98
 308 57 254 123 165 123 c 0
 87 123 25 77 -9 45 c 1
 8 171 l 1
 42 203 104 249 182 249 c 0x58
 268 249 323 183 411 183 c 0
 486 183 551 227 585 261 c 1
EndSplineSet
EndChar

StartChar: asciitilde
Encoding: 126 126 278
Width: 649
Flags: MW
HStem: 202 126<406 469.5> 268 126<182 247>
VStem: 29 595<190 406>
LayerCount: 2
Fore
SplineSet
624 406 m 1xa0
 606 280 l 1
 572 246 507 202 432 202 c 0xa0
 346 202 291 268 203 268 c 0
 125 268 63 222 29 190 c 1
 47 316 l 1
 81 348 143 394 221 394 c 0x60
 307 394 362 328 450 328 c 0
 525 328 590 372 624 406 c 1xa0
EndSplineSet
EndChar

StartChar: bulletoperator
Encoding: 8729 8729 279
Width: 287
Flags: MW
HStem: 197 183<60 226 35 251>
VStem: 35 216<197 380>
LayerCount: 2
Fore
SplineSet
226 197 m 1
 35 197 l 1
 60 380 l 1
 251 380 l 1
 226 197 l 1
EndSplineSet
EndChar

StartChar: divide
Encoding: 247 247 280
Width: 615
Flags: MW
HStem: 17 127<225 334 207 352> 193 128<56 550 38 568> 369 127<274 383 256 401>
VStem: 38 530<193 321>
LayerCount: 2
Fore
SplineSet
383 369 m 1
 256 369 l 1
 274 496 l 1
 401 496 l 1
 383 369 l 1
550 193 m 1
 38 193 l 1
 56 321 l 1
 568 321 l 1
 550 193 l 1
334 17 m 1
 207 17 l 1
 225 144 l 1
 352 144 l 1
 334 17 l 1
EndSplineSet
EndChar

StartChar: divisionslash
Encoding: 8725 8725 281
Width: 482
Flags: MW
HStem: 666 20G<465 551 551 551>
VStem: -51 602
LayerCount: 2
Fore
SplineSet
38 0 m 1
 -51 0 l 1
 465 686 l 1
 551 686 l 1
 38 0 l 1
EndSplineSet
EndChar

StartChar: equal
Encoding: 61 61 282
Width: 615
Flags: MW
HStem: 81 128<40 534 22 552> 301 128<71 565 53 583>
VStem: 22 561<81 429>
LayerCount: 2
Fore
SplineSet
565 301 m 1
 53 301 l 1
 71 429 l 1
 583 429 l 1
 565 301 l 1
534 81 m 1
 22 81 l 1
 40 209 l 1
 552 209 l 1
 534 81 l 1
EndSplineSet
EndChar

StartChar: greater
Encoding: 62 62 283
Width: 615
Flags: MW
HStem: 501 20G<94 94>
VStem: 19 556<-11 324>
LayerCount: 2
Fore
SplineSet
575 324 m 1
 556 185 l 1
 19 -11 l 1
 39 127 l 1
 404 254 l 1
 74 382 l 1
 94 521 l 1
 575 324 l 1
EndSplineSet
EndChar

StartChar: greaterequal
Encoding: 8805 8805 284
Width: 615
Flags: MW
HStem: 0 128<30 523 12 541> 500 20G<85 85>
VStem: 12 566<0 403>
LayerCount: 2
Fore
SplineSet
578 403 m 1
 558 264 l 1
 33 148 l 1
 52 286 l 1
 407 333 l 1
 66 381 l 1
 85 520 l 1
 578 403 l 1
523 0 m 1
 12 0 l 1
 30 128 l 1
 541 128 l 1
 523 0 l 1
EndSplineSet
EndChar

StartChar: increment
Encoding: 8710 8710 285
Width: 635
Flags: MW
HStem: 0 109<146 442 146 570> 666 20G<305 444 444 444>
VStem: -14 597<0 93>
LayerCount: 2
Fore
SplineSet
583 93 m 1
 570 0 l 1
 -14 0 l 1
 -1 93 l 1
 305 686 l 1
 444 686 l 1
 583 93 l 1
146 109 m 1
 442 109 l 1
 353 525 l 1
 146 109 l 1
EndSplineSet
EndChar

StartChar: infinity
Encoding: 8734 8734 286
Width: 822
Flags: MW
HStem: 91 99<191.5 231 565 618> 378 98<216.5 269.5 581 630.5>
VStem: 35 103<247.5 304.5 247.5 316.5> 680 105<303.5 306 306 322 303.5 322.5>
LayerCount: 2
Fore
SplineSet
627 476 m 0
 715 476 785 419 785 322 c 2
 785 306 l 2
 785 301 784 295 783 290 c 0
 767 162 664 91 572 91 c 0
 522 91 451 104 396 204 c 1
 333 136 273 91 189 91 c 0
 104 91 35 151 35 250 c 0
 35 383 139 476 255 476 c 0
 336 476 386 440 429 368 c 1
 470 406 531 476 627 476 c 0
239 378 m 0
 194 378 138 340 138 269 c 0
 138 226 169 190 214 190 c 0
 268 190 317 237 354 277 c 1
 350 285 l 2
 321 338 300 378 239 378 c 0
607 378 m 0
 555 378 509 328 474 291 c 0
 471 289 469 287 468 285 c 0
 513 205 544 190 586 190 c 0
 650 190 680 261 680 299 c 0
 680 346 654 378 607 378 c 0
EndSplineSet
EndChar

StartChar: integral
Encoding: 8747 8747 287
Width: 318
Flags: MW
HStem: -250 68<-47 -33.5 -47 23 -57 -33.5> 683 68<340.5 354>
VStem: -57 421 42 138
LayerCount: 2
Fore
SplineSet
364 751 m 1xe0
 354 683 l 1
 327 683 268 682 264 642 c 2
 230 311 l 2
 212 136 190 -60 180 -138 c 0
 169 -215 91 -250 23 -250 c 2
 -57 -250 l 1
 -47 -182 l 1
 -20 -182 37 -180 42 -141 c 2
 76 190 l 2
 95 365 115 559 126 639 c 0xd0
 137 716 215 751 283 751 c 2
 364 751 l 1xe0
EndSplineSet
EndChar

StartChar: less
Encoding: 60 60 288
Width: 615
Flags: MW
HStem: 501 20G<586 586>
VStem: 30 556<185 521>
LayerCount: 2
Fore
SplineSet
566 382 m 1
 200 254 l 1
 531 127 l 1
 511 -11 l 1
 30 185 l 1
 49 324 l 1
 586 521 l 1
 566 382 l 1
EndSplineSet
EndChar

StartChar: lessequal
Encoding: 8804 8804 289
Width: 615
Flags: MW
HStem: 0 128<28 521 10 539> 500 20G<594 594>
VStem: 10 584<0 520>
LayerCount: 2
Fore
SplineSet
575 381 m 1
 220 333 l 1
 561 286 l 1
 542 148 l 1
 49 264 l 1
 69 403 l 1
 594 520 l 1
 575 381 l 1
521 0 m 1
 10 0 l 1
 28 128 l 1
 539 128 l 1
 521 0 l 1
EndSplineSet
EndChar

StartChar: logicalnot
Encoding: 172 172 290
Width: 621
Flags: MW
HStem: 334 150<58 425 37 596>
VStem: 37 559<334 484>
LayerCount: 2
Fore
SplineSet
551 158 m 1
 401 158 l 1
 425 334 l 1
 37 334 l 1
 58 484 l 1
 596 484 l 1
 551 158 l 1
EndSplineSet
EndChar

StartChar: micro
Encoding: 181 181 291
Width: 650
Flags: MW
HStem: -10 121<436.5 570> 491 20G<87 285 285 285 391 589 589 589>
VStem: -8 608<-161 120>
LayerCount: 2
Fore
SplineSet
391 511 m 1
 589 511 l 1
 563 336 537 158 537 140 c 0
 537 120 551 111 564 111 c 0
 576 111 586 114 600 120 c 1
 585 13 l 1
 564 0 531 -10 481 -10 c 0
 392 -10 356 20 345 71 c 1
 329 50 283 0 205 -8 c 1
 205 -18 l 2
 205 -33 205 -56 201 -83 c 2
 190 -161 l 1
 -8 -161 l 1
 87 511 l 1
 285 511 l 1
 262 352 l 2
 249 272 239 188 239 181 c 0
 239 153 254 131 285 131 c 0
 320 131 341 158 346 191 c 2
 391 511 l 1
EndSplineSet
EndChar

StartChar: minus
Encoding: 8722 8722 292
Width: 615
Flags: MW
HStem: 213 150<61 552 40 573>
VStem: 40 533<213 363>
LayerCount: 2
Fore
SplineSet
552 213 m 1
 40 213 l 1
 61 363 l 1
 573 363 l 1
 552 213 l 1
EndSplineSet
EndChar

StartChar: multiply
Encoding: 215 215 293
Width: 615
Flags: MW
HStem: 30 452<134 197 197 406>
VStem: 56 491<120 392>
LayerCount: 2
Fore
SplineSet
547 392 m 1
 393 256 l 1
 508 120 l 1
 406 30 l 1
 289 165 l 1
 134 30 l 1
 56 120 l 1
 211 256 l 1
 95 392 l 1
 197 482 l 1
 314 347 l 1
 469 482 l 1
 547 392 l 1
EndSplineSet
EndChar

StartChar: notequal
Encoding: 8800 8800 294
Width: 615
Flags: MW
HStem: 81 128<40 105 22 211 320 534 40 216> 301 128<71 287 53 392 500 565 71 396> 301 210<53 567 459 565 396 567>
VStem: 22 561<81 429>
LayerCount: 2
Fore
SplineSet
500 429 m 1xd0
 583 429 l 1xd0
 565 301 l 1
 396 301 l 1
 320 209 l 1
 552 209 l 1
 534 81 l 1
 216 81 l 1
 150 0 l 1
 39 0 l 1
 105 81 l 1
 22 81 l 1
 40 209 l 1
 211 209 l 1
 287 301 l 1
 53 301 l 1xb0
 71 429 l 1
 392 429 l 1xd0
 459 511 l 1
 567 511 l 1xb0
 500 429 l 1xd0
EndSplineSet
EndChar

StartChar: partialdiff
Encoding: 8706 8706 295
Width: 621
Flags: MW
HStem: -10 140<176 278 242 278> 321 116<278 289.5 205 298 205 304> 546 150<213 334 192 369>
VStem: 15 191<176 196.5 176 274> 401 195<481 482 461 499>
LayerCount: 2
Fore
SplineSet
213 696 m 1
 369 696 l 2
 501 696 596 606 596 482 c 2
 596 464 l 2
 596 458 595 452 594 446 c 2
 565 240 l 2
 545 96 433 -10 270 -10 c 2
 242 -10 l 2
 110 -10 15 70 15 194 c 0
 15 354 139 437 271 437 c 0
 308 437 359 422 388 385 c 1
 401 481 l 1
 401 517 371 546 334 546 c 2
 192 546 l 1
 213 696 l 1
304 321 m 2
 298 321 l 2
 258 321 219 287 213 246 c 2
 207 205 l 2
 206 202 206 199 206 194 c 0
 206 158 233 130 272 130 c 2
 278 130 l 2
 318 130 357 164 363 205 c 2
 370 256 l 1
 370 293 341 321 304 321 c 2
EndSplineSet
EndChar

StartChar: percent
Encoding: 37 37 296
Width: 715
Flags: MW
HStem: -1 72<469.5 532.5 512.5 523> 276 71<550 560.5> 337 72<126.5 189.5 169.5 180> 614 71<207 217.5>
VStem: 51 95<442 443.5 432.5 451 432.5 452.5> 239 97<569.5 590.5> 394 95<104 105.5 94.5 113 94.5 114.5> 582 97<231.5 252.5>
LayerCount: 2
Fore
SplineSet
155 0 m 1xbf
 60 0 l 1
 576 686 l 1
 669 686 l 1
 155 0 l 1xbf
207 685 m 2
 229 685 l 2
 292 685 336 640 336 580 c 2
 336 571 l 2
 336 568 336 565 335 562 c 2
 321 460 l 2
 310 392 260 337 180 337 c 2
 158 337 l 2
 95 337 51 382 51 442 c 2
 51 451 l 2
 51 454 51 457 52 460 c 2
 66 562 l 2
 75 630 129 685 207 685 c 2
208 614 m 0
 188 614 168 598 165 575 c 0
 146 447 146 445 146 442 c 0
 146 423 160 409 179 409 c 0
 200 409 218 425 221 448 c 2
 230 510 l 2
 235 542 238 574 239 581 c 0
 239 600 227 614 208 614 c 0
550 347 m 2xdf
 572 347 l 2
 635 347 679 302 679 242 c 2
 679 233 l 2
 679 230 679 227 678 224 c 2
 664 122 l 2
 653 54 603 -1 523 -1 c 2
 501 -1 l 2
 438 -1 394 44 394 104 c 2
 394 113 l 2
 394 116 394 119 395 122 c 2
 409 224 l 2
 418 292 472 347 550 347 c 2xdf
551 276 m 0
 531 276 511 260 508 237 c 0
 489 109 489 107 489 104 c 0
 489 85 503 71 522 71 c 0
 543 71 561 87 564 110 c 2
 573 172 l 2
 578 204 581 236 582 243 c 0
 582 262 570 276 551 276 c 0
EndSplineSet
EndChar

StartChar: perthousand
Encoding: 8240 8240 297
Width: 1058
Flags: MW
HStem: -1 72<471.5 534.5 514.5 525 856.5 867> 276 71<552 562.5 894 904.5> 338 72<128.5 191.5 171.5 182> 615 71<209 219.5>
VStem: 53 95<443 444.5 433.5 452 433.5 453.5> 241 97<570.5 591.5> 396 95<104 105.5 94.5 113 94.5 114.5> 584 97<231.5 252.5> 738 95<104 105.5 94.5 113 94.5 114.5> 926 97<231.5 252.5>
LayerCount: 2
Fore
SplineSet
209 686 m 2xdfc0
 231 686 l 2
 294 686 338 641 338 581 c 2
 338 572 l 2
 338 569 338 566 337 563 c 2
 323 461 l 2
 312 393 262 338 182 338 c 2
 160 338 l 2x3c
 97 338 53 383 53 443 c 2
 53 452 l 2
 53 455 53 458 54 461 c 2
 68 563 l 2
 77 631 131 686 209 686 c 2xdfc0
157 0 m 1
 62 0 l 1
 578 686 l 1
 671 686 l 1
 157 0 l 1
210 615 m 0
 190 615 170 599 167 576 c 0
 148 448 148 446 148 443 c 0
 148 424 162 410 181 410 c 0
 202 410 220 426 223 449 c 2
 232 511 l 2
 237 543 240 575 241 582 c 0
 241 601 229 615 210 615 c 0
552 347 m 2xc3c0
 574 347 l 2
 637 347 681 302 681 242 c 2
 681 233 l 2
 681 230 681 227 680 224 c 2
 666 122 l 2
 655 54 605 -1 525 -1 c 2
 503 -1 l 2
 440 -1 396 44 396 104 c 2
 396 113 l 2
 396 116 396 119 397 122 c 2
 411 224 l 2
 420 292 474 347 552 347 c 2xc3c0
894 347 m 2
 916 347 l 2
 979 347 1023 302 1023 242 c 2
 1023 233 l 2
 1023 230 1023 227 1022 224 c 2
 1008 122 l 2
 997 54 947 -1 867 -1 c 2
 845 -1 l 2
 782 -1 738 44 738 104 c 2
 738 113 l 2
 738 116 738 119 739 122 c 2
 753 224 l 2
 762 292 816 347 894 347 c 2
553 276 m 0
 533 276 513 260 510 237 c 0
 491 109 491 107 491 104 c 0
 491 85 505 71 524 71 c 0
 545 71 563 87 566 110 c 2
 575 172 l 2
 580 204 583 236 584 243 c 0
 584 262 572 276 553 276 c 0
895 276 m 0
 875 276 855 260 852 237 c 0
 833 109 833 107 833 104 c 0
 833 85 847 71 866 71 c 0
 887 71 905 87 908 110 c 2
 917 172 l 2
 922 204 925 236 926 243 c 0
 926 262 914 276 895 276 c 0
EndSplineSet
EndChar

StartChar: plus
Encoding: 43 43 298
Width: 615
Flags: MW
HStem: 192 128<55 230 38 247 375 550 55 358> 492 20G<274 402 402 402>
VStem: 38 529<192 320>
LayerCount: 2
Fore
SplineSet
375 320 m 1
 567 320 l 1
 550 192 l 1
 358 192 l 1
 331 0 l 1
 203 0 l 1
 230 192 l 1
 38 192 l 1
 55 320 l 1
 247 320 l 1
 274 512 l 1
 402 512 l 1
 375 320 l 1
EndSplineSet
EndChar

StartChar: plusminus
Encoding: 177 177 299
Width: 615
Flags: MW
HStem: 0 128<29 523 11 541> 272 128<67 241 49 259 387 561 67 369> 272 240<49 402 49 402 369 402 274 561 369 369>
VStem: 11 568<0 400>
LayerCount: 2
Fore
SplineSet
387 400 m 1xd0
 579 400 l 1xd0
 561 272 l 1
 369 272 l 1
 353 160 l 1
 225 160 l 1
 241 272 l 1
 49 272 l 1xb0
 67 400 l 1
 259 400 l 1xd0
 274 512 l 1
 402 512 l 1xb0
 387 400 l 1xd0
523 0 m 1
 11 0 l 1
 29 128 l 1
 541 128 l 1
 523 0 l 1
EndSplineSet
EndChar

StartChar: product
Encoding: 8719 8719 300
Width: 898
Flags: MW
HStem: 551 180<87 179 62 933 393 576 393 393 791 908 791 791>
VStem: 62 871<551 731>
LayerCount: 2
Fore
SplineSet
908 551 m 1
 791 551 l 1
 699 -101 l 1
 484 -101 l 1
 576 551 l 1
 393 551 l 1
 301 -101 l 1
 87 -101 l 1
 179 551 l 1
 62 551 l 1
 87 731 l 1
 933 731 l 1
 908 551 l 1
EndSplineSet
EndChar

StartChar: radical
Encoding: 8730 8730 301
Width: 736
Flags: MW
HStem: -153 982<232 824 232 824>
VStem: -8 832<328 829>
LayerCount: 2
Fore
SplineSet
392 -153 m 1
 232 -153 l 1
 103 271 l 1
 13 236 l 1
 -8 328 l 1
 245 427 l 1
 322 120 l 2
 330 89 335 60 342 32 c 1
 353 57 363 89 378 124 c 2
 675 829 l 1
 824 829 l 1
 392 -153 l 1
EndSplineSet
EndChar

StartChar: summation
Encoding: 8721 8721 302
Width: 711
Flags: MW
HStem: -101 181<284 627> 556 175<376 693 376 376>
VStem: -27 745
LayerCount: 2
Fore
SplineSet
693 556 m 1
 376 556 l 1
 376 552 l 1
 538 337 l 1
 285 85 l 1
 284 80 l 1
 652 80 l 1
 627 -101 l 1
 -27 -101 l 1
 -10 17 l 1
 287 312 l 1
 83 593 l 1
 102 731 l 1
 718 731 l 1
 693 556 l 1
EndSplineSet
EndChar

StartChar: lozenge
Encoding: 9674 9674 303
Width: 535
Flags: MW
HStem: 0 121<244 244 244 295 156 244> 565 121<307 307> 666 20G<253 392 392 392>
VStem: 33 483<343 343>
LayerCount: 2
Fore
SplineSet
516 343 m 1xb0
 295 0 l 1
 156 0 l 1
 33 343 l 1
 253 686 l 1
 392 686 l 1
 516 343 l 1xb0
169 343 m 1
 244 121 l 1
 382 343 l 1
 307 565 l 1xd0
 169 343 l 1
EndSplineSet
EndChar

StartChar: bar
Encoding: 124 124 304
Width: 291
Flags: MW
HStem: 700 20G<81 201 201 201>
VStem: 81 120<-199 720>
LayerCount: 2
Fore
SplineSet
201 -199 m 1
 81 -199 l 1
 81 720 l 1
 201 720 l 1
 201 -199 l 1
EndSplineSet
EndChar

StartChar: brokenbar
Encoding: 166 166 305
Width: 270
Flags: MW
HStem: 0 274<58 169 19 208> 412 274<116 227 77 266>
VStem: 19 247
LayerCount: 2
Fore
SplineSet
227 412 m 1
 77 412 l 1
 116 686 l 1
 266 686 l 1
 227 412 l 1
169 0 m 1
 19 0 l 1
 58 274 l 1
 208 274 l 1
 169 0 l 1
EndSplineSet
EndChar

StartChar: at
Encoding: 64 64 306
Width: 907
Flags: MW
HStem: -153 61<282.5 393.5> 22 114 243 86<468 514> 364 157<232 509> 412 109<478 492.5> 636 61<408.5 606.5>
VStem: 23 73<84 182.5> 187 198<157.5 192.5 157.5 223> 531 182<377.5 379 379 381.5> 815 73<311.5 474>
LayerCount: 2
Fore
SplineSet
526 697 m 0xf7c0
 737 697 888 608 888 395 c 0
 888 103 725 22 622 22 c 0
 543 22 515 59 504 99 c 1
 466 61 416 23 339 23 c 0
 263 23 187 53 187 149 c 0
 187 297 327 329 527 329 c 1
 529 343 l 2
 530 351 531 359 531 366 c 0
 531 397 508 412 477 412 c 0xefc0
 451 412 414 395 411 368 c 2
 410 364 l 1
 232 364 l 1
 232 449 332 521 478 521 c 2
 509 521 l 2
 649 521 713 465 713 389 c 2
 713 379 l 2
 713 376 713 372 712 369 c 2
 684 171 l 2
 684 146 697 136 712 136 c 0
 761 136 815 237 815 386 c 0
 815 562 696 636 517 636 c 0
 277 636 96 485 96 172 c 0
 96 -4 185 -92 380 -92 c 0
 426 -92 512 -78 550 -60 c 1
 541 -126 l 1
 496 -142 415 -153 372 -153 c 0
 154 -153 23 -54 23 167 c 0
 23 198 25 227 30 262 c 0
 75 579 291 697 526 697 c 0xf7c0
509 202 m 2
 514 243 l 1
 422 243 385 213 385 172 c 0
 385 143 408 136 435 136 c 0
 468 136 504 163 509 202 c 2
EndSplineSet
EndChar

StartChar: ampersand
Encoding: 38 38 307
Width: 709
Flags: MW
HStem: 0 138<194 399 290 399 290 578> 279 142<265 446 325 419 637 697> 548 148<325.5 357.5> 673 20G<401 401>
VStem: 12 202<177.5 213 177.5 218> 77 192<463 498.5 463 551.5>
LayerCount: 2
Fore
SplineSet
351 696 m 0xe4
 368 696 385 695 401 693 c 1xd4
 380 543 l 1
 371 546 363 548 352 548 c 0
 299 548 269 522 269 475 c 0
 269 451 283 421 325 421 c 2xe4
 446 421 l 1
 516 540 l 1
 653 540 l 1
 637 421 l 1
 717 421 l 1
 697 279 l 1
 617 279 l 1
 578 0 l 1
 259 0 l 2
 129 0 12 38 12 166 c 0xd8
 12 270 65 335 160 358 c 1
 104 377 77 423 77 479 c 0
 77 624 203 696 351 696 c 0xe4
419 279 m 1xd8
 305 279 l 2
 225 279 214 227 214 199 c 0
 214 156 249 138 290 138 c 2
 399 138 l 1
 419 279 l 1xd8
EndSplineSet
EndChar

StartChar: paragraph
Encoding: 182 182 308
Width: 582
Flags: MW
HStem: 607 79<362 438 362 362 526 592 526 526>
VStem: 46 557<387 686>
LayerCount: 2
Fore
SplineSet
592 607 m 1
 526 607 l 1
 418 -161 l 1
 330 -161 l 1
 438 607 l 1
 362 607 l 1
 254 -161 l 1
 166 -161 l 1
 224 253 l 1
 119 256 46 337 46 437 c 0
 46 571 163 686 294 686 c 2
 603 686 l 1
 592 607 l 1
EndSplineSet
EndChar

StartChar: copyright
Encoding: 169 169 309
Width: 775
Flags: MW
HStem: -10 65<309.5 479 309.5 492.5> 131 94<339.5 406 397 406 406 409> 461 94<388 404 404 415> 632 64<309.5 479>
VStem: 41 76<256 431 256 441.5> 202 135<311 375 375 401 268.5 429> 466 112<285 305 251 305> 673 76<256 431>
LayerCount: 2
Fore
SplineSet
395 696 m 0
 590 696 749 539 749 344 c 0
 749 147 590 -10 395 -10 c 0
 198 -10 41 147 41 344 c 0
 41 539 198 696 395 696 c 0
395 632 m 0
 224 632 117 518 117 344 c 0
 117 168 224 55 395 55 c 0
 563 55 673 168 673 344 c 0
 673 518 563 632 395 632 c 0
388 555 m 2
 404 555 l 2
 502 555 578 497 578 380 c 1
 460 380 l 1
 460 401 l 2
 460 438 433 461 397 461 c 0
 364 461 337 434 337 401 c 2
 337 285 l 2
 337 252 364 225 397 225 c 2
 406 225 l 2
 439 225 466 246 466 285 c 2
 466 305 l 1
 578 305 l 1
 578 197 505 131 409 131 c 2
 392 131 l 2
 287 131 202 196 202 311 c 2
 202 375 l 2
 202 483 288 555 388 555 c 2
EndSplineSet
EndChar

StartChar: registered
Encoding: 174 174 310
Width: 775
Flags: MW
HStem: -10 65<309.5 479 309.5 492.5> 303 86<353 387 353 416> 459 88<353 353 353 416> 632 64<309.5 479>
VStem: 41 76<256 431 256 441.5> 230 123<135 303 135 389 389 459> 441 126<177.5 264.5> 446 129<423 429 429 437.5> 673 76<256 431>
LayerCount: 2
Fore
SplineSet
395 696 m 0xfe80
 590 696 749 539 749 344 c 0
 749 147 590 -10 395 -10 c 0
 198 -10 41 147 41 344 c 0
 41 539 198 696 395 696 c 0xfe80
395 632 m 0
 224 632 117 518 117 344 c 0
 117 168 224 55 395 55 c 0
 563 55 673 168 673 344 c 0
 673 518 563 632 395 632 c 0
230 547 m 1
 461 547 l 2
 520 547 575 507 575 445 c 0xfd80
 575 401 544 362 501 354 c 1
 500 351 l 1
 547 336 567 290 567 239 c 0
 567 214 568 173 597 165 c 1
 597 141 l 1
 576 132 548 129 525 129 c 0
 472 129 441 148 441 207 c 0
 441 245 439 303 387 303 c 2
 353 303 l 1
 353 135 l 1
 230 135 l 1
 230 547 l 1
353 459 m 1
 353 389 l 1
 416 389 l 2
 433 389 446 402 446 419 c 2
 446 429 l 2
 446 446 433 459 416 459 c 2
 353 459 l 1
EndSplineSet
EndChar

StartChar: section
Encoding: 167 167 311
Width: 568
Flags: MW
HStem: -185 160<8 275.5> 533 163<283.5 551 283.5 387> 578 118<309.5 339.5>
VStem: 6 166<-51 -25 -41 -39.5> 24 159<254.5 275.5> 77 177<497 555 497 578> 304 177<-44.5 14> 380 155<235 252> 387 166<533 552>
LayerCount: 2
Fore
SplineSet
337 696 m 0xc480
 430 696 553 666 553 563 c 2
 553 552 l 2
 553 548 552 542 551 533 c 1
 387 533 l 1xc480
 387 564 357 578 322 578 c 0
 297 578 254 573 254 537 c 0
 254 457 535 449 535 280 c 0xa5
 535 190 474 132 433 109 c 1
 465 88 481 45 481 4 c 0
 481 -138 329 -185 222 -185 c 0
 128 -185 6 -155 6 -51 c 2
 6 -41 l 2
 6 -38 7 -32 8 -25 c 1
 172 -25 l 1xd2
 172 -57 205 -67 242 -67 c 0
 266 -67 304 -63 304 -26 c 0
 304 54 24 61 24 232 c 0xca
 24 319 66 366 126 402 c 1
 94 423 77 466 77 507 c 0
 77 649 230 696 337 696 c 0xc480
221 343 m 1xc9
 198 334 183 309 183 286 c 0
 183 223 296 187 343 164 c 1
 358 170 380 187 380 220 c 0
 380 284 266 319 221 343 c 1xc9
EndSplineSet
EndChar

StartChar: trademark
Encoding: 8482 8482 312
Width: 1007
Flags: MW
HStem: 288 166<614 714 710 714 710 754 710 825 710 947> 590 96<101 202 88 451 324 438 324 324 579 579>
VStem: 88 914<590 686>
LayerCount: 2
Fore
SplineSet
438 590 m 1
 324 590 l 1
 282 288 l 1
 160 288 l 1
 202 590 l 1
 88 590 l 1
 101 686 l 1
 451 686 l 1
 438 590 l 1
947 288 m 1
 825 288 l 1
 865 563 l 1
 861 563 l 1
 754 288 l 1
 614 288 l 1
 583 563 l 1
 579 590 l 1
 543 288 l 1
 431 288 l 1
 486 686 l 1
 686 686 l 1
 710 454 l 1
 714 454 l 1
 802 686 l 1
 1002 686 l 1
 947 288 l 1
EndSplineSet
EndChar

StartChar: degree
Encoding: 176 176 313
Width: 354
Flags: MW
HStem: 396 87<187 221.5 187 237.5> 607 89<202 235>
VStem: 61 87<522.5 556.5 522.5 570.5> 274 90<534.5 569.5>
LayerCount: 2
Fore
SplineSet
234 696 m 0
 309 696 364 638 364 566 c 0
 364 481 284 396 191 396 c 0
 115 396 61 452 61 525 c 0
 61 616 144 696 234 696 c 0
219 607 m 0
 185 607 148 575 148 538 c 0
 148 507 171 483 203 483 c 0
 240 483 274 515 274 554 c 0
 274 585 251 607 219 607 c 0
EndSplineSet
EndChar

StartChar: estimated
Encoding: 8494 8494 314
Width: 723
Flags: MW
HStem: -10 95<338.5 399 338.5 418.5> 298 95<253 458 253 682 253 458> 582 114<253 454 258 458>
VStem: 30 223<106 357 393 463> 458 224<298 582>
LayerCount: 2
Fore
SplineSet
356 696 m 0
 552 696 682 569 682 358 c 2
 682 298 l 1
 253 298 l 1
 253 106 l 1
 284 92 319 85 358 85 c 0
 440 85 507 113 548 171 c 1
 632 112 l 1
 574 34 479 -10 358 -10 c 0
 160 -10 30 117 30 329 c 2
 30 357 l 2
 30 569 160 696 356 696 c 0
253 393 m 1
 458 393 l 1
 458 582 l 1
 428 595 394 601 356 601 c 0
 318 601 283 595 253 582 c 1
 253 393 l 1
EndSplineSet
EndChar

StartChar: literSign
Encoding: 8467 8467 315
Width: 539
Flags: MW
HStem: -11 122<187.5 342> 229 97<18 76 5 90> 565 135<366.5 401.5>
VStem: 63 203<75 167.5> 436 107<462.5 521.5>
LayerCount: 2
Fore
SplineSet
274 231 m 1
 269 194 l 2
 267 180 266 171 266 164 c 0
 266 121 299 111 324 111 c 0
 360 111 405 130 431 143 c 1
 415 31 l 1
 374 6 305 -11 236 -11 c 0
 139 -11 63 32 63 118 c 0
 63 129 64 139 68 170 c 2
 76 229 l 1
 5 229 l 1
 18 326 l 1
 90 326 l 1
 109 467 l 2
 130 620 222 700 361 700 c 0
 481 700 543 641 543 521 c 0
 543 393 472 243 274 231 c 1
387 565 m 0
 346 565 316 531 307 467 c 2
 287 326 l 1
 405 339 436 430 436 495 c 0
 436 548 416 565 387 565 c 0
EndSplineSet
EndChar

StartChar: asciicircum
Encoding: 94 94 316
Width: 600
Flags: MW
HStem: 491 20G<265 404 404 404>
VStem: -2 532<0 0>
LayerCount: 2
Fore
SplineSet
530 0 m 1
 392 0 l 1
 314 350 l 1
 137 0 l 1
 -2 0 l 1
 265 511 l 1
 404 511 l 1
 530 0 l 1
EndSplineSet
EndChar

StartChar: dagger
Encoding: 8224 8224 317
Width: 568
Flags: MW
HStem: 490 20G 666 20G<268 411 411 411>
VStem: 268 95<490 686>
LayerCount: 2
Fore
SplineSet
363 490 m 1
 574 510 l 1
 554 368 l 1
 349 388 l 1
 292 -161 l 1
 149 -161 l 1
 246 388 l 1
 35 368 l 1
 55 510 l 1
 268 490 l 1
 268 686 l 1
 411 686 l 1
 363 490 l 1
EndSplineSet
EndChar

StartChar: daggerdbl
Encoding: 8225 8225 318
Width: 590
Flags: MW
HStem: 490 20G 666 20G<274 422 422 422>
VStem: 219 143<124 388 257 388>
LayerCount: 2
Fore
SplineSet
374 490 m 1
 585 510 l 1
 565 368 l 1
 362 388 l 1
 362 257 l 1
 323 124 l 1
 534 144 l 1
 514 2 l 1
 305 22 l 1
 305 -175 l 1
 158 -175 l 1
 206 22 l 1
 -5 2 l 1
 15 144 l 1
 219 124 l 1
 219 257 l 1
 257 388 l 1
 46 368 l 1
 66 510 l 1
 274 490 l 1
 274 686 l 1
 422 686 l 1
 374 490 l 1
EndSplineSet
EndChar

StartChar: acute
Encoding: 180 180 319
Width: 333
Flags: MW
HStem: 575 145<143 149 31 294>
VStem: 31 264<575 717>
LayerCount: 2
Fore
SplineSet
295 717 m 1
 149 575 l 1
 31 575 l 1
 143 720 l 1
 294 720 l 1
 295 717 l 1
EndSplineSet
EndChar

StartChar: breve
Encoding: 728 728 320
Width: 520
Flags: MW
HStem: 613 86<233.5 287 233.5 313.5>
VStem: 68 96<731.5 737 731.5 737> 358 95<731.5 737>
LayerCount: 2
Fore
SplineSet
358 737 m 1
 453 737 l 1
 453 681 367 613 260 613 c 0
 153 613 68 681 68 737 c 1
 164 737 l 1
 164 726 207 699 260 699 c 0
 314 699 358 726 358 737 c 1
EndSplineSet
EndChar

StartChar: caron
Encoding: 711 711 321
Width: 540
Flags: MW
HStem: 575 145<193 205 75 321 193 193>
VStem: 75 406<720 720>
LayerCount: 2
Fore
SplineSet
321 575 m 1
 193 575 l 1
 75 720 l 1
 205 720 l 1
 268 643 l 1
 353 720 l 1
 481 720 l 1
 321 575 l 1
EndSplineSet
EndChar

